<svg height="496pt" viewBox="-24 0 496 496" width="496pt" xmlns="http://www.w3.org/2000/svg"><path d="M40 424h160v32H40zm0 0M40 360h160v32H40zm0 0" fill="#eebc5a"/><path d="M8 456h160v32H8zm0 0M8 392h160v32H8zm0 0" fill="#f8cf6a"/><path d="M280 424h160v32H280zm0 0M280 360h160v32H280zm0 0" fill="#eebc5a"/><path d="M248 456h160v32H248zm0 0M248 392h160v32H248zm0 0" fill="#f8cf6a"/><path d="M280 296h160v32H280zm0 0M280 232h160v32H280zm0 0" fill="#eebc5a"/><path d="M248 328h160v32H248zm0 0M248 264h160v32H248zm0 0" fill="#f8cf6a"/><path d="M184 248h-16c-26.512 0-48 21.488-48 48h16c26.512 0 48-21.488 48-48zm0 0" fill="#5da351"/><path d="M122.793 280H136c20.887 0 38.617-13.367 45.207-32H168c-20.887 0-38.617 13.367-45.207 32zm0 0" fill="#74c865"/><path d="M56 232h16c26.512 0 48 21.488 48 48h-16c-26.512 0-48-21.488-48-48zm0 0" fill="#5da351"/><path d="M117.207 264H104c-20.887 0-38.617-13.367-45.207-32H72c20.887 0 38.617 13.367 45.207 32zm0 0" fill="#74c865"/><path d="M120 184h32c26.512 0 48-21.488 48-48h-32c-26.512 0-48 21.488-48 48zm0 0" fill="#5da351"/><path d="M122.793 168H152c20.887 0 38.617-13.367 45.207-32H168c-20.887 0-38.617 13.367-45.207 32zm0 0" fill="#74c865"/><path d="M120 200H88c-26.512 0-48-21.488-48-48h32c26.512 0 48 21.488 48 48zm0 0" fill="#5da351"/><path d="M117.207 184H88c-20.887 0-38.617-13.367-45.207-32H72c20.887 0 38.617 13.367 45.207 32zm0 0" fill="#74c865"/><path d="M424 120h-16c-26.512 0-48 21.488-48 48h16c26.512 0 48-21.488 48-48zm0 0" fill="#5da351"/><path d="M362.793 152H376c20.887 0 38.617-13.367 45.207-32H408c-20.887 0-38.617 13.367-45.207 32zm0 0" fill="#74c865"/><path d="M296 104h16c26.512 0 48 21.488 48 48h-16c-26.512 0-48-21.488-48-48zm0 0" fill="#5da351"/><path d="M357.207 136H344c-20.887 0-38.617-13.367-45.207-32H312c20.887 0 38.617 13.367 45.207 32zm0 0" fill="#74c865"/><path d="M360 56h32c26.512 0 48-21.488 48-48h-32c-26.512 0-48 21.488-48 48zm0 0" fill="#5da351"/><path d="M362.793 40H392c20.887 0 38.617-13.367 45.207-32H408c-20.887 0-38.617 13.367-45.207 32zm0 0" fill="#74c865"/><path d="M360 72h-32c-26.512 0-48-21.488-48-48h32c26.512 0 48 21.488 48 48zm0 0" fill="#5da351"/><path d="M357.207 56H328c-20.887 0-38.617-13.367-45.207-32H312c20.887 0 38.617 13.367 45.207 32zm0 0" fill="#74c865"/><path d="M168 496H8c-4.414 0-8-3.574-8-8v-32c0-4.426 3.586-8 8-8h160c4.414 0 8 3.574 8 8v32c0 4.426-3.586 8-8 8zM16 480h144v-16H16zm0 0"/><path d="M32 456h16v32H32zm0 0M64 456h16v32H64zm0 0M96 456h16v32H96zm0 0M128 456h16v32h-16zm0 0"/><path d="M200 464H40c-4.414 0-8-3.574-8-8v-32c0-4.426 3.586-8 8-8h160c4.414 0 8 3.574 8 8v32c0 4.426-3.586 8-8 8zM48 448h144v-16H48zm0 0"/><path d="M168 432H8c-4.414 0-8-3.574-8-8v-32c0-4.426 3.586-8 8-8h160c4.414 0 8 3.574 8 8v32c0 4.426-3.586 8-8 8zM16 416h144v-16H16zm0 0"/><path d="M32 392h16v32H32zm0 0M64 392h16v32H64zm0 0M96 392h16v32H96zm0 0M128 392h16v32h-16zm0 0"/><path d="M200 400H40c-4.414 0-8-3.574-8-8v-32c0-4.426 3.586-8 8-8h160c4.414 0 8 3.574 8 8v32c0 4.426-3.586 8-8 8zM48 384h144v-16H48zm0 0M408 496H248c-4.414 0-8-3.574-8-8v-32c0-4.426 3.586-8 8-8h160c4.414 0 8 3.574 8 8v32c0 4.426-3.586 8-8 8zm-152-16h144v-16H256zm0 0"/><path d="M272 456h16v32h-16zm0 0M304 456h16v32h-16zm0 0M336 456h16v32h-16zm0 0M368 456h16v32h-16zm0 0"/><path d="M440 464H280c-4.414 0-8-3.574-8-8v-32c0-4.426 3.586-8 8-8h160c4.414 0 8 3.574 8 8v32c0 4.426-3.586 8-8 8zm-152-16h144v-16H288zm0 0"/><path d="M408 432H248c-4.414 0-8-3.574-8-8v-32c0-4.426 3.586-8 8-8h160c4.414 0 8 3.574 8 8v32c0 4.426-3.586 8-8 8zm-152-16h144v-16H256zm0 0"/><path d="M272 392h16v32h-16zm0 0M304 392h16v32h-16zm0 0M336 392h16v32h-16zm0 0M368 392h16v32h-16zm0 0"/><path d="M440 400H280c-4.414 0-8-3.574-8-8v-32c0-4.426 3.586-8 8-8h160c4.414 0 8 3.574 8 8v32c0 4.426-3.586 8-8 8zm-152-16h144v-16H288zm0 0"/><path d="M408 368H248c-4.414 0-8-3.574-8-8v-32c0-4.426 3.586-8 8-8h160c4.414 0 8 3.574 8 8v32c0 4.426-3.586 8-8 8zm-152-16h144v-16H256zm0 0"/><path d="M272 328h16v32h-16zm0 0M304 328h16v32h-16zm0 0M336 328h16v32h-16zm0 0M368 328h16v32h-16zm0 0"/><path d="M440 336H280c-4.414 0-8-3.574-8-8v-32c0-4.426 3.586-8 8-8h160c4.414 0 8 3.574 8 8v32c0 4.426-3.586 8-8 8zm-152-16h144v-16H288zm0 0"/><path d="M408 304H248c-4.414 0-8-3.574-8-8v-32c0-4.426 3.586-8 8-8h160c4.414 0 8 3.574 8 8v32c0 4.426-3.586 8-8 8zm-152-16h144v-16H256zm0 0"/><path d="M272 264h16v32h-16zm0 0M304 264h16v32h-16zm0 0M336 264h16v32h-16zm0 0M368 264h16v32h-16zm0 0"/><path d="M440 272H280c-4.414 0-8-3.574-8-8v-32c0-4.414 3.586-8 8-8h160c4.414 0 8 3.586 8 8v32c0 4.426-3.586 8-8 8zm-152-16h144v-16H288zm0 0M392 64h-32c-4.414 0-8-3.586-8-8 0-30.879 25.121-56 56-56h32c4.414 0 8 3.586 8 8 0 30.879-25.121 56-56 56zm-23.191-16H392c19.32 0 35.48-13.77 39.191-32H408c-19.32 0-35.48 13.77-39.191 32zm0 0"/><path d="M360 80h-32c-30.879 0-56-25.121-56-56 0-4.414 3.586-8 8-8h32c30.879 0 56 25.121 56 56 0 4.414-3.586 8-8 8zm-71.191-48c3.71 18.23 19.87 32 39.191 32h23.191c-3.71-18.23-19.87-32-39.191-32zm0 0"/><path d="M352 56h16v176h-16zm0 0"/><path d="M360 160h-16c-30.879 0-56-25.121-56-56 0-4.414 3.586-8 8-8h16c30.879 0 56 25.121 56 56 0 4.414-3.586 8-8 8zm-55.191-48c3.71 18.23 19.878 32 39.191 32h7.191c-3.71-18.23-19.879-32-39.191-32zm0 0"/><path d="M376 176h-16c-4.414 0-8-3.586-8-8 0-30.879 25.121-56 56-56h16c4.414 0 8 3.586 8 8 0 30.879-25.121 56-56 56zm-7.191-16H376c19.32 0 35.48-13.77 39.191-32H408c-19.32 0-35.48 13.77-39.191 32zm0 0M152 192h-32c-4.414 0-8-3.586-8-8 0-30.879 25.121-56 56-56h32c4.414 0 8 3.586 8 8 0 30.879-25.121 56-56 56zm-23.191-16H152c19.32 0 35.48-13.77 39.191-32H168c-19.32 0-35.48 13.77-39.191 32zm0 0"/><path d="M120 208H88c-30.879 0-56-25.121-56-56 0-4.414 3.586-8 8-8h32c30.879 0 56 25.121 56 56 0 4.414-3.586 8-8 8zm-71.191-48c3.71 18.23 19.879 32 39.191 32h23.191c-3.71-18.23-19.879-32-39.191-32zm0 0"/><path d="M112 184h16v176h-16zm0 0"/><path d="M120 288h-16c-30.879 0-56-25.129-56-56 0-4.414 3.586-8 8-8h16c30.879 0 56 25.121 56 56 0 4.426-3.586 8-8 8zm-55.191-48c3.71 18.23 19.879 32 39.191 32h7.191c-3.71-18.23-19.879-32-39.191-32zm0 0"/><path d="M136 304h-16c-4.414 0-8-3.574-8-8 0-30.871 25.121-56 56-56h16c4.414 0 8 3.586 8 8 0 30.871-25.121 56-56 56zm-7.191-16H136c19.32 0 35.48-13.77 39.191-32H168c-19.32 0-35.48 13.77-39.191 32zm0 0"/></svg>