<svg height="512pt" viewBox="0 0 512.013 512" width="512pt" xmlns="http://www.w3.org/2000/svg"><path d="M177.164 162.227c-79.7 92.925-78.508 252.5-57.77 335.699a4.44 4.44 0 0 1-7 4.61 149.447 149.447 0 0 1-20.988-18.688C31.5 420.02 14.606 301.063 10.082 221.449c-1.367-24.32-1.621-44.972-1.535-59.308a2.564 2.564 0 0 1 2.164-2.391 2.566 2.566 0 0 1 2.785 1.621c6.996 20.055 20.395 57.176 31.059 86.36 2.136 6.144 4.27 11.859 6.144 17.066a6.601 6.601 0 0 0 6.54 4.41 6.598 6.598 0 0 0 6.09-5.008c11.948-43.86 52.312-77.312 85.421-97.707 7.934-4.777 15.445-8.96 22.102-12.289a5.205 5.205 0 0 1 6.313 8.023zm0 0" fill="#37474f"/><path d="M91.406 483.848C31.5 420.02 14.606 301.062 10.082 221.449c5.633 15.613 11.266 31.059 15.7 43.348a6.659 6.659 0 0 0 6.581 4.402 6.647 6.647 0 0 0 6.133-5 103.358 103.358 0 0 1 6.059-16.469c2.136 6.145 4.27 11.86 6.144 17.067a6.601 6.601 0 0 0 6.54 4.41 6.598 6.598 0 0 0 6.09-5.008c11.948-43.86 52.312-77.312 85.421-97.707-72.023 88.32-74.582 232.621-57.344 317.356zm0 0" fill="#607d8b"/><path d="M500.867 16.535c-5.008-7.98-15.543-10.39-23.527-5.383L108.95 352.145a513.633 513.633 0 0 0-1.41 46.992L495.483 40.062c7.98-5.007 10.395-15.542 5.383-23.527zm0 0" fill="#795548"/><path d="M503.48 435.207v68.266H153.7c18.773 0 34.984-20.649 45.738-39.25a59.073 59.073 0 0 1 51.285-29.016zm0 0" fill="#558b30"/><path d="M486.328 435.207v68.266H153.7c18.774 0 34.985-20.649 45.739-39.25a59.073 59.073 0 0 1 51.285-29.016zm0 0" fill="#8bc34a"/><path d="M115.059 512.008a13.105 13.105 0 0 1-7.73-2.559C9.175 437.691-.407 242.63.011 162.141a11.093 11.093 0 0 1 9.273-10.664 11.092 11.092 0 0 1 12.223 7.097c7.68 21.988 23.039 64.39 35.219 98.04 19.148-58.684 83.062-96.34 110.257-110.063a13.76 13.76 0 0 1 17.028 3.77 13.76 13.76 0 0 1-.352 17.433c-77.836 90.754-75.633 249.414-55.945 328.101a12.85 12.85 0 0 1-5.36 13.899 13.067 13.067 0 0 1-7.296 2.254zm-97.47-313.602c2.794 86.059 18.868 227.688 90.942 290.203-17.844-83.629-17.008-226.132 51.906-319.078-27.792 16.117-76.066 50.063-88.84 96.93a15.236 15.236 0 0 1-14.113 11.281A14.925 14.925 0 0 1 42.68 267.73a14517.977 14517.977 0 0 1-25.09-69.324zm0 0"/><path d="M107.531 407.672A8.535 8.535 0 0 1 99 399.289c-.273-15.707.21-31.793 1.426-47.785a8.445 8.445 0 0 1 2.703-5.613L471.547 4.887c.394-.356.816-.68 1.262-.961 11.976-7.512 27.77-3.899 35.285 8.07 7.332 11.684 4.086 27.078-7.336 34.809L113.344 405.39a8.53 8.53 0 0 1-5.813 2.28zm9.66-51.559a519.405 519.405 0 0 0-1.074 23.45L489.687 33.8c.391-.36.81-.68 1.258-.957a8.536 8.536 0 0 0 2.852-11.469 8.537 8.537 0 0 0-11.344-3.32zm0 0M153.707 512.008h-34.133a8.534 8.534 0 1 1 0-17.067h34.133c11.648 0 25.266-12.425 38.34-34.988a67.77 67.77 0 0 1 58.71-33.277H503.48c4.711 0 8.532 3.82 8.532 8.531a8.533 8.533 0 0 1-8.532 8.535H250.758a50.66 50.66 0 0 0-43.95 24.746c-16.734 28.883-34.593 43.52-53.101 43.52zm0 0"/><path d="M341.387 443.742a8.533 8.533 0 0 1-8.532-8.535V324.273c0-4.71 3.82-8.53 8.532-8.53a8.533 8.533 0 0 1 8.535 8.53v110.934a8.534 8.534 0 0 1-8.535 8.535zm0 0"/><path d="M341.387 332.809a8.544 8.544 0 0 1-6.032-2.5l-25.601-25.602c-3.23-3.348-3.188-8.672.105-11.96a8.53 8.53 0 0 1 11.961-.106l25.602 25.601a8.534 8.534 0 0 1-6.035 14.567zm0 0M341.387 384.008a8.527 8.527 0 0 1-6.032-2.5l-25.601-25.602a8.534 8.534 0 0 1 .105-11.96 8.53 8.53 0 0 1 11.961-.106l25.602 25.601a8.535 8.535 0 0 1-6.035 14.567zm0 0M341.387 435.207a8.527 8.527 0 0 1-6.032-2.5l-25.601-25.602a8.534 8.534 0 0 1 12.066-12.066l25.602 25.602a8.535 8.535 0 0 1-6.035 14.566zm0 0"/><path d="M341.387 332.809a8.532 8.532 0 0 1-7.88-5.27 8.527 8.527 0 0 1 1.848-9.297l25.602-25.601a8.53 8.53 0 0 1 11.961.105c3.293 3.29 3.336 8.613.105 11.961l-25.601 25.602a8.546 8.546 0 0 1-6.035 2.5zm0 0M341.387 384.008a8.532 8.532 0 0 1-7.88-5.27 8.528 8.528 0 0 1 1.848-9.297l25.602-25.601a8.53 8.53 0 0 1 11.961.105 8.534 8.534 0 0 1 .105 11.961l-25.601 25.602a8.53 8.53 0 0 1-6.035 2.5zm0 0M341.387 435.207a8.526 8.526 0 0 1-7.88-5.27 8.528 8.528 0 0 1 1.848-9.296l25.602-25.602a8.534 8.534 0 0 1 12.066 12.066l-25.601 25.602a8.53 8.53 0 0 1-6.035 2.5zm0 0M443.746 443.742a8.534 8.534 0 0 1-8.535-8.535V324.273c0-4.71 3.82-8.53 8.535-8.53 4.711 0 8.531 3.82 8.531 8.53v110.934a8.533 8.533 0 0 1-8.53 8.535zm0 0"/><path d="M443.746 332.809a8.553 8.553 0 0 1-6.035-2.5l-25.598-25.602a8.534 8.534 0 0 1 12.067-12.066l25.597 25.601a8.528 8.528 0 0 1 1.852 9.297 8.537 8.537 0 0 1-7.883 5.27zm0 0M443.746 384.008a8.536 8.536 0 0 1-6.035-2.5l-25.598-25.602a8.534 8.534 0 0 1 12.067-12.066l25.597 25.601a8.53 8.53 0 0 1 1.852 9.297 8.537 8.537 0 0 1-7.883 5.27zm0 0M443.746 435.207a8.536 8.536 0 0 1-6.035-2.5l-25.598-25.602a8.534 8.534 0 0 1 12.067-12.066l25.597 25.602a8.531 8.531 0 0 1-6.031 14.566zm0 0"/><path d="M443.746 332.809a8.534 8.534 0 1 1-6.035-14.566l25.602-25.602a8.53 8.53 0 0 1 11.96.105 8.53 8.53 0 0 1 .106 11.961l-25.602 25.602a8.537 8.537 0 0 1-6.03 2.5zm0 0M443.746 384.008a8.535 8.535 0 1 1-6.035-14.566l25.602-25.602a8.53 8.53 0 0 1 11.96.105 8.53 8.53 0 0 1 .106 11.961l-25.602 25.602a8.52 8.52 0 0 1-6.03 2.5zm0 0M443.746 435.207a8.535 8.535 0 1 1-6.035-14.566l25.602-25.602c3.347-3.23 8.671-3.187 11.96.106a8.53 8.53 0 0 1 .106 11.96l-25.602 25.602a8.52 8.52 0 0 1-6.03 2.5zm0 0"/></svg>