<svg height="511pt" viewBox="1 -19 512 511" width="511pt" xmlns="http://www.w3.org/2000/svg"><path d="M502 462.5l-64.215-64.215c-16.273-16.273-42.656-16.273-58.93 0l-63.917 63.918zm0 0" fill="#dca98b"/><path d="M131.348 340.875V419.5H31.5c-11.875 0-21.5 9.625-21.5 21.5s9.625 21.5 21.5 21.5h107.047c24.367 0 44.121-19.754 44.121-44.117V345.5zm0 0" fill="#79b2ff"/><path d="M181.285 10.5h-47.277c-10.235 0-18.528 8.293-18.528 18.527v26.02h84.332v-26.02c0-10.234-8.292-18.527-18.527-18.527zm0 0" fill="#ffc15a"/><path d="M158.766 127.25c-21.153 0-38.297-17.148-38.297-38.297V55.047h76.594v33.906c0 21.149-17.149 38.297-38.297 38.297zm0 0" fill="#f2d1a5"/><path d="M99.617 247.668v-66.094c0-25.972 21.059-47.031 47.031-47.031a47.028 47.028 0 0 1 38.032 19.363l32.937 45.27h69.352c12.168 0 22.035 9.863 22.035 22.035 0 12.168-9.867 22.031-22.035 22.031h-93.961l-22.414-25.195 9.36 11.953v58.383h58.171c24.367 0 44.117 19.754 44.117 44.117V441c0 11.875-9.625 21.5-21.5 21.5-11.87 0-21.5-9.625-21.5-21.5v-97.3H152.86c-29.406 0-53.242-23.837-53.242-53.24V230" fill="#79b2ff"/><path d="M179.953 290.457V230l-9.36-11.953 22.41 25.195h93.966c12.168 0 22.031-9.863 22.031-22.031s-9.863-22.031-22.031-22.031h-69.352l-32.937-45.274a47.033 47.033 0 0 0-38.032-19.363c-25.972 0-47.03 21.059-47.03 47.031v108.883zm0 0" fill="#ffcb7c"/><g fill="#cbe558"><path d="M383.871 68.668c0 18.598 9.73 34.914 24.371 44.164 14.64-9.25 24.371-25.566 24.371-44.164 0-18.602-9.73-34.918-24.37-44.168-14.641 9.25-24.372 25.566-24.372 44.168zm0 0M427.453 175.21c-16.539 16.536-22.394 39.7-17.601 60.942 21.242 4.79 44.402-1.066 60.941-17.601 16.535-16.54 22.39-39.7 17.602-60.942-21.243-4.793-44.407 1.063-60.942 17.602zm0 0M391.418 138.473c14.477 14.476 19.602 34.75 15.406 53.347-18.594 4.192-38.867-.933-53.344-15.41-14.476-14.476-19.601-34.75-15.41-53.344 18.598-4.195 38.871.93 53.348 15.407zm0 0M387.094 245.95c18.199 18.202 24.644 43.69 19.37 67.07-23.378 5.273-48.866-1.172-67.07-19.372-18.199-18.203-24.644-43.691-19.37-67.07 23.378-5.27 48.867 1.172 67.07 19.371zm0 0"/></g><path d="M509.07 455.43l-64.215-64.215a51.356 51.356 0 0 0-26.613-14.156V247.53c2.098.176 4.188.262 6.274.262 19.824 0 38.957-7.781 53.347-22.172 18.457-18.457 26.04-44.703 20.285-70.215a10 10 0 0 0-7.554-7.554c-25.508-5.75-51.758 1.832-70.211 20.289-.735.73-1.442 1.48-2.14 2.234v-52.336c15.355-11.746 24.37-29.812 24.37-49.375 0-21.46-10.851-41.133-29.027-52.617a10.004 10.004 0 0 0-10.688 0c-18.175 11.484-29.027 31.156-29.027 52.617 0 19.563 9.016 37.629 24.371 49.375v13.125c-16.445-16.285-39.734-22.96-62.37-17.855a10.005 10.005 0 0 0-7.556 7.554c-5.129 22.75 1.633 46.157 18.09 62.617 12.836 12.836 29.899 19.774 47.578 19.774 1.418 0 2.836-.059 4.258-.145v40.164a82.904 82.904 0 0 0-4.078-4.394c-19.863-19.86-48.027-28.133-75.496-22.23-2.223-15.512-15.59-27.473-31.7-27.473h-64.261l-29.941-41.153c-4.235-5.824-9.508-10.699-15.45-14.484 17.45-7.289 29.746-24.527 29.746-44.586V65.047h15.418c5.524 0 10-4.477 10-10s-4.476-10-10-10h-12.667v-16.02C209.813 13.297 197.016.5 181.285.5h-47.277c-15.73 0-28.528 12.797-28.528 28.527v16.02H92.812c-5.523 0-10 4.476-10 10s4.477 10 10 10h17.657v23.906c0 15.57 7.414 29.438 18.89 38.277-23.02 7.34-39.742 28.922-39.742 54.344v108.883c0 23.402 12.785 43.863 31.73 54.797V409.5H31.5C14.133 409.5 0 423.633 0 441s14.133 31.5 31.5 31.5h12.875c5.523 0 10-4.477 10-10s-4.477-10-10-10H31.5c-6.34 0-11.5-5.16-11.5-11.5s5.16-11.5 11.5-11.5h99.848c5.523 0 10-4.477 10-10v-66.871a63.158 63.158 0 0 0 11.511 1.07h19.809v64.68c0 18.816-15.309 34.121-34.121 34.121h-14.172c-5.523 0-10 4.477-10 10s4.477 10 10 10h14.172c29.844 0 54.121-24.277 54.121-54.121v-64.68h36.574V441c0 17.367 14.133 31.5 31.5 31.5 17.371 0 31.5-14.133 31.5-31.5V332.5c0-29.844-24.273-54.121-54.117-54.121h-48.172v-25.617c.977.312 2.004.48 3.055.48h93.96c8.165 0 15.622-3.074 21.286-8.12.605 20.69 9.008 40.53 24.07 55.597 15.649 15.648 36.45 24.105 58 24.105 2.633 0 5.274-.133 7.918-.387v52.657a51.332 51.332 0 0 0-26.457 14.12l-63.918 63.919c-3.906 3.902-3.906 10.234 0 14.14 3.903 3.907 10.238 3.907 14.14 0l63.919-63.914c12.347-12.351 32.437-12.351 44.789 0l64.215 64.211c1.953 1.953 4.511 2.93 7.07 2.93s5.117-.977 7.07-2.93c3.907-3.906 3.907-10.238 0-14.14zM398.082 183.074c-13.86 1.176-27.523-3.73-37.531-13.734-10.004-10.008-14.918-23.668-13.735-37.531 13.86-1.18 27.524 3.73 37.532 13.734 10.004 10.008 14.914 23.672 13.734 37.531zm36.441-.793c12.02-12.015 28.528-17.77 45.192-15.992 1.773 16.656-3.977 33.172-15.992 45.188-12.02 12.02-28.528 17.77-45.192 15.992a56.805 56.805 0 0 1-.289-5.074v-1.946c.278-14.203 5.957-27.844 16.281-38.168zm-26.28-145.344c9.097 7.958 14.37 19.41 14.37 31.731 0 12.316-5.273 23.77-14.37 31.727-9.098-7.958-14.372-19.407-14.372-31.727s5.274-23.773 14.371-31.73zm-221.18 52.016c0 15.602-12.696 28.297-28.297 28.297-15.606 0-28.297-12.695-28.297-28.297V65.047h56.594zM125.48 29.027c0-4.703 3.825-8.527 8.528-8.527h47.277c4.703 0 8.528 3.824 8.528 8.527v16.02H125.48zM238.125 298.38c18.813 0 34.117 15.308 34.117 34.121V441c0 6.34-5.156 11.5-11.5 11.5-6.34 0-11.5-5.16-11.5-11.5v-97.3c0-5.52-4.476-10-10-10h-86.387c-21.132 0-38.765-15.247-42.5-35.321zm48.844-65.137h-89.477l-19.426-21.84c-3.671-4.129-9.992-4.496-14.12-.828-4.126 3.672-4.497 9.992-.825 14.121l6.832 7.676v46.008h-60.336v-96.805c0-20.418 16.613-37.031 37.031-37.031 11.805 0 23 5.7 29.946 15.246l32.937 45.27a9.991 9.991 0 0 0 8.086 4.117h69.352c6.636 0 12.035 5.398 12.035 12.035 0 6.633-5.402 12.031-12.035 12.031zm110.851 71.133c-18.906 2.254-37.715-4.16-51.351-17.797s-20.059-32.45-17.801-51.355c18.902-2.266 37.719 4.164 51.355 17.8 11.723 11.723 18.094 27.274 18.22 43.418v1.414a63.11 63.11 0 0 1-.423 6.52zm0 0"/><path d="M84.371 452.5c-2.633 0-5.2 1.07-7.07 2.93-1.86 1.86-2.922 4.441-2.922 7.07s1.062 5.21 2.922 7.07a10.093 10.093 0 0 0 7.07 2.93c2.629 0 5.207-1.07 7.078-2.93 1.86-1.86 2.93-4.441 2.93-7.07s-1.07-5.21-2.93-7.07a10.119 10.119 0 0 0-7.078-2.93zm0 0"/></svg>