<svg height="512pt" viewBox="0 -34 512 512" width="512pt" xmlns="http://www.w3.org/2000/svg"><path d="m502 297.839844v-97.832032h-492v97.832032" fill="#db9970"/><path d="m10 297.839844v57.824218h492v-57.824218" fill="#d38a5a"/><path d="m385.722656 127.433594c-26.191406 37.402344-7.199218 72.230468-7.199218 72.230468s39.222656 5.933594 65.410156-31.472656c26.191406-37.402344 7.296875-71.875 7.203125-72.230468 0 0-39.226563-5.933594-65.414063 31.472656zm0 0" fill="#4ce0a1"/><path d="m292.632812 95.960938c-.09375.355468-18.984374 34.828124 7.203126 72.230468 26.191406 37.40625 65.414062 31.472656 65.414062 31.472656s18.988281-34.828124-7.199219-72.230468c-26.191406-37.402344-65.417969-31.472656-65.417969-31.472656zm0 0" fill="#18bb7d"/><path d="m371.875 136.59375c.007812.003906.011719.007812.011719.007812s35.53125-17.640624 35.53125-63.300781c0-45.660156-35.25-63.066406-35.53125-63.300781 0 0-.003907 0-.011719.003906" fill="#18bb7d"/><path d="m371.875 10.003906c-.695312.351563-35.519531 18.09375-35.519531 63.296875s34.824219 62.941407 35.519531 63.292969v-78.683594" fill="#4ce0a1"/><path d="m153.949219 127.433594c-26.1875 37.402344-7.199219 72.230468-7.199219 72.230468s39.222656 5.933594 65.414062-31.472656c26.1875-37.402344 7.296876-71.875 7.199219-72.230468.003907 0-39.222656-5.933594-65.414062 31.472656zm0 0" fill="#4ce0a1"/><path d="m60.863281 95.960938c-.09375.355468-18.988281 34.828124 7.203125 72.230468 26.191406 37.40625 65.414063 31.472656 65.414063 31.472656s18.988281-34.828124-7.203125-72.230468-65.414063-31.472656-65.414063-31.472656zm0 0" fill="#18bb7d"/><path d="m140.105469 136.59375c.003906.003906.007812.007812.007812.007812s35.535157-17.640624 35.535157-63.300781c0-45.660156-35.253907-63.066406-35.535157-63.300781 0 0-.003906 0-.007812.003906" fill="#18bb7d"/><path d="m140.105469 10.003906c-.699219.351563-35.523438 18.09375-35.523438 63.296875s34.824219 62.941407 35.523438 63.292969v-78.683594" fill="#4ce0a1"/><path d="m10 355.664062h492v77.828126h-492zm0 0" fill="#fcc595"/><path d="m434.140625 405.574219c-.648437 0-1.308594-.058594-1.949219-.1875-.640625-.128907-1.269531-.320313-1.871094-.570313-.609374-.25-1.1875-.558594-1.730468-.921875-.550782-.367187-1.058594-.777343-1.519532-1.25-.460937-.457031-.878906-.96875-1.238281-1.519531-.359375-.539062-.671875-1.117188-.921875-1.71875-.25-.609375-.4375-1.230469-.570312-1.871094-.128906-.648437-.199219-1.300781-.199219-1.960937 0-.648438.070313-1.308594.199219-1.949219.132812-.640625.320312-1.269531.570312-1.867188.25-.613281.5625-1.191406.921875-1.730468.359375-.550782.777344-1.0625 1.238281-1.519532.460938-.460937.96875-.882812 1.519532-1.242187.542968-.359375 1.121094-.667969 1.730468-.917969.601563-.25 1.230469-.441406 1.871094-.570312 1.289063-.261719 2.609375-.261719 3.910156 0 .628907.128906 1.257813.320312 1.867188.570312.601562.25 1.179688.558594 1.722656.917969.550782.359375 1.058594.78125 1.519532 1.242187.460937.457032.878906.96875 1.25 1.519532.347656.539062.660156 1.117187.910156 1.730468.25.597657.449218 1.226563.566406 1.867188.132812.640625.203125 1.300781.203125 1.949219 0 .660156-.070313 1.3125-.203125 1.960937-.117188.640625-.316406 1.261719-.566406 1.871094-.25.601562-.5625 1.179688-.910156 1.71875-.371094.550781-.789063 1.0625-1.25 1.519531-.460938.472657-.972657.882813-1.519532 1.25-.542968.363281-1.121094.671875-1.722656.921875-.609375.25-1.238281.441406-1.867188.570313-.652343.128906-1.3125.1875-1.960937.1875zm0 0"/><path d="m394.257812 405.578125h-196.386718c-5.523438 0-10-4.476563-10-10 0-5.519531 4.476562-10 10-10h196.386718c5.523438 0 10 4.480469 10 10 0 5.523437-4.476562 10-10 10zm0 0"/><path d="m304.078125 244.175781c-2.628906 0-5.207031-1.070312-7.066406-2.929687-.460938-.460938-.882813-.972656-1.242188-1.519532-.359375-.542968-.667969-1.121093-.917969-1.722656-.25-.609375-.441406-1.238281-.570312-1.867187-.132812-.652344-.199219-1.3125-.199219-1.960938 0-.652343.066407-1.3125.199219-1.949219.117188-.640624.320312-1.269531.570312-1.871093.25-.609375.558594-1.191407.917969-1.730469.359375-.550781.78125-1.0625 1.242188-1.519531 2.316406-2.320313 5.769531-3.390625 9.019531-2.730469.640625.128906 1.269531.320312 1.878906.570312.601563.25 1.179688.558594 1.722656.917969.546876.359375 1.058594.78125 1.519532 1.242188 1.859375 1.859375 2.929687 4.4375 2.929687 7.070312 0 .648438-.0625 1.308594-.191406 1.957031-.128906.632813-.328125 1.261719-.578125 1.871094-.25.601563-.550781 1.179688-.910156 1.71875-.371094.550782-.792969 1.0625-1.25 1.523438-.460938.460937-.972656.878906-1.519532 1.238281-.542968.371094-1.121093.671875-1.722656.921875-.609375.25-1.238281.449219-1.878906.566406-.640625.132813-1.300781.203125-1.953125.203125zm0 0"/><path d="m264.199219 244.175781h-196.390625c-5.523438 0-10-4.476562-10-10 0-5.519531 4.476562-10 10-10h196.390625c5.519531 0 10 4.480469 10 10 0 5.523438-4.476563 10-10 10zm0 0"/><path d="m419.457031 291.78125c-23.054687 32.925781-6.339843 63.582031-6.339843 63.582031s34.523437 5.21875 57.578124-27.703125c23.050782-32.925781 6.421876-63.269531 6.339844-63.582031 0 0-34.527344-5.21875-57.578125 27.703125zm0 0" fill="#4ce0a1"/><path d="m337.515625 264.078125c-.082031.3125-16.710937 30.65625 6.339844 63.582031 23.054687 32.925782 57.582031 27.703125 57.582031 27.703125s16.714844-30.65625-6.339844-63.582031c-23.054687-32.921875-57.582031-27.703125-57.582031-27.703125zm0 0" fill="#18bb7d"/><path d="m268.179688 291.78125c-23.050782 32.925781-6.339844 63.582031-6.339844 63.582031s34.527344 5.21875 57.582031-27.703125c23.050781-32.925781 6.421875-63.269531 6.339844-63.582031 0 0-34.527344-5.21875-57.582031 27.703125zm0 0" fill="#4ce0a1"/><path d="m186.242188 264.078125c-.085938.3125-16.714844 30.65625 6.339843 63.582031 23.050781 32.925782 57.578125 27.703125 57.578125 27.703125s16.714844-30.65625-6.339844-63.582031c-23.054687-32.921875-57.578124-27.703125-57.578124-27.703125zm0 0" fill="#18bb7d"/><path d="m116.902344 291.78125c-23.050782 32.925781-6.339844 63.582031-6.339844 63.582031s34.527344 5.21875 57.578125-27.703125c23.054687-32.921875 6.425781-63.269531 6.339844-63.582031.003906 0-34.523438-5.21875-57.578125 27.703125zm0 0" fill="#4ce0a1"/><path d="m34.964844 264.078125c-.082032.3125-16.710938 30.65625 6.339844 63.582031 23.054687 32.925782 57.578124 27.703125 57.578124 27.703125s16.714844-30.65625-6.339843-63.582031c-23.050781-32.921875-57.578125-27.703125-57.578125-27.703125zm0 0" fill="#18bb7d"/><path d="m502 190.007812h-64.167969c4.96875-4.363281 9.800781-9.660156 14.292969-16.078124 27.011719-38.578126 11.644531-74.90625 8.09375-82.15625-1.394531-3.019532-4.222656-5.191407-7.585938-5.703126-1.121093-.167968-17.574218-2.460937-36.910156 5.023438 1.082032-5.460938 1.695313-11.382812 1.695313-17.792969 0-47.105469-33.429688-68.042969-40.496094-71.941406-2.019531-1.179687-4.378906-1.601563-6.664063-1.226563-.015624.003907-.03125.003907-.042968.007813-.066406.011719-.128906.023437-.195313.035156-.027343.003907-.050781.011719-.078125.015625-.042968.007813-.085937.019532-.128906.027344-.050781.007812-.097656.019531-.144531.03125-.03125.007812-.058594.015625-.089844.019531-.132813.03125-.261719.066407-.390625.101563-.015625.007812-.035156.011718-.050781.015625-.074219.019531-.144531.042969-.214844.0625-.019531.007812-.039063.011719-.058594.019531-.132812.042969-.261719.085938-.390625.132812-.023437.007813-.042968.015626-.0625.023438-.066406.023438-.132812.046875-.195312.074219-.023438.007812-.046875.019531-.070313.027343-.039062.015626-.078125.03125-.117187.046876-.046875.023437-.09375.042968-.140625.0625-.039063.015624-.078125.035156-.117188.050781-.007812.003906-.015625.007812-.023437.011719-.007813.003906-.015625.007812-.023438.011718-.058594.027344-.117187.054688-.175781.082032-.03125.015624-.058594.027343-.089844.042968-.027343.015625-.054687.027344-.082031.039063-.019531.011719-.050781.027343-.082031.042969-2.601563 1.335937-40.9375 21.882812-40.9375 72.183593 0 6.410157.621093 12.335938 1.710937 17.800781-19.339844-7.492187-35.804687-5.199218-36.921875-5.03125-3.363281.511719-6.195312 2.683594-7.589843 5.703126-3.433594 6.972656-19.019532 43.433593 8.09375 82.15625 4.496093 6.417968 9.328124 11.714843 14.292968 16.078124h-99.878906c4.96875-4.363281 9.800781-9.660156 14.292969-16.078124 27.011719-38.574219 11.648437-74.902344 8.09375-82.152344-1.390625-3.023438-4.222657-5.195313-7.585938-5.707032-1.117187-.167968-17.574219-2.457031-36.910156 5.023438 1.078125-5.460938 1.695313-11.382812 1.695313-17.792969 0-47.09375-33.421876-68.035156-40.492188-71.9375-2.746094-1.605469-6.128906-1.816406-9.082031-.507812h-.003907c-.027343.011719-.058593.027343-.085937.039062-.035156.015625-.070313.03125-.101563.046875-.023437.011719-.042968.019532-.066406.03125-.0625.03125-.128906.0625-.191406.09375-.007812 0-.011719.003906-.019531.007813-.007813.003906-.015625.007812-.023438.015625-.03125.015625-.0625.03125-.09375.046875-2.875 1.480469-40.902343 22.054687-40.902343 72.167969 0 6.40625.621093 12.332031 1.710937 17.796874-19.34375-7.492187-35.808594-5.199218-36.925781-5.027343-3.363282.507812-6.195313 2.679687-7.585938 5.699219-3.433594 6.972656-19.023437 43.4375 8.089844 82.15625 4.496094 6.421874 9.328125 11.714843 14.296875 16.082031h-64.171875c-5.523438 0-10 4.476562-10 10v233.484375c0 5.519531 4.476562 10 10 10h492c5.523438 0 10-4.480469 10-10v-233.488282c0-5.523437-4.476562-10-10-10zm-218.789062-97.394531c.136718-.386719.265624-.675781.335937-.828125-.121094.269532-.234375.546875-.335937.828125zm-.097657.285157c.015625-.039063.027344-.082032.039063-.121094-.011719.039062-.023438.082031-.039063.121094zm.054688-.160157c.015625-.042969.027343-.082031.042969-.121093-.015626.039062-.027344.078124-.042969.121093zm-231.777344.015625c.152344-.457031.304687-.800781.386719-.96875-.144532.3125-.273438.636719-.386719.96875zm-.050781.152344c.015625-.042969.027344-.089844.042968-.132812-.015624.042968-.027343.089843-.042968.132812zm-31.339844 208.890625c1.566406 9.8125 5.414062 20.605469 13.113281 31.597656 3.320313 4.746094 6.851563 8.800781 10.484375 12.273438h-23.597656zm71.773438 43.867187c-9.328126-.304687-28.199219-3.628906-42.277344-23.738281-14.101563-20.140625-10.785156-38.984375-7.707032-48.160156 9.226563.25 28.335938 3.433594 42.5625 23.753906 7.328126 10.464844 9.941407 20.59375 10.355469 29.148438-.050781 1.648437-.046875 3.253906.011719 4.816406-.265625 5.921875-1.488281 10.824219-2.609375 14.179687zm22.964843-14.324218c.046875-1.472656.054688-2.980469.007813-4.527344.390625-8.589844 2.984375-18.777344 10.347656-29.296875 14.242188-20.335937 33.378906-23.507813 42.566406-23.753906 3.074219 9.171875 6.398438 28.019531-7.707031 48.164062-14.03125 20.039063-32.820313 23.410157-42.15625 23.738281h-.453125c-1.125-3.378906-2.359375-8.335937-2.605469-14.324218zm61.597657 2.054687c1.480468-2.117187 2.816406-4.222656 4.023437-6.320312 1.207031 2.097656 2.546875 4.207031 4.027344 6.320312 3.324219 4.746094 6.851562 8.800781 10.484375 12.269531h-29.019532c3.632813-3.46875 7.160157-7.523437 10.484376-12.269531zm66.714843 12.269531c-9.328125-.304687-28.199219-3.628906-42.277343-23.738281-14.101563-20.140625-10.785157-38.984375-7.710938-48.160156 9.226562.25 28.339844 3.433594 42.566406 23.753906 7.328125 10.464844 9.941406 20.589844 10.355469 29.144531-.054687 1.652344-.046875 3.257813.007813 4.820313-.261719 5.921875-1.484376 10.824219-2.609376 14.179687zm22.960938-14.320312c.050781-1.472656.054687-2.988281.011719-4.539062.386718-8.585938 2.984374-18.773438 10.347656-29.289063 14.238281-20.335937 33.375-23.507813 42.5625-23.753906 3.078125 9.171875 6.398437 28.019531-7.707032 48.164062-14.03125 20.039063-32.816406 23.410157-42.152343 23.738281h-.453125c-1.128906-3.378906-2.359375-8.332031-2.609375-14.320312zm61.597656 2.050781c1.480469-2.117187 2.820313-4.222656 4.027344-6.320312 1.207031 2.097656 2.546875 4.207031 4.027343 6.320312 3.320313 4.746094 6.851563 8.800781 10.484376 12.269531h-29.023438c3.636719-3.46875 7.164062-7.523437 10.484375-12.269531zm66.71875 12.269531c-9.332031-.304687-28.199219-3.628906-42.28125-23.738281-14.101563-20.144531-10.78125-38.984375-7.707031-48.160156 9.175781.253906 28.339844 3.433594 42.566406 23.753906 7.324219 10.460938 9.9375 20.589844 10.351562 29.144531-.050781 1.648438-.042968 3.261719.011719 4.824219-.261719 5.921875-1.488281 10.820313-2.609375 14.175781zm22.957031-14.203124c.054688-1.550782.058594-3.148438.007813-4.78125.410156-8.558594 3.023437-18.695313 10.355469-29.164063 14.226562-20.316406 33.339843-23.5 42.5625-23.75 3.078124 9.175781 6.398437 28.015625-7.707032 48.160156-14.03125 20.039063-32.820312 23.410157-42.15625 23.738281h-.453125c-1.125-3.371093-2.347656-8.277343-2.609375-14.203124zm61.601563 1.933593c7.699219-10.992187 11.546875-21.78125 13.113281-31.59375v43.863281h-23.597656c3.632812-3.46875 7.164062-7.523437 10.484375-12.269531zm-43.144531-170.9375c-16.261719 23.226563-38.023438 27.167969-48.929688 27.550781h-1.558594c-1.390625-3.90625-3.015625-9.921874-3.359375-17.300781.074219-1.878906.082031-3.820312.011719-5.816406.492188-9.914063 3.539062-21.625 12.007812-33.722656 17.046876-24.34375 40.136719-27.5 50.433594-27.585938 3.648438 10.289063 8.253906 32.800781-8.605468 56.875zm-63.894532-140.679687c8.894532 6.335937 25.570313 22.132812 25.570313 51.523437 0 20.152344-7.863281 33.917969-15.542969 42.554688v-57.945313c0-5.523437-4.476562-10-10-10s-10 4.476563-10 10v57.914063c-7.675781-8.640625-15.519531-22.398438-15.519531-42.523438 0-29.695312 17.074219-45.523437 25.492187-51.523437zm-63.820312 140.679687c-16.851563-24.066406-12.253906-46.578125-8.601563-56.871093 10.335938.085937 33.398438 3.261718 50.433594 27.585937 8.464844 12.089844 11.507813 23.792969 12.007813 33.703125-.070313 2.007812-.0625 3.964844.011718 5.859375-.347656 7.371094-1.972656 13.378906-3.355468 17.273437h-1.4375c-10.898438-.363281-32.746094-4.253906-49.058594-27.550781zm-104.054688 0c-16.261718 23.226563-38.027344 27.167969-48.933594 27.550781h-1.558593c-1.386719-3.910156-3.015625-9.925781-3.355469-17.308593.070312-1.875.078125-3.8125.007812-5.800781.496094-9.917969 3.539063-21.628907 12.011719-33.730469 17.042969-24.34375 40.132813-27.5 50.429688-27.585938 3.652343 10.292969 8.253906 32.804688-8.601563 56.875zm-63.898437-140.679687c8.894531 6.335937 25.570312 22.132812 25.570312 51.523437 0 20.152344-7.863281 33.917969-15.539062 42.554688v-57.945313c0-5.523437-4.476563-10-10-10-5.523438 0-10 4.476563-10 10v57.914063c-7.675781-8.640625-15.523438-22.394531-15.523438-42.523438 0-29.695312 17.074219-45.523437 25.492188-51.523437zm-63.816407 140.679687c-16.855468-24.066406-12.253906-46.578125-8.605468-56.871093 10.335937.085937 33.402344 3.261718 50.433594 27.585937 8.46875 12.089844 11.511718 23.796875 12.011718 33.703125-.070312 2.007812-.0625 3.960938.007813 5.855469-.34375 7.375-1.96875 13.382812-3.351563 17.277343h-1.105468c-10.738282-.316406-32.941407-4.058593-49.390626-27.550781zm415.742188 47.550781v69.246094c-1.523438-9.722656-4.59375-16.734375-5.894531-19.386718-1.027344-2.210938-2.835938-3.988282-5.109375-4.972657-4.371094-1.882812-43.757813-5.945312-69.730469 31.152344-1.464844 2.089844-2.792969 4.175781-3.988281 6.25-1.199219-2.074219-2.523438-4.15625-3.988282-6.25-26.308593-37.570313-65.605468-32.105469-67.265624-31.855469-1.621094.242188-3.113282.871094-4.386719 1.796875-1.269531-.925781-2.765625-1.554687-4.382813-1.796875-1.660156-.253906-40.960937-5.714844-67.265625 31.855469-1.464843 2.089844-2.792969 4.175781-3.988281 6.25-1.199219-2.074219-2.523438-4.15625-3.988281-6.25-26.308594-37.570313-65.605469-32.105469-67.265625-31.855469-1.617188.242188-3.113282.875-4.386719 1.796875-1.269531-.925781-2.765625-1.554687-4.382813-1.796875-1.660156-.253906-40.957031-5.71875-67.265624 31.855469-1.464844 2.089844-2.789063 4.175781-3.988282 6.25-1.199218-2.074219-2.523437-4.15625-3.988281-6.25-26.304687-37.570313-65.601563-32.105469-67.265625-31.855469-3.359375.507813-6.1875 2.671875-7.582031 5.6875-1.265625 2.578125-4.355469 9.59375-5.886719 19.359375v-69.230469zm0 213.484376h-472v-57.828126h472zm0 0"/></svg>