<svg xmlns="http://www.w3.org/2000/svg" viewBox="0 0 512 512"><path d="M67.8 368c2.3 0 4 1.8 4 4s-1.8 4-4 4-4-1.8-4-4 1.8-4 4-4zm336-56c2.3 0 4 1.8 4 4s-1.8 4-4 4-4-1.8-4-4 1.8-4 4-4zm0 72c2.3 0 4 1.8 4 4s-1.8 4-4 4-4-1.8-4-4 1.8-4 4-4zm25.5-61.5c2.3 0 4 1.8 4 4s-1.8 4-4 4-4-1.8-4-4 1.8-4 4-4zm-50.9 50.9c2.3 0 4 1.8 4 4s-1.8 4-4 4-4-1.8-4-4 1.8-4 4-4zm61.4-25.4c2.3 0 4 1.8 4 4s-1.8 4-4 4-4-1.8-4-4 1.8-4 4-4zm-72 0c2.3 0 4 1.8 4 4s-1.8 4-4 4-4-1.8-4-4 1.8-4 4-4zm61.5 25.4c2.3 0 4 1.8 4 4s-1.8 4-4 4-4-1.8-4-4 1.8-4 4-4zm-50.9-50.9c2.3 0 4 1.8 4 4s-1.8 4-4 4-4-1.8-4-4 1.8-4 4-4zM67.8 408c2.3 0 4 1.8 4 4s-1.8 4-4 4-4-1.8-4-4 1.8-4 4-4zm17.3-30c2.3 0 4 1.8 4 4s-1.8 4-4 4-4-1.8-4-4 1.8-4 4-4zm-34.6 20c2.3 0 4 1.8 4 4s-1.8 4-4 4-4-1.8-4-4 1.8-4 4-4zm34.6 0c2.3 0 4 1.8 4 4s-1.8 4-4 4-4-1.8-4-4 1.8-4 4-4zm-34.6-20c2.3 0 4 1.8 4 4s-1.8 4-4 4-4-1.8-4-4 1.8-4 4-4zM68 308c46.3 0 84 37.7 84 84 0 2.2-1.8 4-4 4s-4-1.8-4-4c0-41.9-34.1-76-76-76-2.2 0-4-1.8-4-4s1.8-4 4-4z"/><path d="M404 292c33.1 0 60 26.9 60 60s-26.9 60-60 60-60-26.9-60-60 26.9-60 60-60zm0 112c28.7 0 52-23.3 52-52s-23.3-52-52-52-52 23.3-52 52 23.3 52 52 52z"/><path d="M404 332c11 0 20 9 20 20s-9 20-20 20-20-9-20-20 9-20 20-20zm0 32c6.6 0 12-5.4 12-12s-5.4-12-12-12-12 5.4-12 12 5.4 12 12 12zm-336-8c19.9 0 36 16.1 36 36s-16.1 36-36 36c-19.8 0-36-16.1-36-36s16.2-36 36-36zm0 64c15.4 0 28-12.6 28-28s-12.6-28-28-28-28 12.6-28 28 12.6 28 28 28z"/><path d="M68 380c6.6 0 12 5.4 12 12s-5.4 12-12 12-12-5.4-12-12 5.4-12 12-12zm0 16c2.2 0 4-1.8 4-4s-1.8-4-4-4-4 1.8-4 4 1.8 4 4 4zm288.1-176H452c2.2 0 4 1.8 4 4s-1.8 4-4 4h-95.9c-2.2 0-4-1.8-4-4s1.8-4 4-4zM44 236c2.2 0 4 1.8 4 4v80c0 2.2-1.8 4-4 4s-4-1.8-4-4v-80c0-2.2 1.8-4 4-4zm-32 80c2.2 0 4 1.8 4 4v24c0 2.2-1.8 4-4 4s-4-1.8-4-4v-24c0-2.2 1.8-4 4-4zM236 68h200c2.2 0 4 1.8 4 4s-1.8 4-4 4H236c-2.2 0-4-1.8-4-4s1.8-4 4-4z"/><path d="M216 207.5l16-136c.3-2.2 2.3-3.8 4.4-3.5 2.2.3 3.8 2.2 3.5 4.4l-16 136c-.2 2-1.9 3.5-4 3.5h-.5c-2-.2-3.6-2.2-3.4-4.4zM435.5 68c2.2-.3 4.2 1.3 4.4 3.5l16 135.7c.3 2.2-1.3 4.2-3.5 4.4h-.5c-2 0-3.7-1.5-4-3.5L432 72.5c-.2-2.2 1.3-4.2 3.5-4.5zM340 84c2.2 0 4 1.8 4 4v136c0 2.2-1.8 4-4 4s-4-1.8-4-4V88c0-2.2 1.8-4 4-4zm16 0h65.8c2 0 3.8 1.5 4 3.6l13.2 120c.1 1.1-.2 2.3-1 3.1s-1.8 1.3-3 1.3h-79c-2.2 0-4-1.8-4-4V88c0-2.2 1.8-4 4-4zm4 120h70.5L418.2 92H360v112z"/><path d="M273.2 285.2l64-64c1.5-1.6 4.1-1.6 5.7-.1 1.6 1.5 1.6 4.1.1 5.7l-.1.1-64 64c-.8.8-1.8 1.2-2.8 1.2s-2-.4-2.8-1.2c-1.7-1.6-1.7-4.2-.1-5.7zm176-64c1.6-1.6 4.1-1.6 5.7 0l40 40c1.5 1.6 1.5 4.1-.1 5.7-1.6 1.5-4 1.5-5.6 0l-40-40c-1.6-1.6-1.6-4.2 0-5.7z"/><path d="M220 284h56c2.2 0 4 1.8 4 4s-1.8 4-4 4h-56c-2.2 0-4-1.8-4-4s1.8-4 4-4zm-64 80h128c2.2 0 4 1.8 4 4s-1.8 4-4 4H156c-2.2 0-4-1.8-4-4s1.8-4 4-4zM20 308c2.2 0 4 1.8 4 4s-1.8 4-4 4-4 1.8-4 4-1.8 4-4 4-4-1.8-4-4c0-6.6 5.4-12 12-12z"/><path d="M20 308h16c2.2 0 4 1.8 4 4s-1.8 4-4 4H20c-2.2 0-4-1.8-4-4s1.8-4 4-4zm382.2-63.6c2-1 4.4-.2 5.4 1.8l8 16c1 2 .2 4.4-1.8 5.4-.6.3-1.2.4-1.8.4-1.5 0-2.9-.9-3.6-2.2l-8-16c-1-2-.2-4.4 1.8-5.4zm41.3 7.5c2-.1 4.1 1.5 4.3 3.7l1.3 17.9c.2 2.2-1.5 4.1-3.7 4.3h-.3c-2.1 0-3.8-1.6-4-3.7l-1.3-17.9c-.2-2.2 1.5-4.1 3.7-4.3zm24.6 42.3l5.7-17c.7-2.1 3-3.2 5.1-2.5 2.1.7 3.2 3 2.5 5.1l-5.7 17c-.7 2.1-3 3.2-5.1 2.5-2.1-.8-3.2-3-2.5-5.1zm17.2 28.9l11.7-13.5c1.4-1.7 4-1.9 5.6-.4 1.7 1.4 1.8 4 .4 5.6l-11.7 13.5c-.8.9-1.9 1.4-3 1.4-.9 0-1.9-.3-2.6-1-1.6-1.4-1.8-3.9-.4-5.6zm4.9 33.3l16-8c2-1 4.4-.2 5.4 1.8s.2 4.4-1.8 5.4l-16 8c-.6.3-1.2.4-1.8.4-1.5 0-2.9-.9-3.6-2.2-1-2-.2-4.4 1.8-5.4zm-8.3 32.7l17.9-1.3c2-.1 4.1 1.5 4.3 3.7.2 2.2-1.5 4.1-3.7 4.3l-17.9 1.3h-.3c-2.1 0-3.8-1.6-4-3.7-.1-2.3 1.5-4.2 3.7-4.3zm-25.1 29.5c.7-2.1 3-3.2 5.1-2.5l17 5.7c2.1.7 3.2 3 2.5 5.1-.5 1.6-2.1 2.7-3.8 2.7-.4 0-.8-.1-1.3-.2l-17-5.7c-2.1-.7-3.2-3-2.5-5.1zm-29.5 15.1c1.4-1.7 4-1.9 5.6-.4l13.5 11.7c1.7 1.4 1.8 4 .4 5.6-.8.9-1.9 1.4-3 1.4-.9 0-1.9-.3-2.6-1l-13.5-11.7c-1.7-1.4-1.9-3.9-.4-5.6zm-33.1 2.7c2-1 4.4-.2 5.4 1.8l8 16c1 2 .2 4.4-1.8 5.4-.6.3-1.2.4-1.8.4-1.5 0-2.9-.8-3.6-2.2l-8-16c-1-2-.2-4.4 1.8-5.4zm-31.5-10.2c2-.2 4.1 1.5 4.3 3.7l1.3 17.9c.2 2.2-1.5 4.1-3.7 4.3h-.3c-2.1 0-3.8-1.6-4-3.7l-1.3-17.9c-.2-2.2 1.5-4.1 3.7-4.3zm-36-1.9l5.7-17c.7-2.1 3-3.2 5.1-2.5 2.1.7 3.2 3 2.5 5.1l-5.7 17c-.5 1.6-2.1 2.7-3.8 2.7-.4 0-.9-.1-1.3-.2-2.1-.8-3.2-3.1-2.5-5.1zm-21.8-35.1l11.7-13.5c1.5-1.7 4-1.8 5.7-.3 1.6 1.4 1.8 3.9.4 5.6L311 394.5c-.8.9-1.9 1.4-3 1.4-.9 0-1.9-.3-2.6-1-1.8-1.6-2-4.1-.5-5.7zm-6.7-40.8l16-8c2-1 4.4-.2 5.4 1.8s.2 4.4-1.8 5.4l-16 8c-.6.3-1.2.4-1.8.4-1.5 0-2.9-.8-3.6-2.2-1-2-.2-4.4 1.8-5.4zm9.4-40.2l17.8-1.3c2-.2 4.1 1.5 4.3 3.7.2 2.2-1.5 4.1-3.7 4.3l-17.8 1.3h-.3c-2.2 0-4-1.8-4-4 0-2.1 1.6-3.9 3.7-4zm19.1-31c.7-2.1 3-3.2 5.1-2.5l17 5.7c2.1.7 3.2 3 2.5 5.1-.7 2.1-3 3.2-5.1 2.5l-17-5.7c-2.1-.7-3.2-3-2.5-5.1z"/><path d="M362.7 252.2c13.2-5.5 27.1-8.2 41.3-8.2 43.8 0 83 26.2 99.8 66.7 22.8 55-3.4 118.3-58.4 141.1-13.2 5.5-27.1 8.2-41.3 8.2-43.8 0-83-26.2-99.8-66.7-22.9-55 3.4-118.3 58.4-141.1zm-51.1 138.1c15.5 37.5 51.8 61.7 92.4 61.7 13.1 0 26-2.6 38.2-7.6 50.9-21.1 75.2-79.7 54.1-130.6-15.5-37.6-51.7-61.8-92.3-61.8-13.1 0-26 2.6-38.2 7.6-51 21.1-75.3 79.7-54.2 130.7z"/><path d="M361.2 253.3c1.4-1.7 4-1.9 5.6-.4l13.5 11.7c1.7 1.4 1.9 4 .4 5.6-.8.9-1.9 1.4-3 1.4-.9 0-1.9-.3-2.6-1l-13.5-11.7c-1.7-1.4-1.9-3.9-.4-5.6zm-295 71.1c2-1 4.4-.2 5.4 1.8l4 8c1 2 .2 4.4-1.8 5.4-.6.3-1.2.4-1.8.4-1.5 0-2.9-.9-3.6-2.2l-4-8c-.9-2-.1-4.4 1.8-5.4zM96 336.3c.1-2.2 2-3.8 4.2-3.7 2.2.1 3.9 2 3.8 4.2l-.5 8.9c-.1 2.1-1.9 3.7-4 3.8h-.2c-2.2-.1-3.9-2-3.8-4.2l.5-9zm19.2 28.9l4.9-7.5c1.2-1.8 3.7-2.3 5.5-1.1 1.8 1.2 2.3 3.7 1.1 5.5l-4.9 7.5c-.7 1.1-2 1.8-3.3 1.8-.8 0-1.5-.2-2.2-.7-1.8-1.2-2.3-3.6-1.1-5.5zm7 27.2l8-4c2-1 4.4-.2 5.4 1.8s.2 4.4-1.8 5.4l-8 4c-2 1-4.4.2-5.3-1.8-1.1-2-.3-4.4 1.7-5.4zm-7.4 27l8.9.6c2.2.2 3.9 2.1 3.7 4.3-.2 2.1-1.9 3.7-3.9 3.7h-.2l-8.9-.6c-2.2-.1-3.9-2-3.7-4.2s1.6-3.8 4.1-3.8zm-25.6 20.8c1.2-1.8 3.7-2.3 5.5-1.1l7.5 5c1.8 1.2 2.3 3.7 1.1 5.5-1.2 1.8-3.7 2.3-5.5 1.1l-7.5-5c-1.8-1.1-2.3-3.6-1.1-5.5zm-27 4.2c2-1 4.4-.2 5.4 1.8l4 8c1 2 .2 4.4-1.8 5.4s-4.4.2-5.3-1.8l-4-8c-1-2-.2-4.4 1.7-5.4zm-29.6-6.2c.1-2.2 1.8-3.8 4.2-3.7 2.2.1 3.9 2 3.7 4.2l-.6 8.9c-.1 2.1-1.9 3.8-4 3.8h-.2c-2.2-.1-3.9-2-3.7-4.2l.6-9zM9.3 421.7l5-7.5c1.2-1.9 3.7-2.3 5.5-1.1 1.8 1.2 2.3 3.7 1.1 5.5l-5 7.5c-1.2 1.8-3.7 2.3-5.5 1.1-1.9-1.1-2.4-3.6-1.1-5.5zm-7.1-33.3l8-4c2-1 4.4-.2 5.4 1.8s.2 4.4-1.8 5.4l-8 4c-2 1-4.4.2-5.3-1.8-1-2-.2-4.4 1.7-5.4zM12.9 356l8.9.6c2.2.2 3.9 2.1 3.7 4.3-.1 2.1-1.9 3.7-4 3.7h-.2l-8.9-.6c-2.2-.1-3.9-2-3.7-4.2.1-2.3 1.7-4 4.2-3.8z"/><path d="M2.3 374.4c4.7-17.6 16-32.2 31.7-41.3 10.3-6 22.1-9.1 33.9-9.1 24.3 0 46.9 13 59 34 18.7 32.5 7.6 74.1-24.9 92.9-10.3 6-22 9.1-33.9 9.1-24.2 0-46.8-13-58.9-34-9.1-15.7-11.6-34.1-6.9-51.6zM16.1 422c10.7 18.5 30.6 30 52 30 10.5 0 20.8-2.8 29.9-8.1 28.6-16.5 38.5-53.3 22-81.9-10.7-18.5-30.6-30-52-30-10.5 0-20.8 2.8-29.9 8-13.9 8-23.8 21-28 36.4-4.2 15.5-2 31.7 6 45.6z"/><path d="M32.7 334.3c1.2-1.8 3.7-2.3 5.5-1.1l7.5 5c1.8 1.2 2.3 3.7 1.1 5.5-1.2 1.8-3.7 2.3-5.5 1.1l-7.5-5c-1.8-1.2-2.3-3.6-1.1-5.5zM60 220c2.2 0 4 1.8 4 4s-1.8 4-4 4c-6.6 0-12 5.4-12 12 0 2.2-1.8 4-4 4s-4-1.8-4-4c0-11 9-20 20-20z"/><path d="M60 220h256c2.2 0 4 1.8 4 4s-1.8 4-4 4H60c-2.2 0-4-1.8-4-4s1.8-4 4-4zm173.2-13.5l13.1-118.9c.2-2 1.9-3.6 4-3.6H324c2.2 0 4 1.8 4 4v120c0 2.2-1.8 4-4 4H236.9c-2.2 0-4-1.8-4-4 0-.5.1-1.1.3-1.5zM320 204V92h-66.2l-12.3 112H320zM164 188c2.2 0 4 1.8 4 4v24c0 2.2-1.8 4-4 4s-4-1.8-4-4v-24c0-2.2 1.8-4 4-4zm-32 0c2.2 0 4 1.8 4 4v24c0 2.2-1.8 4-4 4s-4-1.8-4-4v-24c0-2.2 1.8-4 4-4z"/><path d="M156 180c6.6 0 12 5.4 12 12 0 2.2-1.8 4-4 4s-4-1.8-4-4-1.8-4-4-4-4-1.8-4-4 1.8-4 4-4zm-16 0c2.2 0 4 1.8 4 4s-1.8 4-4 4-4 1.8-4 4-1.8 4-4 4-4-1.8-4-4c0-6.6 5.4-12 12-12z"/><path d="M140 180h16c2.2 0 4 1.8 4 4s-1.8 4-4 4h-16c-2.2 0-4-1.8-4-4s1.8-4 4-4z"/><path d="M148 124c2.2 0 4 1.8 4 4v56c0 2.2-1.8 4-4 4s-4-1.8-4-4v-56c0-2.2 1.8-4 4-4z"/><path d="M156 108c2.2 0 4.1 1.8 4.1 4s-1.7 4-3.9 4c-1.5.2-4.2 3-4.2 12 0 2.2-1.8 4-4 4s-4-1.8-4-4c0-19.8 11.5-20 12-20zm64 128c2.2 0 4 1.8 4 4v48c0 2.2-1.8 4-4 4s-4-1.8-4-4v-48c0-2.2 1.8-4 4-4zm37.2-70.8c1.6-1.6 4.1-1.6 5.7 0l24 24c1.6 1.5 1.6 4.1.1 5.7-1.5 1.6-4.1 1.6-5.7.1l-.1-.1-24-24c-1.6-1.6-1.6-4.2 0-5.7zm0 16c1.6-1.6 4.1-1.6 5.7 0l8 8c1.6 1.5 1.6 4.1.1 5.7s-4.1 1.6-5.7.1l-.1-.1-8-8c-1.6-1.6-1.6-4.2 0-5.7zm112-16c1.6-1.6 4.1-1.6 5.7 0l24 24c1.6 1.5 1.6 4.1.1 5.7-1.5 1.6-4.1 1.6-5.7.1l-.1-.1-24-24c-1.6-1.6-1.6-4.2 0-5.7zm0 16c1.6-1.6 4.1-1.6 5.7 0l8 8c1.5 1.6 1.5 4.1-.1 5.7-1.5 1.5-4 1.5-5.5 0l-8-8c-1.7-1.6-1.7-4.2-.1-5.7zM64 276c4.4 0 8-3.6 8-8s-3.6-8-8-8c-2.2 0-4-1.8-4-4s1.8-4 4-4c8.8 0 16 7.2 16 16s-7.2 16-16 16c-2.2 0-4-1.8-4-4s1.8-4 4-4z"/><path d="M60 252c2.2 0 4 1.8 4 4v24c0 2.2-1.8 4-4 4s-4-1.8-4-4v-24c0-2.2 1.8-4 4-4z"/><path d="M60 252h4c2.2 0 4 1.8 4 4s-1.8 4-4 4h-4c-2.2 0-4-1.8-4-4s1.8-4 4-4zm0 24h4c2.2 0 4 1.8 4 4s-1.8 4-4 4h-4c-2.2 0-4-1.8-4-4s1.8-4 4-4z"/><path d="M68 275.3c2.2 0 4 1.8 4 4V296c0 2.2-1.8 4-4 4s-4-1.8-4-4v-16.7c0-2.2 1.8-4 4-4zm101.2-38.1c1.6-1.6 4.1-1.6 5.7 0l8 8c1.6 1.6 1.6 4.1 0 5.7-.8.8-1.8 1.2-2.8 1.2-1 0-2-.4-2.8-1.2l-8-8c-1.7-1.6-1.7-4.2-.1-5.7zm-24 0c1.6-1.6 4.1-1.6 5.7 0l8 8c1.6 1.6 1.6 4.1 0 5.7-.8.8-1.8 1.2-2.8 1.2-1 0-2-.4-2.8-1.2l-8-8c-1.7-1.6-1.7-4.2-.1-5.7zm-24 0c1.6-1.6 4.1-1.6 5.7 0l8 8c1.6 1.6 1.6 4.1 0 5.7-.8.8-1.8 1.2-2.8 1.2-1 0-2-.4-2.8-1.2l-8-8c-1.7-1.6-1.7-4.2-.1-5.7zM420 52c6.6 0 12 5.4 12 12 0 2.2-1.8 4-4 4s-4-1.8-4-4-1.8-4-4-4-4-1.8-4-4 1.8-4 4-4zm-168 0c2.2 0 4 1.8 4 4s-1.8 4-4 4-4 1.8-4 4-1.8 4-4 4-4-1.8-4-4c0-6.6 5.4-12 12-12z"/><path d="M253.3 52H420c2.2 0 4 1.8 4 4s-1.8 4-4 4H253.3c-2.2 0-4-1.8-4-4s1.8-4 4-4zM132 308h40c2.2 0 4 1.8 4 4s-1.8 4-4 4h-40c-2.2 0-4-1.8-4-4s1.8-4 4-4z"/><path d="M169.2 309.2c1.6-1.6 4.1-1.6 5.7 0l24 24c1.5 1.6 1.5 4.1-.1 5.7-1.5 1.5-4 1.5-5.5 0l-24-24c-1.7-1.6-1.7-4.2-.1-5.7z"/><path d="M156 332h40c2.2 0 4 1.8 4 4s-1.8 4-4 4h-40c-2.2 0-4-1.8-4-4s1.8-4 4-4z"/></svg>