<?xml version="1.0" encoding="utf-8"?>
<!-- Generator: Adobe Illustrator 22.0.1, SVG Export Plug-In . SVG Version: 6.00 Build 0)  -->
<svg version="1.1" id="Layer_1" xmlns="http://www.w3.org/2000/svg" xmlns:xlink="http://www.w3.org/1999/xlink" x="0px" y="0px"
	 viewBox="0 0 512 512" style="enable-background:new 0 0 512 512;" xml:space="preserve">
<style type="text/css">
	.st0{fill:url(#Union_1_1_);}
	.st1{display:none;}
	.st2{display:inline;}
	.st3{clip-path:url(#SVGID_2_);fill:#065A2E;}
	.st4{clip-path:url(#SVGID_4_);fill:#065A2E;}
	.st5{clip-path:url(#SVGID_6_);fill:#D52727;}
	.st6{clip-path:url(#SVGID_8_);fill:#D52727;}
</style>
<title>Wallet Rupees</title>
<linearGradient id="Union_1_1_" gradientUnits="userSpaceOnUse" x1="-84.5312" y1="2.4104" x2="-84.5312" y2="0.4671" gradientTransform="matrix(233.8712 0 0 239.4517 20026.9238 -86.0065)">
	<stop  offset="0" style="stop-color:#00EFD1"/>
	<stop  offset="1" style="stop-color:#00ACEA"/>
</linearGradient>
<path id="Union_1" class="st0" d="M39.1,486.6v-0.9h-7.3V317.8l0,0V151.9c0-2.5,0.8-4.8,2.4-6.7c1.6-1.8,3.8-2.9,6.2-2.9l129-37.1
	l78.3-78.1c3.6-3.5,9.3-3.5,12.9,0l34.1,33.8l91.7-32.5c0.9-0.4,1.9-0.6,3-0.6h0.2c5,0.1,9.1,4.1,9.2,9.1v105.3h75.3
	c2.5,0,4.8,1,6.4,2.9c1.7,1.8,2.6,4.2,2.7,6.7v326c0,2.3-1,4.5-2.6,6.1s-3.9,2.5-6.2,2.5H474H228.2l0,0L39.1,486.6z M197.3,468.2
	L197.3,468.2h267.4v-76.3h-59.5c-42.5,0-76.9-34.4-76.9-76.9s34.4-76.9,76.9-76.9l0,0h59.6v-77.5H50v136l0,0v171.7h147.3V468.2z
	 M346.4,314.9c0,32.4,26.3,58.6,58.7,58.7h59.6V256.2h-59.6C372.7,256.3,346.4,282.5,346.4,314.9L346.4,314.9z M309,75l68,67.3h3.3
	V49.9L309,75z M157.8,142.3h193.3L254,46L157.8,142.3z M106,142.3h26l10.6-10.6L106,142.3z M371.1,337.8
	c-12.6-12.6-12.6-32.9-0.1-45.5c12.6-12.6,32.9-12.6,45.5-0.1c12.6,12.6,12.6,32.9,0.1,45.5c-6,6.1-14.2,9.5-22.8,9.5
	C385.3,347.2,377.1,343.8,371.1,337.8z M384.1,305.2c-5.4,5.4-5.4,14.2,0,19.6s14.2,5.4,19.6,0s5.4-14.2,0-19.6
	c-2.6-2.6-6.1-4.1-9.8-4.1C390.2,301.1,386.7,302.6,384.1,305.2z"/>
<g class="st1">
	<g class="st2">
		<defs>
			<rect id="SVGID_1_" x="185.4" y="215.6" width="171.6" height="171.6"/>
		</defs>
		<clipPath id="SVGID_2_">
			<use xlink:href="#SVGID_1_"  style="overflow:visible;"/>
		</clipPath>
		<path class="st3" d="M223.1,275.3l-17.1-36.6c0-0.1-0.1-0.1-0.2-0.1h-1.1c-0.1,0-0.1,0-0.2,0.1l-17.1,36.6c0,0.1,0,0.1,0,0.2
			c0,0.1,0.1,0.1,0.2,0.1h8.6c0.1,0,0.1,0,0.2-0.1l2.7-6.5h12.3l2.7,6.5c0,0.1,0.1,0.1,0.2,0.1h8.8c0.1,0,0.1,0,0.2-0.1
			C223.2,275.4,223.2,275.3,223.1,275.3 M208.5,262.2h-6.6l3.3-8L208.5,262.2z"/>
		<path class="st3" d="M245.6,252.1h-6.3c-0.4,0-0.7,0.3-0.7,0.7v1.1c-1.7-1.5-3.6-2.2-5.9-2.2c-2.9,0-5.4,1.2-7.7,3.4
			c-2.2,2.3-3.3,5.2-3.3,8.7c0,3.5,1.1,6.4,3.3,8.5c2.2,2.1,4.8,3.2,8,3.2c2.5,0,4.6-0.7,6.5-2.2c-0.2,1.3-0.8,2.3-1.6,3
			c-1.2,1-2.9,1.5-5,1.5c-2.1,0-4.2-0.7-6.1-2.2c-0.2-0.1-0.4-0.2-0.6-0.1c-0.2,0-0.4,0.2-0.5,0.4l-2.4,4.7
			c-0.2,0.3-0.1,0.7,0.2,0.9c1.4,1.1,3,1.9,4.8,2.4c1.8,0.6,3.6,0.8,5.3,0.8c3.3,0,6.2-1,8.6-2.9c1.3-1,2.3-2.3,3-4
			c0.7-1.7,1.1-3.6,1.1-5.7v-19.6C246.3,252.4,246,252.1,245.6,252.1 M234.1,268.8c-1.3,0-2.4-0.5-3.3-1.4c-0.9-1-1.4-2.2-1.4-3.8
			c0-1.6,0.5-2.8,1.4-3.7c0.9-0.9,2-1.3,3.3-1.3c1.3,0,2.3,0.4,3.2,1.3c0.9,0.9,1.3,2.1,1.3,3.7c0,1.6-0.4,2.9-1.3,3.8
			C236.5,268.4,235.4,268.8,234.1,268.8"/>
		<path class="st3" d="M271.8,254.6h-12.3V247h14.4c0.1,0,0.2-0.1,0.2-0.2v-7.7c0-0.1-0.1-0.2-0.2-0.2h-23c-0.1,0-0.2,0.1-0.2,0.2
			v36.3c0,0.1,0.1,0.2,0.2,0.2h8.4c0.1,0,0.2-0.1,0.2-0.2v-13h12.3c0.1,0,0.2-0.1,0.2-0.2v-7.4C272,254.7,271.9,254.6,271.8,254.6"
			/>
		<path class="st3" d="M284.6,253.3c-6.9,0-11.8,4.7-11.8,11.3c0,6.7,4.8,11.3,11.8,11.3c6.9,0,11.7-4.7,11.7-11.3
			C296.3,258,291.5,253.3,284.6,253.3 M284.6,270.1c-2.6,0-4.1-2-4.1-5.5c0-3.5,1.5-5.5,4.1-5.5c2.6,0,4.1,2,4.1,5.5
			C288.7,268.1,287.2,270.1,284.6,270.1"/>
		<path class="st3" d="M306.1,238.9h-7.3c-0.1,0-0.2,0.1-0.2,0.2v36.3c0,0.1,0.1,0.2,0.2,0.2h7.3c0.1,0,0.2-0.1,0.2-0.2v-36.3
			C306.2,239,306.2,238.9,306.1,238.9"/>
		<path class="st3" d="M324.1,264.1l8.6-10.1c0-0.1,0.1-0.1,0-0.2c0-0.1-0.1-0.1-0.2-0.1H324c-0.1,0-0.1,0-0.1,0.1l-6.4,8.6v-23.2
			c0-0.1-0.1-0.2-0.2-0.2h-7.3c-0.1,0-0.2,0.1-0.2,0.2v36.3c0,0.1,0.1,0.2,0.2,0.2h7.3c0.1,0,0.2-0.1,0.2-0.2v-9.2l6.8,9.3
			c0,0,0.1,0.1,0.1,0.1h8.6c0.1,0,0.1,0,0.2-0.1c0-0.1,0-0.1,0-0.2L324.1,264.1z"/>
		<path class="st3" d="M343.7,261.9c-1.8-0.5-3.3-0.9-3.3-1.7c0-0.7,0.8-1.2,2-1.2c1.8,0,4.1,0.7,6.3,1.9c0,0,0.1,0,0.2,0
			c0,0,0.1-0.1,0.1-0.1l1.8-5.2c0-0.1,0-0.2-0.1-0.2c-2.5-1.3-5.4-2-7.9-2c-5.5,0-9.3,3-9.3,7.4c0,4.6,4.2,5.7,7.2,6.5
			c1.7,0.5,3.2,0.8,3.2,1.7c0,0.8-0.8,1.3-2.3,1.3c-1.9,0-4.6-1-6.9-2.6c0,0-0.1,0-0.2,0c-0.1,0-0.1,0.1-0.1,0.1l-2.3,5.2
			c0,0.1,0,0.2,0.1,0.2c2.9,1.9,6.1,2.8,9.4,2.8c5.6,0,9.6-2.9,9.6-7.1C351.3,263.9,346.9,262.8,343.7,261.9"/>
		<path class="st3" d="M292.3,296.9c0.2,0,0.3,0,0.5,0c0.8,0,1.5-0.1,2.1-0.3c0.6-0.2,1.1-0.4,1.6-0.8c0.4-0.3,0.8-0.7,1.1-1.1
			c0.3-0.4,0.5-0.9,0.7-1.3c0.2-0.5,0.3-0.9,0.4-1.4c0.1-0.5,0.1-1,0.1-1.4c0-0.5-0.1-0.9-0.2-1.3c-0.1-0.4-0.4-0.8-0.7-1
			c-0.3-0.3-0.7-0.5-1.2-0.7c-0.5-0.2-1.1-0.3-1.8-0.3c-0.1,0-0.3,0-0.5,0c-0.2,0-0.4,0-0.6,0c-0.2,0-0.4,0-0.6,0
			c-0.2,0-0.4,0-0.5,0h-1.4l-0.1,0.5l0.1,0c0.1,0.1,0.3,0.1,0.5,0.2c0.1,0,0.3,0.1,0.5,0.1l-1.6,7.6c-0.4,0.1-0.8,0.2-1.1,0.3l0,0
			l-0.1,0.5h1.4c0.2,0,0.3,0,0.5,0l0.6,0C292,296.9,292.1,296.9,292.3,296.9 M291.9,296l1.6-7.8c0.1,0,0.3,0,0.5,0
			c0.2,0,0.5,0,0.7,0c0.5,0,1,0.1,1.3,0.2c0.3,0.1,0.6,0.3,0.8,0.5c0.2,0.2,0.3,0.4,0.4,0.7c0.1,0.3,0.1,0.6,0.1,0.9
			c0,0.7-0.1,1.3-0.2,2c-0.1,0.7-0.4,1.3-0.7,1.8c-0.3,0.5-0.8,1-1.3,1.3c-0.5,0.3-1.2,0.5-2,0.5c0,0-0.1,0-0.2,0
			c-0.1,0-0.2,0-0.3,0l-0.4,0C292,296,291.9,296,291.9,296"/>
		<path class="st3" d="M300.1,296.9c0.2,0,0.5,0,0.8-0.1c0.3-0.1,0.5-0.2,0.7-0.4l0,0v-0.5h-0.9l1.2-5.7l0-0.1l-0.3-0.2h0
			c-0.1,0-0.3,0-0.4,0c-0.2,0-0.3,0.1-0.5,0.1c-0.2,0-0.4,0.1-0.5,0.2c-0.2,0.1-0.3,0.1-0.4,0.2l-0.1,0v0.5l0.8,0.1l-0.9,4.1
			c0,0.2-0.1,0.4-0.1,0.6c0,0.2,0,0.3,0,0.5c0,0.2,0.1,0.3,0.2,0.5C299.6,296.8,299.9,296.9,300.1,296.9"/>
		<path class="st3" d="M301.5,288.7c0.3,0,0.5-0.1,0.6-0.2c0.2-0.1,0.2-0.3,0.2-0.6c0-0.3-0.1-0.5-0.2-0.6c-0.2-0.1-0.4-0.2-0.6-0.2
			c-0.3,0-0.5,0.1-0.6,0.2c-0.2,0.1-0.2,0.4-0.2,0.6c0,0.2,0.1,0.4,0.2,0.6C301,288.6,301.2,288.7,301.5,288.7"/>
		<path class="st3" d="M307,291.6L307,291.6c0.1-0.1,0.2-0.2,0.2-0.3c0.1-0.1,0.1-0.2,0.2-0.4c0-0.1,0.1-0.3,0.1-0.4
			c0-0.1,0-0.2,0-0.3v-0.1l0,0c-0.1-0.1-0.2-0.1-0.4-0.1c-0.6-0.1-1.1,0.1-1.6,0.5c-0.3,0.3-0.5,0.6-0.7,0.9l0.3-1.3l-0.3-0.2l0,0
			c-0.3,0-0.6,0.1-0.9,0.2c-0.3,0.1-0.6,0.2-0.9,0.3l-0.1,0v0.5l0.8,0.1l-1.2,5.8h1.3l0.8-3.7c0.2-0.6,0.5-1.1,0.7-1.4
			c0.3-0.3,0.5-0.5,0.7-0.6L307,291.6z"/>
		<path class="st3" d="M307,294.5c0,0.8,0.2,1.4,0.6,1.8c0.4,0.4,1,0.7,1.7,0.7c0.3,0,0.6,0,0.8-0.1c0.3-0.1,0.5-0.2,0.7-0.3
			c0.2-0.1,0.4-0.3,0.5-0.4c0.2-0.2,0.3-0.3,0.4-0.5l0-0.1l-0.3-0.4l-0.1,0.1c-0.1,0.1-0.2,0.1-0.3,0.2c-0.1,0.1-0.2,0.2-0.4,0.2
			c-0.1,0.1-0.3,0.1-0.4,0.2c-0.2,0-0.3,0.1-0.5,0.1c-0.5,0-0.9-0.2-1.1-0.5c-0.3-0.3-0.4-0.7-0.4-1.2c0-0.1,0-0.3,0-0.4
			c0-0.1,0-0.2,0.1-0.4c1.3-0.1,2.3-0.3,3-0.7c0.6-0.4,1-0.9,1-1.5c0-0.4-0.2-0.8-0.5-1c-0.3-0.2-0.7-0.3-1.1-0.3
			c-0.6,0-1.1,0.1-1.5,0.4c-0.5,0.2-0.9,0.6-1.2,1c-0.3,0.4-0.6,0.9-0.7,1.5C307.1,293.3,307,293.9,307,294.5 M310.4,292.3
			c-0.4,0.2-1,0.4-1.8,0.4c0.2-0.7,0.5-1.3,0.8-1.6c0.3-0.3,0.6-0.5,1-0.5c0.3,0,0.5,0.1,0.6,0.2c0.1,0.1,0.1,0.3,0.1,0.5
			C311.1,291.8,310.8,292.1,310.4,292.3"/>
		<path class="st3" d="M314.7,297c0.3,0,0.6,0,0.8-0.1c0.3-0.1,0.5-0.2,0.7-0.3c0.2-0.1,0.4-0.3,0.5-0.4c0.2-0.2,0.3-0.3,0.4-0.5
			l0-0.1l-0.3-0.4l-0.1,0.1c-0.1,0.1-0.2,0.1-0.3,0.2c-0.1,0.1-0.2,0.2-0.4,0.2c-0.1,0.1-0.3,0.1-0.4,0.2c-0.2,0-0.3,0.1-0.5,0.1
			c-0.4,0-0.7-0.1-0.9-0.4c-0.2-0.3-0.3-0.7-0.3-1.3c0-0.6,0.1-1.1,0.2-1.5c0.1-0.4,0.3-0.8,0.5-1.1c0.2-0.3,0.5-0.6,0.8-0.7
			c0.3-0.2,0.5-0.2,0.8-0.3l0.9,0.9l0.1,0c0.1,0,0.2-0.1,0.3-0.2c0.1-0.1,0.1-0.2,0.2-0.3c0-0.1,0.1-0.2,0.1-0.4c0-0.1,0-0.2,0-0.3
			l0,0l0,0c-0.1-0.1-0.3-0.2-0.5-0.3c-0.2-0.1-0.5-0.1-0.8-0.1c-0.5,0-1.1,0.1-1.5,0.4c-0.5,0.2-0.9,0.6-1.2,1
			c-0.3,0.4-0.6,0.9-0.8,1.5c-0.2,0.6-0.3,1.2-0.3,1.8c0,0.7,0.2,1.3,0.6,1.7C313.5,296.7,314.1,297,314.7,297"/>
		<path class="st3" d="M321.1,296.3c0.2-0.1,0.3-0.2,0.4-0.4l0,0l-0.2-0.4l-0.1,0c-0.2,0.1-0.4,0.2-0.7,0.3
			c-0.2,0.1-0.5,0.1-0.7,0.1c-0.1,0-0.3,0-0.4-0.1c-0.1-0.1-0.2-0.2-0.2-0.4c0-0.1,0-0.2,0-0.3c0-0.1,0-0.3,0.1-0.4l0.8-3.7h1.6l0,0
			c0.1-0.1,0.1-0.2,0.1-0.4c0-0.1,0-0.3,0-0.4l0-0.1h-1.6l0.3-1.4l-0.4-0.2l0,0c-0.2,0.1-0.3,0.1-0.5,0.2c-0.2,0.1-0.3,0.2-0.4,0.3
			l0,0l-0.2,1c-0.2,0-0.4,0.1-0.5,0.2c-0.2,0.1-0.4,0.2-0.6,0.3l0,0l0,0.5h1l-0.8,4c0,0.2-0.1,0.3-0.1,0.5c0,0.2,0,0.3,0,0.4
			c0,0.4,0.1,0.7,0.4,0.9c0.2,0.2,0.6,0.3,1,0.3c0.2,0,0.4,0,0.6-0.1c0.2-0.1,0.4-0.1,0.6-0.2C320.7,296.5,320.9,296.4,321.1,296.3"
			/>
		<path class="st3" d="M282.6,308c-0.2,0.1-0.4,0.2-0.7,0.3c-0.2,0.1-0.5,0.1-0.7,0.1c-0.1,0-0.3,0-0.4-0.1
			c-0.1-0.1-0.2-0.2-0.2-0.4c0-0.1,0-0.2,0-0.3c0-0.1,0-0.3,0.1-0.4l0.8-3.7h1.6l0,0c0.1-0.1,0.1-0.2,0.1-0.4c0-0.1,0-0.3,0-0.4
			l0-0.1h-1.6l0.3-1.4l-0.4-0.2l0,0c-0.2,0.1-0.3,0.1-0.5,0.2c-0.2,0.1-0.3,0.2-0.4,0.3l0,0l-0.2,1c-0.2,0-0.4,0.1-0.5,0.2
			c-0.2,0.1-0.4,0.2-0.6,0.3l0,0l0,0.5h1l-0.8,4c0,0.2-0.1,0.3-0.1,0.5c0,0.2,0,0.3,0,0.4c0,0.4,0.1,0.7,0.4,0.9
			c0.2,0.2,0.6,0.3,1,0.3c0.2,0,0.4,0,0.6-0.1c0.2-0.1,0.4-0.1,0.6-0.2c0.2-0.1,0.4-0.2,0.5-0.3c0.2-0.1,0.3-0.2,0.4-0.4l0,0
			L282.6,308L282.6,308z"/>
		<path class="st3" d="M286.8,302.3c-0.6,0-1.1,0.1-1.6,0.4c-0.5,0.3-0.8,0.6-1.1,1.1c-0.3,0.4-0.5,0.9-0.7,1.4
			c-0.1,0.5-0.2,1-0.2,1.5c0,0.9,0.2,1.6,0.6,2c0.4,0.5,1,0.7,1.7,0.7c0.5,0,1-0.1,1.4-0.4c0.4-0.2,0.8-0.6,1.1-1
			c0.3-0.4,0.5-0.9,0.7-1.4c0.2-0.5,0.3-1.1,0.3-1.7c0-0.8-0.2-1.5-0.5-1.9C288.1,302.5,287.5,302.3,286.8,302.3 M285.7,308.6
			c-0.4,0-0.6-0.1-0.8-0.4c-0.2-0.3-0.3-0.7-0.3-1.2c0-0.4,0-0.8,0.1-1.3c0.1-0.5,0.2-0.9,0.3-1.3c0.2-0.4,0.4-0.7,0.6-1
			c0.3-0.3,0.6-0.4,1-0.4c0.4,0,0.6,0.2,0.8,0.4c0.2,0.3,0.3,0.7,0.3,1.2c0,0.5,0,1-0.1,1.4c-0.1,0.5-0.2,0.9-0.4,1.3
			c-0.2,0.4-0.4,0.7-0.6,0.9C286.3,308.5,286,308.6,285.7,308.6"/>
		<path class="st3" d="M299.1,302.1c0.1-0.4,0.2-0.7,0.3-1.1c0.1-0.4,0.2-0.7,0.3-1.1l0-0.1h-6.3l-0.1,0.5l0.1,0
			c0.1,0.1,0.3,0.1,0.4,0.2c0.1,0,0.3,0.1,0.4,0.1l-1.6,7.6c-0.2,0-0.3,0.1-0.5,0.1c-0.2,0.1-0.3,0.1-0.5,0.2l0,0l-0.1,0.5h3.5
			l0.1-0.5l-0.1,0c-0.3-0.1-0.6-0.2-1-0.3l0.7-3.2h2.1l0.3,1h0.5l0-0.1c0.1-0.4,0.2-0.9,0.3-1.3c0.1-0.5,0.2-0.9,0.2-1.3l0-0.1h-0.5
			l-0.7,1h-2.1l0.7-3.5h2.8l0.2,1.4L299.1,302.1L299.1,302.1z"/>
		<path class="st3" d="M304.9,302.3c-0.4,0-0.8,0.1-1.1,0.3c-0.2-0.1-0.3-0.1-0.4-0.2c-0.1,0-0.3-0.1-0.5-0.1
			c-0.6,0-1.2,0.1-1.7,0.4c-0.5,0.3-0.9,0.7-1.2,1.1c-0.3,0.5-0.6,1-0.8,1.6c-0.2,0.6-0.3,1.2-0.3,1.8c0,1.4,0.5,2.1,1.5,2.1
			c0.3,0,0.6-0.1,0.9-0.3c0.3-0.2,0.5-0.4,0.8-0.7c0.2-0.3,0.4-0.6,0.6-0.9c0.1-0.1,0.1-0.2,0.2-0.3c0,0.2-0.1,0.5-0.1,0.7
			c-0.1,0.4-0.1,0.6-0.1,0.8c0,0.1,0.1,0.3,0.2,0.4c0.1,0.1,0.3,0.2,0.6,0.2c0.2,0,0.5,0,0.7-0.1c0.3-0.1,0.5-0.2,0.7-0.4l0,0v-0.5
			h-0.9l1.2-6H304.9z M301.8,303.5c0.3-0.2,0.7-0.4,1-0.4c0.2,0,0.3,0,0.4,0c0.1,0,0.2,0.1,0.3,0.1l-0.4,2.2
			c-0.1,0.2-0.2,0.5-0.4,0.8c-0.2,0.3-0.3,0.7-0.6,1c-0.2,0.3-0.4,0.6-0.7,0.8c-0.2,0.2-0.4,0.3-0.6,0.3c-0.2,0-0.4-0.1-0.5-0.3
			c-0.1-0.2-0.2-0.6-0.2-1c0-0.5,0.1-0.9,0.2-1.4c0.1-0.5,0.3-0.9,0.5-1.3C301.2,304,301.5,303.7,301.8,303.5"/>
		<path class="st3" d="M318.3,302.3c-0.3,0-0.6,0.1-0.9,0.2c-0.3,0.2-0.5,0.4-0.8,0.6c-0.2,0.2-0.5,0.5-0.7,0.8
			c-0.1,0.1-0.1,0.2-0.2,0.3c0-0.2,0.1-0.4,0.1-0.6c0-0.3,0-0.5-0.1-0.6c-0.1-0.2-0.1-0.3-0.2-0.4c-0.1-0.1-0.2-0.2-0.3-0.2
			c-0.1,0-0.2-0.1-0.3-0.1c-0.3,0-0.6,0.1-0.9,0.3c-0.3,0.2-0.6,0.4-0.8,0.6c-0.2,0.3-0.5,0.5-0.7,0.8c-0.1,0.1-0.1,0.2-0.2,0.3
			l0.4-1.8l-0.4-0.2h0c-0.2,0-0.5,0-0.9,0.1c-0.3,0.1-0.7,0.2-1,0.4c0-0.1,0-0.2,0-0.2v-0.1l0,0c-0.1-0.1-0.2-0.1-0.4-0.1
			c-0.6-0.1-1.1,0.1-1.6,0.5c-0.3,0.3-0.5,0.6-0.7,0.9l0.3-1.3l-0.3-0.2l0,0c-0.3,0-0.6,0.1-0.9,0.2c-0.3,0.1-0.6,0.2-0.9,0.3
			l-0.1,0v0.5l0.8,0.1l-1.2,5.8h1.3l0.8-3.7c0.2-0.6,0.5-1.1,0.7-1.4c0.3-0.3,0.5-0.5,0.7-0.6l1.1,0.5l0,0c0.1-0.1,0.1-0.2,0.2-0.3
			c0.1-0.1,0.1-0.2,0.2-0.4c0-0.1,0.1-0.2,0.1-0.3v0.3l0.8,0.1l-1.2,5.8h1.3l0.7-3.4c0.1-0.3,0.2-0.5,0.4-0.8
			c0.2-0.3,0.4-0.6,0.5-0.8c0.2-0.2,0.4-0.5,0.6-0.6c0.4-0.3,0.7-0.3,0.8-0.1c0.1,0.1,0.1,0.2,0.1,0.4c0,0.3,0,0.5-0.1,0.8
			c0,0.2-0.1,0.5-0.2,0.8l-0.8,3.8h1.2l0.8-3.4c0.1-0.3,0.2-0.5,0.4-0.8c0.2-0.3,0.3-0.6,0.5-0.8c0.2-0.2,0.4-0.5,0.6-0.6
			c0.2-0.2,0.4-0.2,0.6-0.2c0.2,0,0.3,0,0.3,0.2c0.1,0.1,0.1,0.3,0.1,0.5c0,0.1,0,0.3-0.1,0.6c0,0.2-0.1,0.4-0.2,0.7l-0.6,2.4
			c-0.1,0.5-0.2,0.8-0.2,1.1c0,0.2,0.1,0.3,0.2,0.5c0.1,0.1,0.3,0.2,0.6,0.2c0.2,0,0.5,0,0.7-0.1c0.3-0.1,0.5-0.2,0.7-0.4l0,0v-0.5
			h-0.9l0.8-3.1l0.2-0.8c0.1-0.3,0.1-0.5,0.1-0.8c0-0.4-0.1-0.7-0.3-0.9C318.9,302.4,318.6,302.3,318.3,302.3"/>
		<path class="st3" d="M325,302.7c-0.3-0.2-0.7-0.3-1.1-0.3c-0.6,0-1.1,0.1-1.5,0.4c-0.5,0.2-0.9,0.6-1.2,1
			c-0.3,0.4-0.6,0.9-0.7,1.5c-0.2,0.6-0.3,1.2-0.3,1.8c0,0.8,0.2,1.4,0.6,1.8c0.4,0.4,1,0.7,1.7,0.7c0.3,0,0.6,0,0.8-0.1
			c0.3-0.1,0.5-0.2,0.7-0.3c0.2-0.1,0.4-0.3,0.5-0.4c0.2-0.2,0.3-0.3,0.4-0.5l0-0.1l-0.3-0.4l-0.1,0.1c-0.1,0.1-0.2,0.1-0.3,0.2
			c-0.1,0.1-0.2,0.2-0.4,0.2c-0.1,0.1-0.3,0.1-0.4,0.2c-0.2,0-0.3,0.1-0.5,0.1c-0.5,0-0.9-0.2-1.1-0.5s-0.4-0.7-0.4-1.2
			c0-0.1,0-0.3,0-0.4c0-0.1,0-0.2,0.1-0.4c1.3-0.1,2.3-0.3,3-0.7c0.6-0.4,1-0.9,1-1.5C325.5,303.2,325.3,302.9,325,302.7
			 M323.5,304.8c-0.4,0.2-1,0.4-1.8,0.4c0.2-0.7,0.5-1.3,0.8-1.6c0.3-0.3,0.6-0.5,1-0.5c0.3,0,0.5,0.1,0.6,0.2
			c0.1,0.1,0.1,0.3,0.1,0.5C324.2,304.2,324,304.5,323.5,304.8"/>
		<path class="st3" d="M330.3,304c0.1-0.1,0.1-0.2,0.2-0.3c0.1-0.1,0.1-0.2,0.2-0.4c0-0.1,0.1-0.3,0.1-0.4c0-0.1,0-0.2,0-0.3v-0.1
			l0,0c-0.1-0.1-0.2-0.1-0.4-0.1c-0.6-0.1-1.1,0.1-1.6,0.5c-0.3,0.3-0.5,0.6-0.7,0.9l0.3-1.3l-0.3-0.2l0,0c-0.3,0-0.6,0.1-0.9,0.2
			c-0.3,0.1-0.6,0.2-0.9,0.3l-0.1,0v0.5l0.8,0.1l-1.2,5.8h1.3l0.8-3.7c0.2-0.6,0.5-1.1,0.7-1.4c0.3-0.3,0.5-0.5,0.7-0.6L330.3,304
			L330.3,304z"/>
	</g>
	<g class="st2">
		<defs>
			<rect id="SVGID_3_" x="185.4" y="215.6" width="171.6" height="171.6"/>
		</defs>
		<clipPath id="SVGID_4_">
			<use xlink:href="#SVGID_3_"  style="overflow:visible;"/>
		</clipPath>
		<path class="st4" d="M335,302.7c-0.3-0.2-0.5-0.3-0.8-0.3c-0.3,0-0.5-0.1-0.8-0.1c-0.4,0-0.7,0-1,0.1c-0.3,0.1-0.6,0.2-0.8,0.4
			c-0.2,0.2-0.4,0.4-0.5,0.6c-0.1,0.2-0.2,0.5-0.2,0.9c0,0.3,0.1,0.6,0.2,0.8c0.1,0.2,0.3,0.4,0.4,0.6c0.2,0.2,0.4,0.3,0.6,0.5
			c0.2,0.1,0.4,0.3,0.5,0.4c0.2,0.1,0.3,0.3,0.4,0.4c0.1,0.1,0.2,0.3,0.2,0.5c0,0.2-0.1,0.3-0.1,0.5c-0.1,0.1-0.2,0.2-0.3,0.3
			c-0.1,0.1-0.3,0.2-0.5,0.2c-0.2,0-0.3,0.1-0.5,0.1l-1.2-1.1l-0.1,0.1c-0.2,0.2-0.3,0.4-0.4,0.6c-0.1,0.2-0.1,0.4-0.2,0.7l0,0.1
			l0.1,0c0.2,0.1,0.4,0.2,0.7,0.3c0.3,0.1,0.7,0.1,1,0.1c0.4,0,0.7,0,1.1-0.1c0.3-0.1,0.6-0.2,0.9-0.4c0.3-0.2,0.5-0.4,0.6-0.7
			c0.2-0.3,0.2-0.6,0.2-0.9c0-0.3-0.1-0.6-0.2-0.8c-0.1-0.2-0.3-0.4-0.4-0.6c-0.2-0.2-0.4-0.3-0.6-0.5c-0.2-0.1-0.4-0.3-0.5-0.4
			c-0.2-0.1-0.3-0.3-0.4-0.4c-0.1-0.1-0.2-0.3-0.2-0.5c0-0.2,0-0.3,0.1-0.4c0.1-0.1,0.1-0.2,0.2-0.3c0.1-0.1,0.2-0.1,0.4-0.2
			c0.1,0,0.3-0.1,0.4-0.1l1,1l0.1,0c0.1,0,0.2-0.1,0.3-0.2c0.1-0.1,0.1-0.2,0.2-0.3c0.1-0.1,0.1-0.3,0.1-0.4
			C335.1,303,335.1,302.9,335,302.7L335,302.7L335,302.7z"/>
		<path class="st4" d="M271.2,219.7c21.8,0,42.3,8.5,57.8,23.9c2.1,2.1,4.1,4.4,6,6.7c1.2-0.7,2.6-1.2,4.1-1.5
			c-2.2-2.8-4.6-5.5-7.2-8.1c-16.2-16.2-37.7-25.1-60.7-25.1c-22.3,0-43.3,8.5-59.4,23.9l1.8,3.9
			C229.1,228.1,249.5,219.7,271.2,219.7"/>
		<path class="st4" d="M353.3,276.3c-1,1.1-2.1,2-3.5,2.7c2,7.2,3.1,14.7,3.1,22.4c0,14.3-3.7,28-10.5,40.2
			c-7.5-2.4-15.3-3.6-23.2-3.6c-10.3,0-20.4,2.1-29.8,6.1c-7.2-4.9-15.1-8.7-23.4-11.2v-23.4l-15.2-11.1h-20.4l-0.6-0.5L214,309.3
			V327c-1-0.2-2-0.4-3-0.6h0.1v-30.5c0-4.2-3.4-7.5-7.6-7.5c-4.2,0-7.6,3.4-7.6,7.5v24.5c-2.5-1.8-4.4-3.9-5.4-6.5
			c-0.6-4.1-1-8.3-1-12.5c0-7.2,0.9-14.2,2.7-20.9H188c-1.7,6.8-2.6,13.8-2.6,20.9c0,22.9,8.9,44.5,25.1,60.7
			c16.2,16.2,37.7,25.1,60.7,25.1c22.9,0,44.5-8.9,60.7-25.1c16.2-16.2,25.1-37.7,25.1-60.7C357,292.7,355.7,284.3,353.3,276.3
			 M313.4,368.5c1.6-0.2,3.2-0.3,4.8-0.4c-1.2,0.8-2.4,1.6-3.6,2.4C314.2,369.9,313.8,369.2,313.4,368.5 M323.1,364.4
			c-4.1-0.3-8.1-0.2-12.2,0.5c-1-1.5-2.2-2.9-3.3-4.4c6.6-1.4,13.5-1.6,20.3-0.5C326.4,361.6,324.8,363,323.1,364.4 M331.2,356.7
			c-8.8-1.9-17.9-1.6-26.5,0.5c-1.3-1.4-2.6-2.7-3.9-4c5.9-1.8,12.1-2.7,18.3-2.7c5.3,0,10.6,0.7,15.7,2
			C333.7,354,332.5,355.4,331.2,356.7 M319.2,341.8c7.2,0,14.2,1.1,21.1,3.1c-0.9,1.5-1.8,2.9-2.8,4.3c-5.9-1.7-12.1-2.5-18.2-2.5
			c-7.3,0-14.6,1.2-21.5,3.5c-1.4-1.2-2.9-2.5-4.4-3.6C301.5,343.4,310.2,341.8,319.2,341.8 M249.5,302.2l12.5,9.1v20.3
			c-5.4-1.4-10.9-2.2-16.4-2.5v-19.8l-9.8-7.2H249.5z M217.9,311.3l11.9-8.7l11.9,8.7v17.8h0c-1.9,0-3.8,0-5.7-0.1v-5.3l-6.2-4.5
			l-6.2,4.5v4.5c-1.9-0.2-3.8-0.4-5.7-0.7V311.3z M232,325.7v3.1c-1.5-0.1-3-0.2-4.5-0.3v-2.9l2.3-1.6L232,325.7z M199.8,295.9
			c0-2,1.6-3.6,3.7-3.6c2,0,3.6,1.6,3.6,3.6v1h-7.3V295.9z M199.8,300.8h7.3v10.1h-7.3V300.8z M199.8,314.8h7.3v10.6
			c-2.6-0.8-5.1-1.7-7.3-2.7V314.8z M241.6,333c28.2,0,55.2,15.5,69.6,39.6c-4,2.3-8.2,4.2-12.6,5.7c-12.2-19.5-33.9-31.6-57.1-31.6
			c-11.2,0-22.3,2.8-32.1,8.2c-8.2-9.4-14-20.4-17.2-32.2C200.8,329.5,217.3,333,241.6,333 M289.9,380.9
			c-10.9-16-28.8-25.4-48.3-25.4c-9,0-17.6,2-25.7,5.9c-1.2-1.1-2.4-2.4-3.6-3.6c9-4.7,19.1-7.2,29.3-7.2c21.5,0,41.7,11,53.3,29
			C293.2,380,291.6,380.5,289.9,380.9 M280.1,382.5c-9.5-11.6-23.4-18.3-38.5-18.3c-6.3,0-12.3,1.2-18.1,3.4c-1.5-1.1-3-2.2-4.4-3.4
			c7.1-3.2,14.7-4.9,22.5-4.9c17.6,0,33.8,8.3,44.1,22.4C283.9,382.1,282,382.3,280.1,382.5 M240.2,377c0.5,0,0.9,0,1.4,0
			c6.9,0,13.5,1.9,19.3,5.5C253.8,381.5,246.8,379.7,240.2,377 M271.2,383c-1,0-1.9,0-2.9-0.1c-7.4-6.4-16.9-9.9-26.7-9.9
			c-2.7,0-5.4,0.3-8.1,0.8c-0.8-0.4-1.5-0.8-2.3-1.2c-0.2-0.1-0.3-0.2-0.5-0.3c-0.2-0.1-0.3-0.2-0.5-0.3c-0.9-0.5-1.8-1.1-2.7-1.7
			c4.5-1.5,9.3-2.2,14.1-2.2c13,0,25,5.3,33.7,14.8C274,383,272.6,383,271.2,383"/>
	</g>
</g>
<g>
	<g>
		<defs>
			<rect id="SVGID_5_" x="64.3" y="375.7" width="290.6" height="82.3"/>
		</defs>
		<clipPath id="SVGID_6_">
			<use xlink:href="#SVGID_5_"  style="overflow:visible;"/>
		</clipPath>
		<path class="st5" d="M127.5,440.8l-30.3-64.9c-0.1-0.1-0.2-0.2-0.3-0.2h-2c-0.1,0-0.2,0.1-0.3,0.2l-30.3,64.9c0,0.1,0,0.2,0,0.3
			c0.1,0.1,0.2,0.1,0.3,0.1h15.2c0.1,0,0.3-0.1,0.3-0.2l4.7-11.5h21.8l4.7,11.5c0.1,0.1,0.2,0.2,0.3,0.2h15.5c0.1,0,0.2-0.1,0.3-0.1
			C127.5,441,127.5,440.9,127.5,440.8 M101.6,417.5H89.8l5.9-14.3L101.6,417.5z"/>
	</g>
	<g>
		<defs>
			<rect id="SVGID_7_" x="64.2" y="375.7" width="290.6" height="82.3"/>
		</defs>
		<clipPath id="SVGID_8_">
			<use xlink:href="#SVGID_7_"  style="overflow:visible;"/>
		</clipPath>
		<path class="st6" d="M167.3,399.6h-11.1c-0.7,0-1.3,0.6-1.3,1.3v2c-2.9-2.6-6.5-3.9-10.5-3.9c-5.1,0-9.7,2-13.6,6.1
			c-3.9,4-5.9,9.2-5.9,15.5c0,6.2,1.9,11.3,5.8,15.1c3.8,3.8,8.6,5.7,14.1,5.7c4.4,0,8.2-1.3,11.5-3.9c-0.4,2.3-1.4,4.1-2.8,5.3
			c-2.1,1.8-5.1,2.7-8.8,2.7c-3.8,0-7.4-1.3-10.8-3.9c-0.3-0.2-0.7-0.3-1.1-0.2c-0.4,0.1-0.7,0.3-0.9,0.7l-4.3,8.4
			c-0.3,0.6-0.1,1.3,0.4,1.6c2.4,1.9,5.3,3.3,8.5,4.3c3.2,1,6.4,1.5,9.5,1.5c5.9,0,11-1.7,15.3-5.2c2.2-1.7,4.1-4.1,5.4-7
			c1.3-2.9,2-6.3,2-10V401C168.6,400.2,168,399.6,167.3,399.6 M146.9,429.4c-2.3,0-4.2-0.8-5.8-2.5c-1.6-1.7-2.4-3.9-2.4-6.8
			c0-2.8,0.8-5,2.5-6.5c1.7-1.6,3.6-2.4,5.9-2.4c2.3,0,4.1,0.8,5.7,2.3c1.5,1.6,2.3,3.8,2.3,6.6c0,2.9-0.8,5.1-2.3,6.8
			C151.1,428.6,149.2,429.4,146.9,429.4"/>
		<path class="st6" d="M213.9,404.2h-21.8v-13.6h25.5c0.2,0,0.3-0.1,0.3-0.3v-13.7c0-0.2-0.1-0.3-0.3-0.3h-40.7
			c-0.2,0-0.3,0.1-0.3,0.3V441c0,0.2,0.1,0.3,0.3,0.3h14.9c0.2,0,0.3-0.1,0.3-0.3v-23h21.8c0.2,0,0.3-0.1,0.3-0.3v-13.1
			C214.2,404.3,214,404.2,213.9,404.2"/>
		<path class="st6" d="M236.6,401.8c-12.3,0-20.9,8.3-20.9,20.1c0,11.8,8.6,20.1,20.9,20.1c12.2,0,20.8-8.3,20.8-20.1
			C257.4,410.1,248.8,401.8,236.6,401.8 M236.6,431.7c-4.6,0-7.3-3.6-7.3-9.8c0-6.2,2.7-9.8,7.3-9.8c4.6,0,7.2,3.6,7.2,9.8
			C243.8,428.1,241.2,431.7,236.6,431.7"/>
		<path class="st6" d="M274.6,376.3h-13c-0.2,0-0.3,0.1-0.3,0.3V441c0,0.2,0.1,0.3,0.3,0.3h13c0.2,0,0.3-0.1,0.3-0.3v-64.4
			C274.9,376.4,274.8,376.3,274.6,376.3"/>
		<path class="st6" d="M306.7,421l15.2-18c0.1-0.1,0.1-0.2,0-0.3c-0.1-0.1-0.2-0.2-0.3-0.2h-15.3c-0.1,0-0.2,0-0.3,0.1l-11.4,15.2
			v-41.3c0-0.2-0.1-0.3-0.3-0.3h-13c-0.2,0-0.3,0.1-0.3,0.3V441c0,0.2,0.1,0.3,0.3,0.3h13c0.2,0,0.3-0.1,0.3-0.3v-16.3l12.1,16.5
			c0.1,0.1,0.2,0.1,0.3,0.1h15.3c0.1,0,0.2-0.1,0.3-0.2c0.1-0.1,0-0.2,0-0.3L306.7,421z"/>
		<path class="st6" d="M341.4,417.1c-3.2-0.9-5.8-1.5-5.8-3.1c0-1.2,1.5-2,3.6-2c3.1,0,7.3,1.3,11.2,3.4c0.1,0,0.2,0.1,0.3,0
			c0.1,0,0.2-0.1,0.2-0.2l3.2-9.3c0.1-0.2,0-0.3-0.2-0.4c-4.4-2.3-9.6-3.6-14-3.6c-9.7,0-16.5,5.4-16.5,13.1
			c0,8.2,7.4,10.1,12.8,11.5c3.1,0.8,5.7,1.5,5.7,3.1c0,1.4-1.4,2.2-4.1,2.2c-3.4,0-8.2-1.8-12.2-4.6c-0.1-0.1-0.2-0.1-0.3,0
			c-0.1,0-0.2,0.1-0.2,0.2l-4.1,9.3c-0.1,0.1,0,0.3,0.1,0.4c5.1,3.3,10.8,5,16.7,5c10,0,17-5.2,17-12.5
			C354.8,420.7,347.1,418.6,341.4,417.1"/>
	</g>
</g>
</svg>
