<svg xmlns="http://www.w3.org/2000/svg" viewBox="0 0 512 512"><path d="M511.94 190.868a7.503 7.503 0 0 0-3.088-5.163c-.861-.613-21.416-15.177-50.699-28.857-39.792-18.587-74.955-26.109-104.506-22.355-41.5 5.27-70.975 43.319-65.707 84.82a77.375 77.375 0 0 0 1.208 6.908c-24.598 13.253-48.929 31.649-68.55 57.159a585.466 585.466 0 0 0-10.263-23.622 581.396 581.396 0 0 0-11.668-23.802c.633-.513 1.273-1.01 1.897-1.54 42.706-36.311 47.911-100.595 11.602-143.302-26.227-30.85-68.536-55.556-125.751-73.434C44.17 4.479 9.986.238 8.551.064A7.512 7.512 0 0 0 2.79 1.796 7.497 7.497 0 0 0 .154 7.203C.095 8.647-1.218 43.068 5.016 86.886c8.442 59.346 26.02 105.078 52.248 135.926 20.081 23.619 48.716 35.767 77.527 35.767 17.738 0 35.539-4.621 51.453-13.99 3.578 6.967 7.029 14 10.316 21.113 17.504 37.884 30.913 77.86 39.853 118.817 12.199 55.885 13.258 102.573 12.115 119.456a7.501 7.501 0 0 0 7.49 8.016 7.501 7.501 0 0 0 7.475-6.985c.142-2.062 3.298-51.315-12.301-123.116a593.248 593.248 0 0 0-24.113-81.948c18.381-26.65 42.331-45.672 66.824-59.236 5.027 11.295 12.794 21.241 22.843 29.026 13.432 10.406 29.587 15.902 46.305 15.902 3.222 0 6.465-.204 9.713-.616h-.001c69.928-8.88 134.756-85.137 137.481-88.379a7.514 7.514 0 0 0 1.696-5.771zm-320.486 31.577a585.562 585.562 0 0 0-67.766-97.792 7.501 7.501 0 0 0-11.399 9.751 570.637 570.637 0 0 1 66.93 96.906c-35.672 21.378-82.72 14.493-110.528-18.212C18.77 154.381 15.032 46.886 15.028 16.189c30.296 4.941 135.79 25.922 185.711 84.639 30.776 36.199 26.551 90.571-9.285 121.617zm267.157 3.406c-21.714 17.877-54.562 40.073-87.74 44.286h-.001c-16.123 2.047-32.088-2.307-44.941-12.264-8.284-6.417-14.622-14.67-18.641-24.041 27.881-13.25 55.275-19.959 74.781-23.335a7.5 7.5 0 1 0-2.558-14.78c-19.984 3.458-47.806 10.253-76.414 23.521-.095-.604-.198-1.206-.276-1.816-4.228-33.295 19.42-63.823 52.715-68.049 4.298-.546 8.66-.798 13.063-.798 29.588 0 60.771 11.405 82.963 21.749 18.314 8.537 33.311 17.607 41.588 22.93-6.687 7.223-18.938 19.754-34.539 32.597z"/><path d="M101.37 99.983a623.875 623.875 0 0 0-8.375-8.587 7.5 7.5 0 0 0-10.635 10.577c2.751 2.767 5.5 5.585 8.168 8.376a7.478 7.478 0 0 0 5.422 2.317 7.502 7.502 0 0 0 5.42-12.683zM423.675 191.053h-.07c-.179.001-4.453.046-11.758.6a7.5 7.5 0 1 0 1.133 14.957c6.754-.512 10.729-.558 10.768-.558a7.5 7.5 0 0 0-.073-14.999z"/></svg>