<svg xmlns="http://www.w3.org/2000/svg" viewBox="0 0 512 512"><path d="M476.117 241.415a7.5 7.5 0 0 0 7.5-7.5v-24.731h14.432c7.692 0 13.951-6.258 13.951-13.951V164.27c0-7.693-6.258-13.951-13.951-13.951h-14.432v-34.08c0-6.304-2.27-12.403-6.391-17.172L450.354 67.97a11.128 11.128 0 0 0-8.426-3.854 11.132 11.132 0 0 0-8.426 3.854l-26.1 30.204a29.444 29.444 0 0 0-7.162 19.244v32.9h-32.304v-34.08c0-6.304-2.27-12.403-6.391-17.171l-26.871-31.096a11.13 11.13 0 0 0-8.429-3.855 11.125 11.125 0 0 0-8.424 3.855L291.72 98.175a29.446 29.446 0 0 0-7.162 19.244v32.9h-32.303v-34.08c0-6.303-2.27-12.402-6.392-17.171l-26.871-31.096a11.13 11.13 0 0 0-8.429-3.855 11.122 11.122 0 0 0-8.423 3.855l-26.1 30.203a29.442 29.442 0 0 0-7.163 19.245v32.9h-32.3v-34.08c0-6.303-2.27-12.402-6.392-17.171l-26.87-31.098a11.128 11.128 0 0 0-8.427-3.855 11.13 11.13 0 0 0-8.426 3.855l-26.1 30.203a29.442 29.442 0 0 0-7.163 19.245v32.9H37.05c-7.692 0-13.951 6.258-13.951 13.951v30.963c0 7.693 6.258 13.951 13.951 13.951h16.151v82.417H37.05c-7.692 0-13.951 6.258-13.951 13.951v30.962c0 7.692 6.258 13.951 13.951 13.951h16.151v36.758c-21.175 5.942-37.575 23.565-41.569 45.66H7.5a7.5 7.5 0 0 0-7.5 7.5 7.5 7.5 0 0 0 7.5 7.5h127.729a7.5 7.5 0 0 0 7.5-7.5 7.5 7.5 0 0 0-7.5-7.5H26.949c5.421-21.929 27.082-36.216 49.722-32.131 3.091.556 6.269 1.995 9.684-.717 1.564-1.227 1.868-2.381 3.905-5.833 17.379-29.305 51.718-43.123 84.205-34.56h.002c19.703 5.206 36.007 18.139 45.78 34.855.76 1.299 2.047 3.662 2.246 3.948a7.49 7.49 0 0 0 8.029 2.981c22.944-5.929 47.028 7.859 52.861 31.457H170.231a7.5 7.5 0 0 0-7.5 7.5 7.5 7.5 0 0 0 7.5 7.5h314.916a7.5 7.5 0 0 0 7.5-7.5 7.5 7.5 0 0 0-7.5-7.5h-1.53v-82.418h14.432c7.692 0 13.951-6.258 13.951-13.951v-30.962c0-7.692-6.258-13.951-13.951-13.951h-14.432v-22.684c0-4.142-3.357-7.5-7.5-7.5s-7.5 3.358-7.5 7.5v163.966h-53.374V117.42a14.44 14.44 0 0 1 3.512-9.437l23.175-26.82 23.946 27.713a11.26 11.26 0 0 1 2.74 7.363v117.675a7.5 7.5 0 0 0 7.501 7.501zm7.5-76.095h13.382v28.863h-13.382V165.32zM53.202 335.465H38.1v-28.863h15.102v28.863zm0-141.282H38.1V165.32h15.102v28.863zm68.375 154.397c-18.845 7.524-33.94 20.923-43.744 37.145a58.762 58.762 0 0 0-9.632-.672V117.42c0-3.464 1.247-6.815 3.513-9.437L94.89 81.165l23.946 27.711a11.26 11.26 0 0 1 2.741 7.362V348.58zm47.304-13.115h-32.303v-28.863h32.303v28.863zm0-43.864h-32.303v-82.417h32.303v82.417zm0-97.418h-32.303V165.32h32.303v28.863zm68.376 191.011c-2.245.156-3.762.396-4.762.532-10.699-17.695-27.615-31.926-48.613-38.937V117.42c0-3.464 1.247-6.815 3.513-9.437l23.174-26.819 23.946 27.712a11.26 11.26 0 0 1 2.741 7.363v268.955zm47.304 19.025c-8.365-9.226-19.625-15.744-32.303-18.145v-35.609h32.303v53.754zm0-68.754h-32.303v-28.863h32.303v28.863zm0-43.864h-32.303v-82.417h32.303v82.417zm0-97.418h-32.303V165.32h32.303v28.863zm68.375 238.7h-53.374V117.42a14.44 14.44 0 0 1 3.512-9.437l23.175-26.819 23.946 27.712a11.26 11.26 0 0 1 2.74 7.363v316.644zm47.305 0h-32.304v-82.418h32.304v82.418zm0-97.418h-32.303v-28.863h32.303v28.863zm0-43.864h-32.304v-82.417h32.304v82.417zm0-97.418h-32.303V165.32h32.303v28.863zm83.376 112.419h13.382v28.863h-13.382v-28.863z"/><path d="M94.89 163.778a7.5 7.5 0 0 0-7.5 7.5v8.473c0 4.142 3.357 7.5 7.5 7.5s7.5-3.358 7.5-7.5v-8.473a7.5 7.5 0 0 0-7.5-7.5zM94.89 309.296a7.5 7.5 0 0 0-7.5 7.5v8.473c0 4.142 3.357 7.5 7.5 7.5s7.5-3.358 7.5-7.5v-8.473a7.5 7.5 0 0 0-7.5-7.5zM210.57 163.778a7.5 7.5 0 0 0-7.5 7.5v8.473c0 4.142 3.357 7.5 7.5 7.5s7.5-3.358 7.5-7.5v-8.473a7.5 7.5 0 0 0-7.5-7.5zM210.57 309.296a7.5 7.5 0 0 0-7.5 7.5v8.473c0 4.142 3.357 7.5 7.5 7.5s7.5-3.358 7.5-7.5v-8.473a7.5 7.5 0 0 0-7.5-7.5zM326.249 163.778a7.5 7.5 0 0 0-7.5 7.5v8.473c0 4.142 3.357 7.5 7.5 7.5s7.5-3.358 7.5-7.5v-8.473a7.5 7.5 0 0 0-7.5-7.5zM326.249 309.296a7.5 7.5 0 0 0-7.5 7.5v8.473c0 4.142 3.357 7.5 7.5 7.5s7.5-3.358 7.5-7.5v-8.473a7.5 7.5 0 0 0-7.5-7.5zM441.929 163.778a7.5 7.5 0 0 0-7.5 7.5v8.473c0 4.142 3.357 7.5 7.5 7.5s7.5-3.358 7.5-7.5v-8.473a7.5 7.5 0 0 0-7.5-7.5zM441.929 309.296a7.5 7.5 0 0 0-7.5 7.5v8.473c0 4.142 3.357 7.5 7.5 7.5s7.5-3.358 7.5-7.5v-8.473a7.5 7.5 0 0 0-7.5-7.5z"/></svg>