<svg height="511pt" viewBox="-26 1 511 511.999" width="511pt" xmlns="http://www.w3.org/2000/svg"><path d="M390.668 336.23c-42.922-18.238-99.82-28.28-160.223-28.28-60.402 0-117.304 10.042-160.226 28.28C25.258 355.336.5 381.527.5 409.973c0 28.449 24.758 54.636 69.719 73.742C113.14 501.953 170.043 512 230.445 512c60.399 0 117.301-10.047 160.223-28.285 44.96-19.106 69.719-45.293 69.719-73.742 0-28.446-24.758-54.637-69.719-73.743zm-5.867 133.68c-41.106 17.469-95.926 27.086-154.356 27.086-58.433 0-113.254-9.617-154.36-27.086C37.583 453.55 15.5 431.703 15.5 409.973c0-21.727 22.082-43.575 60.586-59.934 41.105-17.469 95.926-27.09 154.36-27.09 58.429 0 113.25 9.621 154.355 27.09 38.504 16.36 60.586 38.207 60.586 59.934 0 21.73-22.082 43.578-60.586 59.937zm0 0M146.836 157.566h34.742l-28.14 41.579h-30.102v15.003h19.95l-12.563 18.567h69.21v63.215h15v-63.215h31.028v63.215h15v-63.215h69.21l-50.855-75.149h34.739l-46.461-68.664h23.015L230.45 0l-60.164 88.902h23.016zm83.613-130.8l31.895 47.136h-23.012l46.461 68.664h-34.738l50.855 75.149H158.984l40.703-60.149h37.372v-15h-61.957l36.312-53.664h13.922v-15H198.55zm0 0"/><path d="M101.895 278.023v31.914h15v-31.914h24.12v23.762h15.005v-23.762h28.687V263.02H70.336l43.223-63.875H84.03l39.496-58.36h-19.562l24.992-36.93 17.883 26.426 12.422-8.406-30.305-44.785-53.258 78.695h19.563L55.77 214.148h29.527L42.07 278.023zm0 0M327.395 269.422h-32.926l-16.727 16.723v12.078h15.004v-5.868l7.934-7.933h20.5l7.937 7.933v17.583h15v-3.282l6.906-6.91h12.196l6.91 6.91v11.176h15v-17.39l-15.695-15.696h-24.622l-1.046 1.047zm0 0M281.43 392.32c-.73 0-1.45-.007-2.145-.02l.281-15c.625.013 1.254.02 1.938.02 11.594 0 16.988-1.738 23.234-3.75 6.512-2.097 13.887-4.472 27.832-4.472 13.946 0 21.325 2.375 27.832 4.472 6.25 2.012 11.649 3.746 23.239 3.746v15.004c-13.946 0-21.325-2.375-27.836-4.472-6.246-2.012-11.645-3.75-23.235-3.75s-16.984 1.738-23.23 3.75c-6.512 2.097-13.89 4.472-27.832 4.472h-.078zm-13.004-.836c-6.172-.875-10.531-2.277-14.75-3.636l-.98-.313 4.577-14.285 1 .32c3.782 1.22 7.356 2.368 12.254 3.063zm-24.473-6.277c-3.937-.746-8.355-1.105-13.508-1.105v-15.004c6.094 0 11.426.449 16.29 1.367zm0 0M182.375 440.422c-13.941 0-21.32-2.375-27.832-4.473-6.246-2.011-11.645-3.75-23.23-3.75-.665 0-1.313.008-1.942.02l-.281-15c.719-.012 1.46-.02 2.222-.02 13.946 0 21.32 2.375 27.829 4.473 6.25 2.008 11.644 3.746 23.234 3.746 11.586 0 16.984-1.734 23.23-3.746 6.512-2.098 13.887-4.473 27.833-4.473v15c-11.59 0-16.985 1.739-23.235 3.75-6.508 2.098-13.887 4.473-27.828 4.473zm-102.125 0v-15.004c5.152 0 9.57-.36 13.508-1.102l2.785 14.739c-4.867.918-10.195 1.367-16.293 1.367zm26.828-4.152l-4.574-14.286.976-.312c4.22-1.36 8.579-2.762 14.75-3.637l2.102 14.856c-4.898.691-8.469 1.843-12.254 3.058zm0 0M276.586 207.031h-36.77v-15.004h36.77zm-46.77 0h-15v-15.004h15zm-25 0h-15v-15.004h15zm0 0"/><path d="M166.234 256.191H142.48v-15.004h23.754zm-33.754 0h-15v-15.004h15zm-25 0h-15v-15.004h15zm0 0"/></svg>