<svg height="512pt" viewBox="0 -53 512 511" width="512pt" xmlns="http://www.w3.org/2000/svg"><path d="M281 218.691c-39.5 0-71.637 32.133-71.637 71.633S241.5 361.961 281 361.961s71.637-32.137 71.637-71.637S320.5 218.691 281 218.691zm0 128.27c-31.23 0-56.637-25.406-56.637-56.637 0-31.226 25.407-56.633 56.637-56.633 31.227 0 56.637 25.407 56.637 56.633 0 31.23-25.41 56.637-56.637 56.637zm0 0"/><path d="M281 255.02c-19.469 0-35.305 15.835-35.305 35.304S261.531 325.63 281 325.63c19.465 0 35.305-15.836 35.305-35.305 0-19.465-15.84-35.304-35.305-35.304zm0 55.609c-11.195 0-20.305-9.106-20.305-20.305 0-11.195 9.106-20.304 20.305-20.304 11.195 0 20.305 9.109 20.305 20.304 0 11.2-9.11 20.305-20.305 20.305zm0 0M198.164 187.469c39.5 0 71.637-32.137 71.637-71.637s-32.137-71.633-71.637-71.633-71.633 32.133-71.633 71.633 32.133 71.637 71.633 71.637zm0-128.27c31.23 0 56.637 25.406 56.637 56.633 0 31.23-25.406 56.637-56.637 56.637-31.226 0-56.633-25.406-56.633-56.637 0-31.227 25.406-56.633 56.633-56.633zm0 0"/><path d="M198.164 151.137c19.469 0 35.305-15.836 35.305-35.305s-15.836-35.305-35.305-35.305-35.305 15.836-35.305 35.305 15.84 35.305 35.305 35.305zm0-55.61c11.195 0 20.305 9.11 20.305 20.305s-9.106 20.305-20.305 20.305c-11.195 0-20.305-9.106-20.305-20.305 0-11.195 9.11-20.305 20.305-20.305zm0 0M115.332 325.629c19.469 0 35.305-15.836 35.305-35.305 0-19.465-15.836-35.304-35.305-35.304s-35.305 15.835-35.305 35.304 15.836 35.305 35.305 35.305zm0-55.61c11.195 0 20.305 9.11 20.305 20.305 0 11.2-9.11 20.305-20.305 20.305s-20.305-9.106-20.305-20.305c0-11.195 9.11-20.304 20.305-20.304zm0 0"/><path d="M489.566 221.969a7.496 7.496 0 0 0-10.484-1.59 7.5 7.5 0 0 0-1.59 10.488C490.254 248.184 497 268.742 497 290.324c0 55.324-45.008 100.332-100.332 100.332H337.82c34.91-19.847 58.512-57.383 58.512-100.332 0-42.945-23.602-80.48-58.512-100.332h58.848c21.36 0 41.746 6.621 58.96 19.145 1.333.968 6.306 3.879 10.477-1.653 2.493-3.308 1.696-8.043-1.652-10.476-15.57-11.332-33.402-18.438-52.254-20.961 11.016-18.024 16.969-38.938 16.969-60.215C429.168 52.238 377.43.5 313.836.5H198.164c-23.57 0-46.238 7.066-65.555 20.434a7.495 7.495 0 0 0-1.898 10.433 7.495 7.495 0 0 0 10.434 1.899c16.792-11.621 36.511-17.766 57.02-17.766 55.323 0 100.331 45.008 100.331 100.332 0 21.512-6.687 41.93-19.328 59.184-34.57.543-65.496 16.367-86.3 41.007-25.348-1.316-48.977-12.043-66.731-30.343-18.25-18.82-28.301-43.625-28.301-69.848 0-23.254 8.133-45.918 22.906-63.816a7.5 7.5 0 0 0-1.012-10.559 7.5 7.5 0 0 0-10.558 1.012c-16.985 20.582-26.34 46.636-26.34 73.363 0 21.543 5.906 42.254 16.934 60.215C43.508 183.672 0 232.012 0 290.324c0 63.598 51.738 115.332 115.332 115.332h281.336c63.594 0 115.332-51.738 115.332-115.332 0-24.804-7.758-48.445-22.434-68.355zM254.988 15.5h58.848c55.32 0 100.332 45.008 100.332 100.332 0 21.574-6.66 41.93-19.297 59.16h-97.695c10.703-17.816 16.32-38.031 16.32-59.16 0-42.945-23.598-80.484-58.508-100.332zM15 290.324c0-53.52 42.121-97.383 94.957-100.187 1.73 2.047 20.348 28.554 72.703 39.992a115.158 115.158 0 0 0-9.156 18.41c-13.266-18.367-34.856-29.848-58.172-29.848-39.5 0-71.637 32.133-71.637 71.633 0 18.43 6.985 35.938 19.66 49.297 1.477 1.555 5.864 4.23 10.606.281 3.18-2.652 3.129-7.597.277-10.601-10.023-10.567-15.543-24.406-15.543-38.977 0-31.226 25.407-56.633 56.637-56.633 22.895 0 43.68 13.997 52.371 35.036-3.613 18.359-1.332 36.199 0 43.195-8.691 21.039-29.476 35.039-52.371 35.039a56.493 56.493 0 0 1-19.031-3.273 7.5 7.5 0 0 0-5.043 14.125 71.4 71.4 0 0 0 24.074 4.148c23.316 0 44.906-11.48 58.172-29.848a115.21 115.21 0 0 0 14.926 26.93c-18.946 20.168-45.23 31.617-73.098 31.617C60.008 390.656 15 345.648 15 290.324zm157.258 100.332a115.292 115.292 0 0 0 25.949-20.125 116.096 116.096 0 0 0 25.969 20.125zm8.406-100.332c0-55.32 45.012-100.332 100.336-100.332 55.32 0 100.332 45.012 100.332 100.332 0 55.324-45.012 100.332-100.332 100.332-55.324 0-100.336-45.008-100.336-100.332zm0 0"/></svg>