<svg xmlns="http://www.w3.org/2000/svg" viewBox="0 0 512 512"><circle cx="256" cy="256" r="256" fill="#7C9A3D"/><path d="M511.437 272.8L382.833 144.195 129.167 409.25 230.67 510.753A258.905 258.905 0 0 0 256 512c135.739 0 246.783-105.649 255.437-239.2z" fill="#628024"/><path fill="#495959" d="M325.887 87.25h-196.72v322h253.666V144.195z"/><path fill="#3f4a4a" d="M382.833 144.195L325.887 87.25h-70.316v322h127.262z"/><path fill="#495959" d="M129.17 87.25h126.4v322h-126.4z"/><path fill="#fff" d="M129.17 312.44h253.67v96.81H129.17z"/><g fill="#f0f0f0"><path d="M255.57 312.44h127.26v96.81H255.57zM325.888 144.195h56.945L325.887 87.25z"/></g><g fill="#495959"><path d="M219.846 342.939v26.775c0 2.324-.099 4.3-.296 5.927-.198 1.627-.645 3.277-1.342 4.95-1.163 2.813-3.08 5.003-5.753 6.572s-5.926 2.353-9.762 2.353c-3.463 0-6.351-.546-8.663-1.639-2.313-1.092-4.179-2.859-5.596-5.299-.744-1.301-1.349-2.801-1.813-4.497-.466-1.696-.697-3.312-.697-4.846 0-1.627.453-2.87 1.359-3.73.907-.86 2.068-1.29 3.486-1.29 1.371 0 2.405.396 3.103 1.185.697.79 1.232 2.022 1.604 3.696.396 1.79.791 3.219 1.186 4.288s1.058 1.987 1.987 2.754 2.255 1.15 3.975 1.15c4.579 0 6.868-3.358 6.868-10.075v-28.274c0-2.092.459-3.661 1.377-4.707s2.167-1.569 3.748-1.569c1.604 0 2.876.523 3.817 1.569.941 1.047 1.412 2.616 1.412 4.707zM250.909 368.738h-9.482v14.468c0 2.069-.488 3.638-1.464 4.707-.977 1.069-2.209 1.604-3.696 1.604-1.558 0-2.812-.529-3.765-1.586s-1.43-2.609-1.43-4.654v-39.395c0-2.278.523-3.905 1.568-4.881 1.047-.976 2.708-1.464 4.986-1.464h13.282c3.928 0 6.949.302 9.064.906 2.092.581 3.898 1.546 5.421 2.894 1.522 1.348 2.679 2.998 3.47 4.95.789 1.952 1.185 4.149 1.185 6.589 0 5.207-1.604 9.152-4.811 11.836-3.207 2.684-7.983 4.026-14.328 4.026zm-2.51-23.428h-6.973v15.619h6.973c2.44 0 4.479-.256 6.118-.767 1.639-.511 2.888-1.348 3.748-2.51.859-1.162 1.29-2.685 1.29-4.567 0-2.254-.663-4.09-1.987-5.508-1.488-1.511-4.545-2.267-9.169-2.267z"/></g><g fill="#3f4a4a"><path d="M268.864 346.286c-.791-1.952-1.947-3.602-3.47-4.95-1.522-1.348-3.329-2.313-5.421-2.894-1.181-.337-2.656-.577-4.402-.726v8.622c.83.334 1.507.741 1.997 1.238 1.324 1.418 1.987 3.254 1.987 5.508 0 1.883-.431 3.405-1.29 4.567-.664.897-1.566 1.596-2.694 2.105v8.699c4.074-.519 7.3-1.764 9.667-3.744 3.207-2.684 4.811-6.629 4.811-11.836 0-2.44-.396-4.636-1.185-6.589zM325.377 367.867v9.796c0 1.302-.128 2.342-.384 3.12-.256.779-.727 1.482-1.412 2.109-.686.628-1.563 1.232-2.632 1.813-3.091 1.673-6.066 2.894-8.925 3.661-2.858.767-5.974 1.15-9.344 1.15-3.928 0-7.507-.605-10.737-1.813-3.23-1.208-5.985-2.963-8.263-5.264s-4.026-5.09-5.247-8.367c-1.22-3.277-1.83-6.938-1.83-10.982 0-3.974.593-7.612 1.778-10.912 1.185-3.3 2.928-6.101 5.229-8.402s5.102-4.062 8.401-5.282 7.043-1.83 11.227-1.83c3.439 0 6.484.459 9.134 1.377 2.649.918 4.799 2.074 6.449 3.469s2.894 2.871 3.73 4.427c.837 1.557 1.255 2.94 1.255 4.149 0 1.302-.482 2.412-1.446 3.329-.965.918-2.121 1.377-3.469 1.377-.744 0-1.459-.174-2.145-.523s-1.261-.837-1.726-1.464c-1.278-1.999-2.359-3.509-3.242-4.532-.884-1.022-2.074-1.883-3.573-2.58s-3.411-1.046-5.735-1.046c-2.394 0-4.532.413-6.415 1.238a13.25 13.25 0 0 0-4.828 3.591c-1.337 1.569-2.359 3.492-3.068 5.77-.709 2.278-1.063 4.8-1.063 7.565 0 5.996 1.377 10.61 4.131 13.841 2.754 3.231 6.595 4.846 11.522 4.846 2.394 0 4.642-.314 6.746-.941 2.103-.628 4.235-1.522 6.397-2.685v-8.297h-8.019c-1.93 0-3.388-.29-4.376-.872-.988-.581-1.481-1.569-1.481-2.963 0-1.138.412-2.08 1.237-2.824.825-.743 1.947-1.115 3.364-1.115h11.749c1.441 0 2.661.128 3.661.383.999.256 1.807.825 2.423 1.708.618.884.927 2.209.927 3.975z"/></g><path fill="#6861ff" d="M129.167 312.443L231.06 202.302 268.558 241l57.329-60 56.946 60v71.443z"/><path fill="#5c5ce5" d="M382.833 241l-56.946-60-57.329 60-12.987-13.402v84.845h127.262z"/><circle cx="199.61" cy="154.76" r="39.04" fill="#ffec00"/><path d="M199.606 115.723c-.195 0-.388.012-.582.015v78.056c.194.003.387.015.582.015 21.563 0 39.043-17.48 39.043-39.043s-17.48-39.043-39.043-39.043z" fill="#f2d813"/></svg>