<svg height="640" viewBox="0 -72 480 480" width="640" xmlns="http://www.w3.org/2000/svg"><path d="M424 40h48a8 8 0 0 0 8-8V8a8 8 0 0 0-8-8h-72c-8.836 0-16 7.164-16 16v208h-32v-8h8a8 8 0 0 0 8-8v-16c0-13.254-10.746-24-24-24h-96c-13.254 0-24 10.746-24 24v16a8 8 0 0 0 8 8h8v8h-16a8.024 8.024 0 0 0-3.574.8l-64 32A7.997 7.997 0 0 0 152 264v9.137A31.62 31.62 0 0 0 132.45 320H120v-8a8 8 0 0 0-16 0v8H88v-8a8 8 0 0 0-16 0v8H56v-40a8 8 0 0 0-16 0v40H24v-16a8 8 0 0 0-16 0v16a8 8 0 0 0 0 16h464a8 8 0 0 0 0-16h-40.207A39.604 39.604 0 0 0 440 296a40.005 40.005 0 0 0-16-31.937zm-24-24h64v8h-48a8 8 0 0 0-8 8v192h-8zM240 192a8 8 0 0 1 8-8h96a8 8 0 0 1 8 8v8H240zm16 24h80v8h-80zm-88 52.945L225.887 240H408v16.8c-.297-.066-.61-.038-.902-.097A39.349 39.349 0 0 0 400 256c-2.555.02-5.098.29-7.602.8-.796.16-1.597.43-2.359.641-1.629.391-3.23.883-4.8 1.48-.88.352-1.704.798-2.551 1.192a41.892 41.892 0 0 0-4 2.153 59.28 59.28 0 0 0-2.399 1.672c-1.18.859-2.309 1.789-3.379 2.78a41.149 41.149 0 0 0-2.086 2.044 41.755 41.755 0 0 0-2.832 3.43c-.558.753-1.144 1.48-1.656 2.28a41.576 41.576 0 0 0-2.313 4.239c-.359.746-.8 1.45-1.093 2.219a39.668 39.668 0 0 0-2.075 6.664c0 .14-.093.27-.128.414h-173.04c-.175-.305-.421-.551-.609-.848a31.29 31.29 0 0 0-2.574-3.617c-.39-.473-.8-.91-1.2-1.36a31.65 31.65 0 0 0-3.16-2.937c-.382-.308-.738-.644-1.136-.941a31.274 31.274 0 0 0-4.871-2.992c-.297-.153-.61-.243-.914-.375a31.881 31.881 0 0 0-4.48-1.649c-.255-.074-.485-.21-.743-.273zM192 304h168.8a39.64 39.64 0 0 0 7.4 16H187.55a31.665 31.665 0 0 0 4.45-16zm-48 0a16 16 0 0 1 31.105-5.113c.606 1.636.907 3.367.895 5.113 0 8.836-7.164 16-16 16s-16-7.164-16-16zm232-8c0-13.254 10.746-24 24-24s24 10.746 24 24-10.746 24-24 24-24-10.746-24-24zm0 0"/><path d="M164.48 297.36c-.445-.301-.93-.544-1.44-.72a4.87 4.87 0 0 0-1.528-.48 8.192 8.192 0 0 0-7.2 2.16A8.366 8.366 0 0 0 152 304a8 8 0 0 0 16 0 8.41 8.41 0 0 0-2.32-5.68 13.452 13.452 0 0 0-1.2-.96zm0 0M394.32 290.32A8.374 8.374 0 0 0 392 296a7.916 7.916 0 0 0 11.04 7.36 7.187 7.187 0 0 0 4.32-4.32c.41-.962.628-1.993.64-3.04a7.995 7.995 0 0 0-4.934-7.434 7.996 7.996 0 0 0-8.746 1.754zm0 0"/></svg>