<svg xmlns="http://www.w3.org/2000/svg" viewBox="0 0 491 491" fill="#d0d0d0"><path d="M426.6 380.8c-32.7-10-77-17-125.8-20l76.5-114c42.1-62.9 33.9-146.8-19.5-200.4-61.8-61.8-162.3-61.8-224.1 0-53.5 53.6-61.6 137.4-19.6 200.3l76.5 114c-48.7 3-93 10-125.7 20-39.1 12-59 26.9-59 44.3 0 42.8 123.6 66 239.8 66s239.8-23.1 239.8-66c0-17.4-19.8-32.3-58.9-44.2zm-284.5-326c53.3-53.3 138.4-57.5 196.7-9.5 58.2 47.9 70.6 132.2 28.6 194.8L245.7 421.2 124.1 240.1c-38.9-58.2-31.4-135.7 18-185.3zm267.5 406.8C365.9 472.9 307.7 479 245.7 479s-120.2-6.2-163.9-17.4c-30.9-7.9-64-21.7-64-36.6 0-10.9 18.9-23.2 50.6-32.9 33.4-10.2 79.4-17.2 130-19.9l42.3 63c1.1 1.7 3 2.7 5 2.7s3.9-1 5-2.7l42.3-63c50.7 2.7 96.7 9.7 130.1 19.9 31.6 9.6 50.5 21.9 50.5 32.8 0 15-33.1 28.8-64 36.7z"/><path d="M245.7 236.5c44.7 0 80.8-36.2 80.8-80.8 0-44.7-36.2-80.8-80.8-80.8s-80.8 36.2-80.8 80.8c0 44.6 36.2 80.7 80.8 80.8zm0-149.7c38 0 68.9 30.8 68.9 68.9 0 38-30.8 68.9-68.9 68.9s-68.9-30.8-68.9-68.9c.1-38.1 30.9-68.9 68.9-68.9z"/></svg>