<svg height="454pt" viewBox="-81 0 454 454" width="454pt" xmlns="http://www.w3.org/2000/svg" fill="#d0d0d0"><path d="M42 308c0-68.816 52.148-125.676 119-133.156-4.98-.559-9.988-.84-15-.844-73.887 0-134 60.113-134 134s60.113 134 134 134c5.012-.004 10.02-.285 15-.844C94.148 433.676 42 376.816 42 308zm0 0" fill="#f6f6f6"/><g fill="#d0d0d0"><path d="M146 0C84.727.07 35.07 49.727 35 111v102.27A145.35 145.35 0 0 0 0 308c0 80.504 65.5 146 146 146s146-65.496 146-146a145.35 145.35 0 0 0-35-94.73V111C256.93 49.727 207.273.07 146 0zm0 12c54.652.063 98.938 44.348 99 99v89.8a147.049 147.049 0 0 0-18-14.198V111c0-44.734-36.266-81-81-81s-81 36.266-81 81v75.59a147.426 147.426 0 0 0-18 14.2V111c.063-54.652 44.348-98.938 99-99zm69 167.363a145.774 145.774 0 0 0-138 0V111c0-38.11 30.89-69 69-69s69 30.89 69 69zM146 442c-73.887 0-134-60.113-134-134s60.113-134 134-134 134 60.113 134 134-60.113 134-134 134zm0 0"/><path d="M166.73 408.738a103.25 103.25 0 0 1-20.73 2.09c-3.313 0-6 2.688-6 6 0 3.317 2.688 6 6 6 7.77.004 15.523-.777 23.137-2.332a6.002 6.002 0 0 0-2.407-11.758zm0 0M186.977 402.344a5.99 5.99 0 0 0-3.696 4.832c-.265 2.16.664 4.297 2.426 5.578s4.082 1.504 6.055.59c41.945-18.23 69.074-59.61 69.066-105.344 0-3.313-2.683-6-6-6-3.312 0-6 2.688-6 6 .008 40.957-24.289 78.016-61.851 94.344zm0 0M152 199.172c0-3.317-2.688-6-6-6-6.988 0-13.965.629-20.84 1.887a6.006 6.006 0 0 0-4.691 3.867 6.002 6.002 0 0 0 6.855 7.933A103.654 103.654 0 0 1 146 205.172c3.313 0 6-2.688 6-6zm0 0M101.3 202.2C58.759 220.132 31.118 261.831 31.173 308c0 3.313 2.683 6 6 6 3.312 0 6-2.688 6-6-.05-41.348 24.703-78.691 62.805-94.75a6.003 6.003 0 0 0 1.355-10.383 6.009 6.009 0 0 0-6.031-.668zm0 0"/></g><path d="M146 374.625c8.832-.012 15.988-7.168 16-16v-22.016a26.001 26.001 0 1 0-32 0v22.016c.012 8.832 7.168 15.988 16 16zm0-72.5a13.998 13.998 0 0 1 7 26.117 6.002 6.002 0 0 0-3 5.195v25.188c0 2.21-1.79 4-4 4s-4-1.79-4-4v-25.188a6.002 6.002 0 0 0-3-5.195 13.998 13.998 0 1 1 7-26.117zm0 0"/></svg>