<svg height="656" viewBox="0 -41 492.001 492" width="656" xmlns="http://www.w3.org/2000/svg" fill="#d0d0d0"><path d="M78.3 66.254c.016-13.39 10.864-24.238 24.255-24.254H480v-5.746c-.016-13.39-10.863-24.238-24.25-24.254H72.555c-13.387.016-24.239 10.863-24.254 24.254v147.398a127.215 127.215 0 0 1 30-17.68zm0 0" fill="#f6f6f6"/><path d="M455.75 0H72.555C52.543.023 36.325 16.238 36.3 36.254v160.59h12V36.254C48.316 22.864 59.168 12.016 72.555 12H455.75c13.387.016 24.234 10.863 24.25 24.254v219.723c-.012 13.39-10.863 24.242-24.25 24.257H247.98v12h207.77c20.012-.023 36.23-16.242 36.25-36.257V36.254C491.977 16.242 475.762.024 455.75 0zm0 0"/><path d="M365.953 252.766c18.883 9.078 41.535 3.898 54.594-12.485s13.058-39.617 0-56-35.711-21.562-54.594-12.484c-18.883-9.078-41.535-3.899-54.594 12.484s-13.058 39.617 0 56 35.711 21.563 54.594 12.485zm19.461-73.403a32.926 32.926 0 0 1 29.711 18.68 32.92 32.92 0 1 1-37.2 46.293 44.814 44.814 0 0 0 0-64.098 32.864 32.864 0 0 1 7.49-.879zm-32.922 32.922a32.897 32.897 0 0 1 13.461-26.531 32.875 32.875 0 0 1 0 53.062 32.888 32.888 0 0 1-13.46-26.535zm-38.922 0a32.906 32.906 0 0 1 12.457-25.797 32.897 32.897 0 0 1 27.953-6.254 44.825 44.825 0 0 0 0 64.098 32.881 32.881 0 0 1-27.953-6.254 32.906 32.906 0 0 1-12.457-25.797zm0 0M241.871 54.863H81.781c-3.316 0-6 2.684-6 6 0 3.313 2.684 6 6 6h160.09c3.316 0 6-2.687 6-6 0-3.316-2.684-6-6-6zm0 0M280.953 66.863c3.317 0 6-2.687 6-6 0-3.316-2.683-6-6-6h-17.336c-3.312 0-6 2.684-6 6 0 3.313 2.688 6 6 6zm0 0M81.781 97.117h7.477c3.316 0 6-2.687 6-6 0-3.316-2.684-6-6-6H81.78c-3.316 0-6 2.684-6 6 0 3.313 2.684 6 6 6zm0 0M111.652 85.117c-3.312 0-6 2.684-6 6 0 3.313 2.688 6 6 6h99.965c3.317 0 6-2.687 6-6 0-3.316-2.683-6-6-6zm0 0M227.367 91.117c0 3.313 2.684 6 6 6h47.586c3.317 0 6-2.687 6-6 0-3.316-2.683-6-6-6h-47.586c-3.316 0-6 2.684-6 6zm0 0"/><path d="M127.008 156.25C56.863 156.25 0 213.113 0 283.258c0 70.144 56.863 127.008 127.008 127.008 70.144 0 127.012-56.864 127.012-127.008-.083-70.113-56.899-126.93-127.012-127.008zm0 242.016C63.492 398.266 12 346.773 12 283.258c0-63.52 51.492-115.008 115.008-115.008 63.52 0 115.012 51.492 115.012 115.008-.075 63.488-51.524 114.937-115.012 115.008zm0 0"/><path d="M178.223 247.3l-72.41 58.91L76.57 271.97a5.997 5.997 0 0 0-8.437-.64 6 6 0 0 0-.688 8.433l33.043 38.695a5.998 5.998 0 0 0 8.352.758l76.96-62.606a5.999 5.999 0 0 0 .868-8.441 5.998 5.998 0 0 0-8.441-.867zm0 0"/></svg>