<svg xmlns="http://www.w3.org/2000/svg" viewBox="0 0 512 512"><path d="M512 256c0 19.508-2.184 38.494-6.311 56.738a254.304 254.304 0 0 1-32.496 78.817 248.15 248.15 0 0 1-1.943 3.072C425.681 465.251 346.3 512 256 512S86.319 465.251 40.751 394.627c-19.822-30.699-33.249-65.912-38.4-103.769a256.423 256.423 0 0 1-2.215-26.624A239.652 239.652 0 0 1 0 256c0-24.9 3.553-48.964 10.177-71.722a252.129 252.129 0 0 1 9.415-26.645 254.152 254.152 0 0 1 21.159-40.26C86.319 46.749 165.7 0 256 0s169.681 46.749 215.249 117.373a255.218 255.218 0 0 1 25.59 51.618 256.203 256.203 0 0 1 8.004 26.645 251.66 251.66 0 0 1 4.953 26.645A257.12 257.12 0 0 1 512 256z" fill="#f4a14e"/><path d="M471.249 127.76v266.867C425.681 465.251 346.3 512 256 512S86.319 465.251 40.751 394.627V22.8c0-12.591 10.209-22.8 22.8-22.8H343.49l127.759 127.76z" fill="#f9eed7"/><path d="M343.489 104.958V0l127.76 127.76H366.291c-12.593 0-22.802-10.209-22.802-22.802z" fill="#e8dbc4"/><path d="M471.249 330.961v63.666C425.681 465.251 346.3 512 256 512S86.319 465.251 40.751 394.627v-63.666h430.498z" fill="#ff525d"/><path d="M157.375 292.967c-3.474 0-6.921-.547-10.187-1.678-8.463-2.934-13.871-9.302-14.841-17.473-1.317-11.103 5.306-29.586 44.334-54.589a195.182 195.182 0 0 1 34.413-17.492c1.162-2.198 2.351-4.438 3.558-6.711 8.945-16.848 19.331-36.411 27.596-55.402-15.258-30.061-21.671-58.182-21.671-66.936 0-15.46 8.68-27.819 20.639-29.387 4.811-.632 21.117-.425 28.887 28.714 4.785 17.942-1.38 41.91-11.673 66.958a208.813 208.813 0 0 0 9.479 15.702c7.666 11.499 16.328 22.537 25.247 32.441 37.765.227 67.003 9.163 74.427 13.943 10.572 6.809 14.857 18.342 10.662 28.7-5.549 13.703-20.603 15.948-31.812 13.707-16.191-3.238-34.248-17.427-46.544-28.758a265.02 265.02 0 0 1-12.978-12.842c-18.743.422-41.758 3.244-65.516 11.696a743.794 743.794 0 0 0-5.553 10.76c-2.391 5.244-21.103 45.772-33.678 58.348-6.644 6.645-15.807 10.299-24.789 10.299zm43.218-70.537a176.183 176.183 0 0 0-16.02 9.116c-37.601 24.088-38 38.004-37.699 40.549.296 2.493 2.014 4.302 5.105 5.373 5.426 1.88 13.981.718 19.841-5.141 8.231-8.233 22.08-35.7 28.773-49.897zm107.445-20.066c15.452 14.531 30.458 24.596 41.264 26.756 9.163 1.835 14.013-1.469 15.385-4.854 1.497-3.698-.474-7.981-5.025-10.91-4.279-2.754-24.216-9.082-51.624-10.992zm-56.908-46.798c-6.247 13.416-13.238 26.834-19.949 39.513 14.801-4.077 29.376-6.35 43.204-7.348-6.683-8.035-12.988-16.454-18.647-24.943a212.904 212.904 0 0 1-4.608-7.222zm-7.506-97.793c-.172 0-.342.01-.508.032-3.806.498-7.911 6.33-7.911 14.881 0 3.494 2.029 14.9 7.474 30.631a237.957 237.957 0 0 0 6.957 17.737c6.246-17.614 9.422-33.685 6.332-45.271-3.349-12.558-8.51-18.01-12.344-18.01z" fill="#5c5e70"/><g fill="#f9eed7"><path d="M135.128 366.165c0-3.319 3.053-6.239 7.7-6.239h27.479c17.523 0 31.328 8.231 31.328 30.532v.664c0 22.302-14.337 30.798-32.656 30.798h-13.142v28.673c0 4.248-5.177 6.372-10.355 6.372-5.176 0-10.354-2.124-10.354-6.372v-84.428zm20.71 11.814v28.011h13.142c7.433 0 11.947-4.247 11.947-13.275v-1.46c0-9.027-4.513-13.275-11.947-13.275l-13.142-.001zM256.464 359.926c18.319 0 32.656 8.496 32.656 31.328v34.382c0 22.833-14.337 31.328-32.656 31.328h-23.497c-5.442 0-9.027-2.921-9.027-6.239v-84.56c0-3.319 3.585-6.239 9.027-6.239h23.497zm-11.814 18.053v60.932h11.815c7.433 0 11.947-4.248 11.947-13.275v-34.382c0-9.027-4.513-13.275-11.947-13.275H244.65zM315.541 366.297c0-4.247 4.513-6.372 9.027-6.372h46.064c4.38 0 6.239 4.646 6.239 8.894 0 4.912-2.256 9.16-6.239 9.16h-34.381v22.435h20.045c3.983 0 6.239 3.85 6.239 8.098 0 3.584-1.858 7.833-6.239 7.833h-20.045v34.249c0 4.247-5.177 6.372-10.355 6.372-5.176 0-10.354-2.124-10.354-6.372v-84.296h-.001z"/></g></svg>