<svg height="656" viewBox="-10 0 492 492.011" width="656" xmlns="http://www.w3.org/2000/svg" xmlns:xlink="http://www.w3.org/1999/xlink" fill="#d0d0d0"><path d="M455.953 228c0-92.215-55.55-175.355-140.75-210.645C230.008-17.934 131.941 1.57 66.73 66.781c-78.242 78.309-88.949 201.5-25.378 292.13 63.566 90.628 183.039 122.515 283.312 75.609l-1.941 46.054c0 .113-.004.227-.004.34a11.099 11.099 0 0 0 6.41 10.086 10.882 10.882 0 0 0 11.754-1.7l43.07-37.109 43.086 37.121A10.862 10.862 0 0 0 438.777 491a11.104 11.104 0 0 0 6.41-10.09c0-.11 0-.223-.003-.336l-4.13-98c35.786-30.469 41.25-83.703 12.407-120.808A230.905 230.905 0 0 0 455.953 228zm-228 212c-116.898 0-212-95.098-212-212 0-116.898 95.102-212 212-212s212 95.102 212 212c0 6.39-.3 12.79-.863 19.145a87.402 87.402 0 0 0-55.074-19.47 89.022 89.022 0 0 0-24.063 3.364v-64.117a8.059 8.059 0 0 0-5.61-7.613l-115.898-37.371a8.094 8.094 0 0 0-4.925 0l-115.946 37.37a8.066 8.066 0 0 0-5.62 7.614v158.156a8.055 8.055 0 0 0 5.609 7.613l115.898 37.371a8.06 8.06 0 0 0 4.934 0l64.257-20.718a88.43 88.43 0 0 0 24.2 33.234l-1.418 33.715A212.309 212.309 0 0 1 227.954 440zm68.063-124.324a87.916 87.916 0 0 0 1.91 18.39l-57.973 18.688V211.406l104-33.5v59.461c-29.562 14.871-48.14 45.219-47.937 78.309zM127.953 177.91l96 30.918v141.344l-96-30.918zm108 17.977l-89.808-28.965 89.808-28.961 89.809 28.96zm192.754 273.746l-37.336-32.172a10.801 10.801 0 0 0-14.836 0L339.2 469.633l3.219-76.395a87.854 87.854 0 0 0 83.07 0zm-44.754-81.957c-39.765 0-72-32.235-72-72s32.235-72 72-72 72 32.234 72 72c-.043 39.746-32.254 71.957-72 72zm0 0"/><path d="M419.605 280.93l-47.261 47.257-24.016-24.25a8.002 8.002 0 0 0-11.371 11.258l29.676 30.2a8.218 8.218 0 0 0 5.664 2.605h.012a8.238 8.238 0 0 0 5.664-2.578l52.945-53.063a8.036 8.036 0 0 0 .059-11.37c-3.122-3.16-8.215-3.184-11.372-.06zm0 0"/></svg>