<svg xmlns="http://www.w3.org/2000/svg" viewBox="0 0 95.332 79.615"><defs><linearGradient id="a" y1=".659" x2="1" y2=".665" gradientUnits="objectBoundingBox"><stop offset="0" stop-color="#039b7e"/><stop offset="1" stop-color="#86dc21"/></linearGradient></defs><g data-name="Group 1"><path data-name="Union 1" d="M-28.939-22.529c-8.022-.312-14.256-3.446-18.528-9.312C-55.1-42.328-54.2-58.986-51.1-70.066c5.282-18.886 17.8-32.076 30.434-32.076a17.419 17.419 0 0 1 2.354.16 2.5 2.5 0 0 1 1.75 1.1 2.5 2.5 0 0 1 .319 2.046l-2.3 8.23a2.5 2.5 0 0 1-2.04 1.8C-31.11-87.238-36.4-73.341-38.595-65.287a21.93 21.93 0 0 1 8.752-1.793 25.264 25.264 0 0 1 6.979 1.019A22.227 22.227 0 0 1-9.529-55.587 22.043 22.043 0 0 1-7.5-38.736a22.247 22.247 0 0 1-21.34 16.209zm-48.626 0c-8.023-.313-14.256-3.446-18.529-9.313-7.636-10.485-6.728-27.143-3.627-38.223 5.281-18.886 17.8-32.076 30.433-32.076a17.439 17.439 0 0 1 2.354.16 2.5 2.5 0 0 1 1.75 1.1 2.5 2.5 0 0 1 .319 2.046l-2.3 8.23a2.5 2.5 0 0 1-2.04 1.8c-10.53 1.567-15.815 15.464-18.015 23.518a21.926 21.926 0 0 1 8.752-1.793 25.265 25.265 0 0 1 6.98 1.019 22.229 22.229 0 0 1 13.334 10.473 22.031 22.031 0 0 1 2.032 16.851 22.246 22.246 0 0 1-21.345 16.209z" transform="rotate(180 -3.334 -11.263)" fill="url(#a)"/></g></svg>