<svg height="640" viewBox="0 0 480 480" width="640" xmlns="http://www.w3.org/2000/svg" fill="#d0d0d0"><linearGradient id="a" gradientUnits="userSpaceOnUse" x1="240" x2="240" y1="480"><stop offset="0" stop-color="#d0d0d0"/><stop offset=".056" stop-color="#d0d0d0"/><stop offset=".137" stop-color="#d0d0d0"/><stop offset=".235" stop-color="#d0d0d0"/><stop offset=".344" stop-color="#d0d0d0"/><stop offset=".462" stop-color="#d0d0d0"/><stop offset=".497" stop-color="#d0d0d0"/><stop offset="1" stop-color="#d0d0d0"/></linearGradient><path d="M240 480c132.547 0 240-107.453 240-240S372.547 0 240 0 0 107.453 0 240c.148 132.484 107.516 239.852 240 240zm0-464c123.71 0 224 100.29 224 224S363.71 464 240 464 16 363.71 16 240c.14-123.652 100.348-223.86 224-224zm0 360a144.607 144.607 0 0 0 115.922-58.809 8.018 8.018 0 0 0 1.375-6.398c-9.297-42.41-40.684-76.543-82.168-89.352 23.644-15.527 34.293-44.73 26.187-71.832-8.101-27.097-33.03-45.668-61.316-45.668s-53.215 18.57-61.316 45.668c-8.106 27.102 2.543 56.305 26.187 71.832-41.476 12.809-72.863 46.93-82.168 89.336a8.018 8.018 0 0 0 1.375 6.399A144.6 144.6 0 0 0 240 376zm-48-208c0-26.508 21.492-48 48-48s48 21.492 48 48-21.492 48-48 48c-26.5-.027-47.973-21.5-48-48zm48 64c47.578.2 89.016 32.52 100.8 78.617a127.632 127.632 0 0 1-201.664 0C150.927 264.497 192.399 232.172 240 232zm0 0" fill="url(#a)"/></svg>