<svg xmlns="http://www.w3.org/2000/svg" viewBox="0 0 512 512"><circle cx="256" cy="256" r="256" fill="#05cdff"/><path d="M511.476 239.81l-99.979-99.979h-92.973l-32.542-32.542-185.479 32.542v232.337L239.81 511.476c5.355.334 10.75.524 16.19.524 141.385 0 256-114.615 256-256 0-5.44-.19-10.834-.524-16.19z" fill="#0485bd"/><g fill="#1e2d64"><path d="M100.503 372.169l185.479 32.542V107.29l-185.479 32.541zM295.01 139.83H411.5v232.34H295.01z"/></g><g fill="#fff"><path d="M216.823 271.524l-14.26-57.096h-16.79l-15.639 58.376-12.276-58.611h-17.429l24.844 83.614h13.661l14.486-59.401 14.485 59.401h13.661l27.638-83.614h-17.665zM295.01 166.45h100.57v22.601H295.01zM295.01 205.57h100.57v22.601H295.01zM295.01 244.7h100.57v22.601H295.01zM295.01 283.82h100.57v22.601H295.01zM295.01 322.95h100.57v22.601H295.01z"/></g></svg>