<svg xmlns="http://www.w3.org/2000/svg" viewBox="0 0 512 512"><path d="M511.344 274.266c.426-6.035.656-12.123.656-18.266C512 114.615 397.385 0 256 0S0 114.615 0 256c0 117.769 79.53 216.949 187.809 246.801l323.535-228.535z" fill="#fdcc77"/><path d="M511.344 274.266L314.991 77.913 119.096 434.087l68.714 68.714C209.522 508.787 232.385 512 256 512c135.243 0 245.976-104.875 255.344-237.734z" fill="#fcb433"/><path fill="#fff" d="M278.328 333.913l-22.617-256H119.096v233.739z"/><path fill="#e8e6e6" d="M392.904 311.652V155.826l-55.652-22.261-22.261-55.652h-59.28l.356 256z"/><path fill="#fff" d="M314.991 155.826V77.913l77.913 77.913z"/><path fill="#9e7120" d="M119.096 311.652h273.809v122.435H119.096z"/><g fill="#fff"><path d="M210.927 388.691h28.759v10.671h-46.771v-8.627l28.38-33.677H193.9v-10.671h45.332v8.627l-28.305 33.677zM249.075 399.362v-52.975h13.471v52.975h-13.471zM298.118 346.387c13.546 0 21.341 6.659 21.341 18.465 0 12.412-7.796 19.601-21.341 19.601h-9.612v14.909h-13.471v-52.975h23.083zm-9.613 27.471h8.93c5.904 0 9.307-2.952 9.307-8.552 0-5.525-3.405-8.324-9.307-8.324h-8.93v16.876z"/></g></svg>