<svg version="1" id="Layer_1" xmlns="http://www.w3.org/2000/svg" viewBox="0 0 1000 1000" width="1000" height="1000"><style>.st0{fill:#7c9a3d}.st1{fill:#d52727}.st2{fill:#625a5a}.st3{fill:#065a2e}</style><switch><g><path class="st0" d="M775.2 889.4c-7.1 5-14.3 9.9-21.7 14.5-2.5-4.2-5.1-8.3-7.7-12.4 9.8-1.2 19.6-1.9 29.4-2.1zM831.4 842.4c-9 8.9-18.3 17.3-27.7 25.2-24-2-47.9-1-71.8 3-6.1-8.6-12.6-17.1-19.3-25.4 38.6-8.3 79-9.4 118.8-2.8zM871.8 798.6c-6.7 8.3-13.7 16.5-20.9 24.4-51.8-11.1-105.2-9.8-155.5 2.9-7.3-8-14.9-15.7-22.7-23.2 34.6-10.5 70.4-15.7 106.8-15.7 31.2-.1 62.2 3.8 92.3 11.6zM902.2 753.9c-5.2 8.6-10.7 16.8-16.4 24.8-34.5-9.7-70.3-14.6-106.3-14.6-42.8 0-84.9 6.9-125.2 20.5-8.2-7.2-16.8-14.3-25.7-21 48.1-18.5 98.8-27.9 150.9-27.9 41.7 0 83 6.1 122.7 18.2zM524.9 976.5c-7.7.4-15.4.5-23.1.6h-6l-11.3-.3c-43.4-38.1-99-59.1-157-59.1-15.9 0-31.8 1.6-47.5 4.8-11.8-6.3-23.5-13.1-34.8-20.3 26.5-8.6 54-12.9 82.3-12.9 76.2 0 146.9 31.6 197.4 87.2z"/><path class="st0" d="M585 969.4c-10.7 1.9-21.4 3.5-32.3 4.7-55.2-68.4-136.8-107.6-225.1-107.6-37 0-73.1 7-107.2 20.6-8.8-6.4-17.4-12.9-25.8-19.9 41.8-19.3 86.5-29.2 133-29.2 102.7.1 197.7 48.9 257.4 131.4z"/><path class="st0" d="M638.5 956.6c-9.6 2.9-19.3 5.5-29.1 7.8-63.6-93.5-168.3-149-281.8-149-52.5 0-102.8 11.7-149.7 34.6-7.1-6.6-14.1-13.7-21.2-21.2 52.6-27.4 111.4-41.8 170.9-41.8 125.5-.1 243.4 64.5 310.9 169.6z"/><path class="st0" d="M733.8 915.6c-23.2 13.1-47.6 24.4-73.1 33.6-71.2-114.4-198-185.1-333.2-185.1-66 0-131.2 16.8-188.9 48.5-47-54.3-82.1-119.1-100.9-190.6 48.5 41.4 145.4 62.4 289.9 62.4 164.3 0 322.5 90.5 406.2 231.2zM327.6 940.6c41 0 80.7 11.6 114.8 33.1-44.1-5.2-86.4-16.4-125.9-32.8 3.7-.2 7.5-.3 11.1-.3z"/><g><path class="st1" d="M219.7 348.1L120.2 135c-.2-.4-.6-.6-1-.6h-6.6c-.4 0-.8.2-1 .6L12.2 348.1c-.2.3-.1.7.1 1 .2.3.5.5.9.5H63c.4 0 .8-.3 1-.7l15.6-37.7h71.5l15.6 37.7c.2.4.6.7 1 .7h51c.4 0 .7-.2.9-.5.3-.3.3-.7.1-1zm-85-76.5H96.1l19.4-46.9 19.2 46.9z"/><path class="st1" d="M350.5 212.8h-36.6c-2.4 0-4.3 1.9-4.3 4.3v6.5c-9.7-8.5-21.2-12.8-34.4-12.8-16.7 0-31.8 6.7-44.6 19.9-12.9 13.2-19.4 30.3-19.4 50.8 0 20.5 6.4 37.2 19 49.6 12.6 12.4 28.2 18.7 46.4 18.7 14.4 0 27-4.3 37.8-12.7-1.4 7.6-4.5 13.5-9.3 17.6-7 5.9-16.7 9-29 9-12.4 0-24.3-4.3-35.5-12.8-1-.8-2.3-1.1-3.6-.8-1.2.3-2.3 1.1-2.9 2.2L220 379.8c-1 1.9-.4 4.1 1.2 5.4 8 6.1 17.4 10.9 28 14.2 10.5 3.3 21 4.9 31.1 4.9 19.3 0 36.2-5.7 50.4-17 7.4-5.6 13.3-13.4 17.7-23.1 4.3-9.6 6.5-20.7 6.5-33V217.1c-.1-2.3-2-4.3-4.4-4.3zm-66.8 97.8c-7.6 0-13.9-2.7-19.2-8.3-5.4-5.6-8-12.9-8-22.3 0-9.3 2.6-16.3 8.1-21.5 5.5-5.3 11.8-7.8 19.3-7.8s13.5 2.5 18.6 7.7c5.1 5.2 7.6 12.3 7.6 21.7 0 9.4-2.5 16.7-7.6 22.3-5.1 5.5-11.2 8.2-18.8 8.2zM503.5 227.8h-71.6v-44.6h83.7c.6 0 1.1-.5 1.1-1.1v-45c0-.6-.5-1.1-1.1-1.1H381.8c-.6 0-1.1.5-1.1 1.1v211.4c0 .6.5 1.1 1.1 1.1h49c.6 0 1.1-.5 1.1-1.1v-75.6h71.6c.6 0 1.1-.5 1.1-1.1v-43c0-.6-.5-1-1.1-1zM578.2 220c-40.4 0-68.5 27.1-68.5 65.9s28.2 65.9 68.5 65.9c40.2 0 68.3-27.1 68.3-65.9S618.4 220 578.2 220zm0 98c-15.3 0-24-11.7-24-32.1s8.8-32.1 24-32.1c15.1 0 23.7 11.7 23.7 32.1s-8.6 32.1-23.7 32.1zM703.1 136.1h-42.7c-.6 0-1.1.5-1.1 1.1v211.4c0 .6.5 1.1 1.1 1.1h42.7c.6 0 1.1-.5 1.1-1.1V137.1c-.1-.6-.6-1-1.1-1zM808.5 283.1l49.9-59c.3-.3.3-.8.2-1.1-.2-.4-.6-.6-1-.6h-50.2c-.3 0-.7.2-.9.4L769 272.6V137.1c0-.6-.5-1.1-1.1-1.1h-42.7c-.6 0-1.1.5-1.1 1.1v211.4c0 .6.5 1.1 1.1 1.1h42.7c.6 0 1.1-.5 1.1-1.1V295l39.6 54.2c.2.3.5.4.9.4h50.2c.4 0 .8-.2 1-.6.2-.4.1-.8-.1-1.1l-52.1-64.8z"/><path class="st1" d="M922.4 270.1c-10.6-2.8-19-5.1-19-10.2 0-4 4.8-6.7 11.9-6.7 10.2 0 23.9 4.2 36.7 11.1.3.2.6.2.9.1.3-.1.5-.4.6-.7l10.4-30.6c.2-.5-.1-1-.5-1.3-14.3-7.5-31.5-11.9-46.1-11.9-31.9 0-54.1 17.8-54.1 43.2 0 26.8 24.3 33.2 42 37.8 10.1 2.7 18.8 4.9 18.8 10 0 4.7-4.7 7.3-13.3 7.3-11.3 0-27-5.9-40-15.1-.3-.2-.6-.2-.9-.2-.3.1-.6.3-.7.6l-13.6 30.6c-.2.5 0 1 .4 1.3 16.9 10.8 35.3 16.3 54.8 16.3 32.9 0 55.9-16.9 55.9-41.2-.1-28.6-25.6-35.4-44.2-40.4z"/></g><g><path class="st2" d="M598.1 468.8c1.5.1 2.8.2 3.9.2 6.6 0 12.5-.8 17.6-2.3 5.1-1.5 9.5-3.7 13.3-6.3 3.7-2.6 6.9-5.7 9.4-9.2 2.5-3.5 4.5-7.2 5.9-11 1.5-3.9 2.5-7.9 3.2-12 .6-4.1.9-8 .9-11.7 0-3.8-.6-7.4-1.7-10.7-1.2-3.3-3.1-6.3-5.7-8.7-2.6-2.4-6-4.4-10.2-5.8-4.1-1.4-9.2-2.1-15.1-2.1-1.1 0-2.5.1-4.2.2-1.7.1-3.4.2-5.2.3-1.8.1-3.5.2-5.2.3-1.7.1-3.2.1-4.4.1H589l-1.1 4.4.6.3c1.2.5 2.5 1 3.9 1.5 1.2.4 2.5.8 3.9 1.1l-13.4 63.5c-3.3.5-6.4 1.4-9.3 2.6l-.4.2-.8 4.5h11.3c1.4 0 2.9.1 4.5.2l5 .3c1.8-.1 3.4 0 4.9.1zm-3.8-7.3l13.4-64.8c1-.1 2.3-.2 3.9-.3 2-.1 3.9-.1 5.8-.1 4.4 0 8.1.5 10.9 1.5 2.8 1 5 2.4 6.6 4.1 1.6 1.7 2.7 3.7 3.3 6.1.6 2.4 1 5 1 7.8 0 5.5-.6 11.1-1.7 16.6-1.1 5.5-3.1 10.4-5.8 14.8-2.7 4.3-6.4 7.9-10.8 10.6-4.5 2.7-10.2 3.9-16.8 3.9-.3 0-.8.1-1.7 0-.8 0-1.8-.1-2.8-.1l-3.2-.1c-1 .1-1.6 0-2.1 0zM663.2 468.6c2 0 4.1-.4 6.3-1.1 2.1-.8 4-1.7 5.6-3l.3-.2v-4h-7.9l10.1-47.6.1-.5-2.6-1.7h-.2c-1.1 0-2.3.1-3.6.4-1.3.3-2.7.6-4.2.9-1.5.4-2.9.8-4.3 1.3s-2.6.9-3.8 1.4l-.5.2v3.9l6.8 1.1-7.5 34.5c-.4 1.7-.7 3.2-.9 4.6-.2 1.4-.3 2.9-.3 4.4 0 1.4.5 2.7 1.6 3.8.9 1.1 2.6 1.6 5 1.6zM674.2 400.3c2.2 0 4-.6 5.3-1.7 1.3-1.2 2-2.8 2-4.8 0-2.1-.7-3.8-2-5-1.3-1.2-3.1-1.8-5.3-1.8-2.1 0-3.8.6-5.1 1.8-1.3 1.2-2 2.9-2 5 0 2 .7 3.7 2 4.8 1.3 1.1 3 1.7 5.1 1.7zM720.3 424.7l.4-.4c.6-.6 1.1-1.4 1.6-2.4s.9-2.1 1.3-3.2.7-2.2 1-3.3c.2-1.1.3-2 .3-2.7v-.4l-.4-.2c-.9-.5-1.9-.9-3-1.1-4.7-.9-9.3.4-13.3 4.2-2.2 2.1-4.3 4.7-6 7.9l2.3-10.7-2.9-1.7h-.3c-2.2.2-4.7.6-7.4 1.3-2.7.6-5.4 1.5-7.9 2.7l-.4.2v3.9l6.5 1L682 468h10.9l6.7-31c1.8-4.9 3.9-8.9 6.2-11.7 2.1-2.7 4.1-4.4 5.8-5.2l8.7 4.6zM720.5 449c0 6.3 1.7 11.3 5.1 14.9 3.4 3.6 8.2 5.4 14.5 5.4 2.5 0 4.8-.3 7-1 2.2-.6 4.1-1.5 5.9-2.6 1.7-1.1 3.2-2.3 4.5-3.7 1.3-1.4 2.3-2.8 3-4.2l.2-.4-2.5-3-.6.5c-.7.6-1.6 1.2-2.5 1.9-.9.7-2 1.4-3.2 2-1.2.6-2.4 1.2-3.7 1.6-1.3.4-2.6.6-3.9.6-4.1 0-7.1-1.3-9.2-3.9-2.1-2.6-3.2-6.1-3.2-10.2 0-1.1.1-2.2.2-3.3.1-1 .2-1.9.5-3 11.2-.9 19.5-2.9 24.6-5.8 5.4-3.1 8.1-7.5 8.1-12.9 0-3.7-1.4-6.6-4.1-8.5-2.6-1.9-5.8-2.8-9.4-2.8-4.7 0-9 1-12.9 3-3.8 2-7.1 4.8-9.8 8.3-2.7 3.5-4.8 7.6-6.2 12.2-1.7 4.7-2.4 9.7-2.4 14.9zm28.2-18.2c-3.6 2-8.7 3.2-15.1 3.5 1.8-6.2 4-10.7 6.4-13.3 2.5-2.7 5.3-4.1 8.2-4.1 2.4.1 4 .6 4.8 1.7.8 1.2 1.2 2.4 1.2 3.8 0 3.6-1.8 6.4-5.5 8.4zM784.9 469.3c2.5 0 4.9-.3 7-1 2.1-.6 4.1-1.5 5.8-2.6 1.7-1.1 3.2-2.3 4.5-3.7 1.3-1.3 2.3-2.7 3.2-4.2l.3-.4-2.4-3.1-.6.5c-.7.6-1.6 1.2-2.5 2-.9.7-1.9 1.4-3.1 2-1.1.6-2.3 1.2-3.6 1.6-1.3.4-2.6.6-4.1.6-3.4 0-6-1.1-7.9-3.2-1.9-2.2-2.9-5.7-2.8-10.5-.1-4.7.5-9 1.7-12.7 1.2-3.7 2.7-6.9 4.6-9.5 1.9-2.6 4-4.6 6.3-6 2.2-1.3 4.4-2 6.7-2.2l7.6 7.8.5-.2c.8-.3 1.5-1 2.2-1.9.7-.8 1.2-1.8 1.6-2.8.4-1 .7-2 .9-3.1.2-1 .3-2 .2-2.9v-.3l-.2-.2c-1-.9-2.4-1.6-4.3-2.1-1.8-.5-4.1-.7-7-.7-4.5 0-8.9 1-12.9 3.1-4 2-7.5 4.9-10.4 8.4-2.9 3.5-5.3 7.7-7 12.3-1.7 4.7-2.6 9.7-2.6 15.1 0 6.1 1.6 10.9 4.9 14.5 3.3 3.6 7.8 5.4 13.4 5.4zM837.6 463.8c1.4-1 2.4-2 3.1-3l.3-.4-1.8-3-.6.3c-1.7.9-3.6 1.6-5.6 2.3-2 .7-3.9 1-5.6 1-1.1 0-2.2-.4-3.1-1.1-.9-.7-1.3-1.9-1.3-3.5 0-.8.1-1.8.2-2.8.1-1 .4-2.2.6-3.6l6.7-30.9h13.3l.2-.4c.6-1 1-2 1.2-3.1.2-1.1.2-2.1 0-3.1l-.1-.6h-13.2l2.5-11.6-3.1-1.8-.3.1c-1.5.6-2.9 1.2-4.2 1.8-1.4.6-2.6 1.4-3.7 2.2l-.2.2-1.7 8.1c-1.5.4-3 .9-4.5 1.5-1.7.7-3.2 1.5-4.7 2.3l-.4.2-.2 4.2h8.2l-7 33.2c-.3 1.3-.5 2.6-.7 3.9-.2 1.3-.3 2.4-.3 3.5 0 3.3 1 5.7 3 7.3 1.9 1.6 4.6 2.3 8 2.3 1.7 0 3.4-.3 5.3-.8 1.8-.5 3.6-1.2 5.3-2 1.6-.8 3.1-1.7 4.4-2.7zM517.2 561.2c-1.7.9-3.6 1.6-5.6 2.3-2 .7-3.9 1-5.6 1-1.1 0-2.2-.4-3.1-1.1-.9-.7-1.3-1.9-1.3-3.5 0-.8.1-1.8.2-2.8.1-1 .4-2.2.6-3.6l6.7-30.9h13.3l.2-.4c.6-1 1-2 1.2-3.1.2-1.1.2-2.1 0-3.1l-.1-.6h-13.2l2.5-11.6-3-1.8-.3.1c-1.5.6-2.9 1.2-4.2 1.8-1.4.6-2.6 1.4-3.7 2.2l-.2.2-1.7 8.1c-1.5.4-3 .9-4.5 1.5-1.7.7-3.2 1.5-4.7 2.3l-.4.2-.2 4.2h8.2l-7 33.2c-.3 1.3-.5 2.6-.7 3.9-.2 1.3-.3 2.4-.3 3.5 0 3.3 1 5.7 3 7.3 1.9 1.6 4.6 2.3 8 2.3 1.7 0 3.4-.3 5.3-.8 1.8-.5 3.6-1.2 5.3-2 1.7-.8 3.2-1.7 4.5-2.7 1.4-1 2.4-2 3.1-3l.3-.4-1.8-3-.8.3zM552.4 514.1c-5 0-9.5 1.2-13.3 3.5-3.8 2.3-7 5.3-9.5 8.8-2.5 3.6-4.4 7.5-5.6 11.8-1.2 4.2-1.8 8.4-1.8 12.3 0 7.4 1.7 13 5.1 16.7 3.4 3.8 8.1 5.7 13.9 5.7 4.3 0 8.3-1 11.9-3.1 3.6-2 6.6-4.8 9.1-8.2 2.5-3.4 4.5-7.4 5.9-11.9 1.4-4.5 2.1-9.2 2.1-14 0-7-1.5-12.4-4.5-16-3-3.8-7.5-5.6-13.3-5.6zm-9.2 52.4c-3 0-5.3-1.2-7-3.7-1.8-2.5-2.7-5.9-2.7-10 0-3.1.3-6.6.8-10.4.5-3.8 1.4-7.3 2.7-10.6 1.3-3.2 3-5.9 5.2-8.1 2.1-2.1 4.9-3.2 8.2-3.3 2.9.1 5 1.3 6.4 3.6 1.4 2.5 2.1 5.8 2.1 9.9 0 4-.4 8-1.1 11.9-.8 3.9-1.8 7.5-3.2 10.5-1.4 3-3 5.5-5 7.4-2 1.9-4 2.8-6.4 2.8zM654.6 512.2c1.1-3 2.1-6 2.9-9 .8-3 1.6-5.9 2.2-8.8l.2-.9h-52.8l-1 4.3.5.3c1 .5 2.1 1 3.4 1.5 1.1.4 2.2.7 3.4 1.1L600 564.3c-1.3.3-2.6.6-3.9 1-1.5.4-2.9 1-4.2 1.6l-.4.2-.8 4.5H620l.8-4.4-.5-.3c-2.6-1.2-5.3-2.1-8.2-2.6l5.6-26.9h17.9l2.4 8.4h3.9l.2-.5c1-3.3 2-7.1 2.8-11.2s1.5-7.8 1.8-11l.1-.9h-4l-6 8.1h-17.7l6.2-29.6h23.1l1.9 12h4.1l.2-.5zM703.1 514.1c-3.2 0-6.3.7-9.2 2.2-1.4-.6-2.6-1.1-3.7-1.4-1.2-.3-2.7-.5-4.6-.5-5.1 0-9.8 1.2-13.9 3.5-4 2.3-7.5 5.5-10.3 9.3-2.8 3.8-5 8.3-6.4 13.2-1.5 4.9-2.2 10-2.2 15.1 0 11.4 4.1 17.3 12.1 17.3 2.7 0 5.2-.7 7.6-2.2 2.3-1.4 4.5-3.3 6.4-5.5 1.9-2.2 3.6-4.7 5-7.5.5-.9.9-1.7 1.3-2.6-.4 2.1-.8 3.9-1 5.5-.5 3.1-.8 5.2-.8 6.6 0 1.2.5 2.4 1.6 3.4 1.1 1.1 2.8 1.6 5.1 1.6 2 0 4.1-.4 6.3-1.2 2.1-.8 4-1.8 5.5-3l.3-.2v-3.9h-7.8l9.8-49.8h-1.1zm-26.3 9.6c2.6-2 5.5-2.9 8.7-2.9 1.6 0 2.8.1 3.7.4.7.2 1.5.6 2.3 1.1l-3.4 18c-.8 1.9-1.9 4.2-3.3 7s-2.9 5.5-4.6 8.1c-1.7 2.5-3.5 4.8-5.5 6.6-1.8 1.7-3.6 2.6-5.4 2.6-1.9 0-3.3-.8-4.1-2.5-.9-1.9-1.3-4.7-1.3-8.2 0-3.8.5-7.7 1.6-11.6 1-3.9 2.5-7.5 4.4-10.7 2-3.3 4.3-5.9 6.9-7.9zM814.5 514.1c-2.5 0-4.9.7-7.2 2s-4.4 2.9-6.4 4.9c-2 2-3.9 4.2-5.5 6.7-.6.8-1.1 1.7-1.6 2.5.3-1.8.5-3.6.5-5.2 0-2.1-.2-3.9-.7-5.3-.5-1.4-1.1-2.5-1.8-3.4-.7-.9-1.6-1.5-2.6-1.8-.9-.3-1.9-.5-2.9-.5-2.5 0-4.9.7-7.4 2.2-2.4 1.4-4.6 3.2-6.7 5.3-2.1 2.1-3.9 4.4-5.5 6.8-.5.8-1 1.7-1.5 2.5l3.7-15.1-3-1.7h-.2c-2.1 0-4.6.4-7.4 1.1-2.8.7-5.5 1.7-7.9 2.9.1-.7.2-1.4.2-1.9v-.4l-.4-.2c-.9-.5-1.9-.9-3-1.1-4.8-.9-9.3.4-13.3 4.2-2.2 2.1-4.3 4.7-6 7.9l2.3-10.7-2.9-1.7h-.3c-2.2.2-4.7.6-7.4 1.3-2.7.6-5.4 1.5-7.9 2.7l-.4.2v3.9l6.5 1-10.2 48.4h10.9l6.7-31c1.8-4.9 3.9-8.9 6.2-11.7 2.1-2.7 4.1-4.4 5.8-5.2l8.8 4.6.4-.4c.6-.6 1.1-1.4 1.6-2.4s.9-2.1 1.3-3.2c.3-.7.4-1.5.6-2.2v2.2l6.5 1-10.2 48.4h11l5.9-28.3c.9-2.2 2-4.6 3.4-7 1.4-2.4 2.9-4.7 4.6-6.8 1.6-2.1 3.3-3.8 5-5.1 3.1-2.4 5.8-2.3 6.7-.8.5.9.8 2.1.8 3.6 0 2.2-.2 4.3-.5 6.4-.4 2.1-.8 4.2-1.3 6.5l-7.1 31.6H785l6.8-28.4c.9-2.1 2-4.5 3.3-6.9 1.3-2.4 2.8-4.7 4.4-6.8 1.6-2 3.3-3.8 5-5.1 1.7-1.3 3.3-1.9 4.9-1.9 1.4 0 2.2.4 2.6 1.3.5 1 .8 2.5.9 4.2-.1 1.2-.3 2.7-.7 4.6-.4 1.9-.8 3.7-1.3 5.4l-5.1 19.9c-1 3.8-1.6 6.8-1.6 8.9 0 1.5.5 2.8 1.4 3.9.9 1.1 2.6 1.7 5 1.7 2 0 4.1-.4 6.3-1.1 2.2-.8 4.1-1.7 5.6-3l.3-.2v-4h-7.9l6.8-25.7 1.4-6.7c.4-2.1.7-4.4.7-6.8 0-3.2-.8-5.8-2.3-7.7-1.7-2.4-4-3.3-7-3.3zM870.6 516.9c-2.6-1.9-5.8-2.8-9.4-2.8-4.7 0-9 1-12.9 3-3.8 2-7.1 4.8-9.8 8.3-2.7 3.5-4.8 7.6-6.2 12.2-1.5 4.6-2.2 9.6-2.2 14.9 0 6.3 1.7 11.3 5.1 14.9 3.4 3.6 8.2 5.4 14.5 5.4 2.5 0 4.8-.3 7-1 2.2-.6 4.1-1.5 5.9-2.6 1.7-1.1 3.2-2.3 4.5-3.7 1.3-1.4 2.3-2.8 3-4.2l.2-.4-2.5-3-.6.5c-.7.6-1.6 1.2-2.5 1.9-.9.7-2 1.4-3.2 2-1.2.6-2.4 1.2-3.7 1.6-1.3.4-2.6.6-3.9.6-4.1 0-7.1-1.3-9.2-3.9-2.1-2.6-3.2-6.1-3.2-10.2 0-1.1.1-2.2.2-3.3.1-1 .2-1.9.5-3 11.2-.9 19.5-2.9 24.6-5.8 5.4-3.1 8.1-7.5 8.1-12.9-.2-3.7-1.6-6.6-4.3-8.5zm-12.3 17.4c-3.6 2-8.7 3.2-15.1 3.5 1.8-6.2 4-10.7 6.4-13.3 2.5-2.7 5.3-4.1 8.2-4.1 2.4.1 4 .6 4.8 1.7.8 1.2 1.2 2.4 1.2 3.8 0 3.6-1.8 6.4-5.5 8.4zM915.1 527.8c.6-.6 1.1-1.4 1.6-2.4s.9-2.1 1.3-3.2.7-2.2 1-3.3c.2-1.1.3-2 .3-2.7v-.4l-.4-.2c-.9-.5-1.9-.9-3-1.1-4.7-.9-9.3.4-13.3 4.2-2.2 2.1-4.3 4.7-6 7.9l2.3-10.7-2.9-1.7h-.3c-2.2.2-4.7.6-7.4 1.3-2.7.6-5.4 1.5-7.9 2.7l-.4.2v3.9l6.5 1-10.2 48.4h10.9l6.7-31c1.8-4.9 3.9-8.9 6.2-11.7 2.1-2.7 4.1-4.4 5.8-5.2l8.8 4.6.4-.6zM954.1 517c-2.2-1.3-4.5-2.1-7-2.4-2.4-.3-4.6-.5-6.5-.5-3 0-5.9.4-8.4 1.1-2.6.7-4.8 1.8-6.7 3.1-1.9 1.4-3.4 3.1-4.4 5.2-1.1 2.1-1.6 4.5-1.6 7.2s.5 5.1 1.4 7.1c.9 1.9 2.2 3.6 3.6 5.1 1.4 1.4 3 2.8 4.6 4 1.6 1.2 3.1 2.3 4.5 3.5 1.4 1.1 2.5 2.3 3.4 3.5.8 1.1 1.3 2.5 1.3 4.1-.1 1.5-.5 2.8-1.1 3.8-.7 1.1-1.6 2-2.7 2.7-1.1.7-2.4 1.3-3.8 1.6-1.3.3-2.7.5-4.1.5l-10.1-9.2-.5.5c-1.7 1.6-2.8 3.4-3.4 5.3-.5 1.8-1 3.7-1.3 5.6l-.1.5.4.3c1.5 1 3.6 1.8 6.2 2.5 2.6.6 5.4 1 8.5 1 3.1 0 6.1-.4 8.9-1.1 2.8-.7 5.3-1.9 7.4-3.3 2.2-1.5 3.9-3.3 5.1-5.4 1.3-2.1 1.9-4.6 1.9-7.4 0-2.7-.5-5-1.5-7-1-1.9-2.2-3.6-3.6-5.1-1.4-1.4-3-2.8-4.6-3.9-1.6-1.1-3.1-2.3-4.5-3.4-1.3-1.1-2.5-2.4-3.4-3.7-.8-1.2-1.3-2.7-1.3-4.4 0-1.5.2-2.7.7-3.6.5-.9 1.1-1.7 2-2.3.9-.6 1.9-1 3.1-1.3 1.1-.3 2.4-.4 3.7-.5l8.2 8.4.5-.2c.8-.4 1.5-1 2.2-2 .6-.9 1.2-1.8 1.6-2.8.5-1 .9-2.1 1.2-3.2.3-1.1.5-2.1.5-3v-.4l-.3-.5z"/></g><g><path class="st3" d="M500 24c127.2 0 246.7 49.5 336.6 139.4 12.4 12.4 24 25.5 34.9 39 7.1-3.9 15.1-6.8 23.7-8.7a502.11 502.11 0 0 0-41.7-47.3C759.1 52 633.6 0 500 0 369.9 0 247.4 49.4 153.8 139.3l10.7 23C254.3 73.1 373.4 24 500 24zM978.4 353.9c-5.6 6.1-12.5 11.4-20.4 15.6 11.9 41.9 18 85.7 18 130.5 0 83.4-21.3 163.5-61.3 234.1-43.8-14-89.2-21.1-135.2-21.1-60.3 0-118.7 12-173.7 35.4-41.9-28.4-88.1-50.4-136.5-65.3V546.7l-88.4-64.4H262.2l-3.7-2.7-92.1 67.1v102.6c-5.9-1-11.6-2.2-17.3-3.5h.3V468.1c0-24.2-19.8-43.9-44.1-43.9s-44.1 19.7-44.1 43.9v142.8c-14.7-10.5-25.6-22.9-31.7-37.8-3.7-24-5.6-48.4-5.6-73.1 0-41.7 5.4-82.6 15.7-121.9H14.9C5.1 417.5 0 458.4 0 500c0 133.6 52 259.1 146.4 353.6C240.9 948 366.4 1000 500 1000c133.6 0 259.1-52 353.6-146.4C948 759.1 1000 633.6 1000 500c0-50.2-7.4-99.3-21.6-146.1zM745.8 891.5c9.4-1.2 18.8-1.9 28.2-2.1-6.8 4.8-13.8 9.5-20.8 13.9-2.5-3.9-4.9-7.8-7.4-11.8zm56.8-24c-23.7-1.9-47.2-.9-70.8 3-6.1-8.6-12.6-17.1-19.3-25.4 38.5-8.2 78.7-9.3 118.3-2.9-9.1 8.9-18.5 17.3-28.2 25.3zm47.3-44.7c-51.5-10.8-104.5-9.6-154.4 3.1-7.3-8-14.9-15.7-22.7-23.2 34.6-10.5 70.4-15.7 106.8-15.7 30.9 0 61.6 3.9 91.4 11.5-6.8 8.2-13.8 16.3-21.1 24.3zm-70.4-87.1c41.7 0 82.9 6.1 122.7 18.2-5.2 8.6-10.7 16.8-16.4 24.8-34.5-9.7-70.3-14.6-106.3-14.6-42.8 0-84.9 6.9-125.2 20.5-8.2-7.2-16.8-14.3-25.7-21 48.2-18.6 98.8-27.9 150.9-27.9zM373.4 505l73 53.2v118.5c-31.3-8-63.4-12.8-95.9-14.4V546.7L293.4 505h80zm-184.2 53.2l69.3-50.5 69.3 50.5v103.5h-.1c-10.9 0-22-.2-33.2-.4v-30.6l-36-26.3-36 26.3v26.4c-11.3-1.1-22.4-2.4-33.3-4v-94.9zm82.4 84v18.3c-8.8-.4-17.6-.9-26.3-1.5v-16.8l13.2-9.6 13.1 9.6zM84 468.1c0-11.7 9.5-21.2 21.3-21.2 11.7 0 21.2 9.5 21.2 21.2v6.1H84v-6.1zm0 28.9h42.5v58.9H84V497zm0 81.6h42.5v61.6c-15.4-4.4-29.8-9.7-42.5-15.8v-45.8zm243.6 105.8c164.1 0 322 90.2 405.9 230.6-23.4 13.2-47.9 24.4-73.2 33.4C589 834.5 462.5 764.1 327.6 764.1c-65.5 0-130 16.5-187.4 47.7C92.6 757 58.7 693 40.2 624.1c49.4 40.1 145.4 60.3 287.4 60.3zm281.3 279.2c-63.7-93-168.1-148.2-281.3-148.2-52.5 0-102.8 11.7-149.7 34.6-7.1-6.6-14.1-13.7-21.2-21.2 52.6-27.4 111.4-41.8 170.9-41.8 125.2 0 242.8 64.4 310.4 168.9-9.6 2.8-19.3 5.4-29.1 7.7zm-57 9.6c-55.2-67.8-136.5-106.7-224.3-106.7-36.4 0-71.9 6.8-105.6 20-8.8-6.3-17.4-13-25.8-20 41.4-18.8 85.4-28.4 131.4-28.4 102.3 0 197 48.5 256.8 130.5-10.7 1.9-21.6 3.4-32.5 4.6zm-232.4-32.4c2.7-.1 5.4-.2 8.1-.2 40.2 0 79 11.1 112.6 31.8-41.7-5.3-82.3-15.9-120.7-31.6zM500 976c-5.6 0-11.2-.1-16.7-.3-43.2-37.4-98.2-57.9-155.7-57.9-15.8 0-31.6 1.6-47.3 4.8-4.5-2.3-9-4.7-13.4-7.2-1-.6-2-1.1-3-1.7-.9-.5-1.8-1.1-2.7-1.6-5.4-3.1-10.6-6.4-15.9-9.7 26.5-8.6 54-12.9 82.3-12.9 75.5 0 145.8 31.1 196.3 86.1-7.9.2-15.9.4-23.9.4z"/></g></g></switch></svg>