<svg xmlns="http://www.w3.org/2000/svg" xmlns:xlink="http://www.w3.org/1999/xlink" width="180" height="50.949" viewBox="0 0 180 50.949">
  <defs>
    <clipPath id="clip-path">
      <rect id="Rectangle_4" data-name="Rectangle 4" width="179.987" height="50.949" fill="none"/>
    </clipPath>
    <clipPath id="clip-path-2">
      <rect id="Rectangle_5" data-name="Rectangle 5" width="180" height="50.949" fill="none"/>
    </clipPath>
  </defs>
  <g id="Logo" transform="translate(-112.844 -513.604)">
    <g id="Group_2" data-name="Group 2" transform="translate(112.855 513.604)">
      <g id="Group_1" data-name="Group 1" clip-path="url(#clip-path)">
        <path id="Path_1" data-name="Path 1" d="M152,553.908,133.241,513.72a.2.2,0,0,0-.182-.116h-1.251a.2.2,0,0,0-.184.116l-18.76,40.188a.2.2,0,0,0,.011.193.2.2,0,0,0,.171.092h9.407a.2.2,0,0,0,.187-.123l2.94-7.11h13.489l2.938,7.11a.2.2,0,0,0,.187.123h9.627a.2.2,0,0,0,.182-.285m-16.036-14.419h-7.283l3.667-8.841Z" transform="translate(-112.855 -513.604)" fill="#fff"/>
      </g>
    </g>
    <g id="Group_4" data-name="Group 4" transform="translate(112.844 513.604)">
      <g id="Group_3" data-name="Group 3" clip-path="url(#clip-path-2)">
        <path id="Path_2" data-name="Path 2" d="M156.228,520.55h-6.895a.814.814,0,0,0-.814.814v1.227a9.56,9.56,0,0,0-6.493-2.409,11.476,11.476,0,0,0-8.42,3.763,13.208,13.208,0,0,0-3.656,9.576,12.608,12.608,0,0,0,3.575,9.359,12.032,12.032,0,0,0,8.753,3.52A11.217,11.217,0,0,0,149.4,544a5.537,5.537,0,0,1-1.745,3.309,8.2,8.2,0,0,1-5.471,1.69,10.981,10.981,0,0,1-6.7-2.409.816.816,0,0,0-1.216.279l-2.666,5.194a.813.813,0,0,0,.23,1.018,16.915,16.915,0,0,0,5.284,2.681,19.765,19.765,0,0,0,5.874.933,14.887,14.887,0,0,0,9.5-3.2,11.016,11.016,0,0,0,3.329-4.36,15.175,15.175,0,0,0,1.22-6.217V521.364a.814.814,0,0,0-.814-.814M143.634,538.98a4.751,4.751,0,0,1-3.614-1.562,5.791,5.791,0,0,1-1.5-4.2,5.321,5.321,0,0,1,1.518-4.055,5.036,5.036,0,0,1,3.643-1.475,4.658,4.658,0,0,1,3.507,1.455,5.579,5.579,0,0,1,1.424,4.1,5.9,5.9,0,0,1-1.439,4.207,4.573,4.573,0,0,1-3.537,1.529" transform="translate(-92.413 -505.749)" fill="#fff"/>
        <path id="Path_3" data-name="Path 3" d="M167.679,531.046h-13.5v-8.407h15.786a.2.2,0,0,0,.2-.2v-8.483a.2.2,0,0,0-.2-.2H144.73a.2.2,0,0,0-.2.2v39.863a.2.2,0,0,0,.2.2h9.245a.2.2,0,0,0,.2-.2V539.551h13.5a.2.2,0,0,0,.2-.2v-8.1a.2.2,0,0,0-.2-.2" transform="translate(-75.002 -513.427)" fill="#fff"/>
        <path id="Path_4" data-name="Path 4" d="M168.533,520.964c-7.61,0-12.927,5.115-12.927,12.438s5.317,12.438,12.927,12.438c7.579,0,12.872-5.115,12.872-12.438s-5.293-12.438-12.872-12.438m0,18.49c-2.879,0-4.529-2.205-4.529-6.052s1.65-6.052,4.529-6.052c2.844,0,4.474,2.205,4.474,6.052s-1.63,6.052-4.474,6.052" transform="translate(-61.77 -504.814)" fill="#fff"/>
        <path id="Path_5" data-name="Path 5" d="M176.718,513.753h-8.049a.2.2,0,0,0-.2.2v39.861a.2.2,0,0,0,.2.2h8.049a.2.2,0,0,0,.2-.2V513.955a.2.2,0,0,0-.2-.2" transform="translate(-46.409 -513.426)" fill="#fff"/>
        <path id="Path_6" data-name="Path 6" d="M189.951,541.474l9.409-11.13a.2.2,0,0,0,.029-.215.2.2,0,0,0-.182-.119h-9.462a.207.207,0,0,0-.162.081l-7.088,9.416V513.953a.2.2,0,0,0-.2-.2h-8.047a.2.2,0,0,0-.2.2v39.863a.2.2,0,0,0,.2.2h8.047a.2.2,0,0,0,.2-.2v-10.1l7.467,10.215a.2.2,0,0,0,.162.083h9.462a.2.2,0,0,0,.182-.114.2.2,0,0,0-.024-.213Z" transform="translate(-39.748 -513.426)" fill="#fff"/>
        <path id="Path_7" data-name="Path 7" d="M197.96,530.425c-2.006-.533-3.59-.957-3.59-1.918,0-.757.9-1.266,2.245-1.266a15.687,15.687,0,0,1,6.919,2.1.2.2,0,0,0,.171.011.2.2,0,0,0,.116-.123l1.957-5.765a.2.2,0,0,0-.1-.243A19.742,19.742,0,0,0,197,520.965c-6.01,0-10.208,3.346-10.208,8.141,0,5.052,4.584,6.256,7.93,7.136,1.9.5,3.544.933,3.544,1.891,0,.886-.9,1.374-2.517,1.374a14.619,14.619,0,0,1-7.553-2.844.2.2,0,0,0-.3.083l-2.556,5.765a.2.2,0,0,0,.077.25,18.864,18.864,0,0,0,10.333,3.076c6.2,0,10.533-3.19,10.533-7.759,0-5.438-4.808-6.719-8.319-7.654" transform="translate(-26.281 -504.812)" fill="#fff"/>
      </g>
    </g>
  </g>
</svg>
