<svg id="Layer_35" enable-background="new 0 0 64 64" height="512" viewBox="0 0 64 64" width="512" xmlns="http://www.w3.org/2000/svg" xmlns:xlink="http://www.w3.org/1999/xlink"><linearGradient id="SVGID_1_" gradientUnits="userSpaceOnUse" x1="32" x2="32" y1="63.102" y2="1"><stop offset="0" stop-color="#065a2e"/><stop offset="1" stop-color="#7D9A3D"/></linearGradient><path d="m54 54c2.757 0 5-2.243 5-5s-2.243-5-5-5-5 2.243-5 5 2.243 5 5 5zm0-8c1.654 0 3 1.346 3 3s-1.346 3-3 3-3-1.346-3-3 1.346-3 3-3zm3.737-33.246 1.148-2.396-5.245-5.244-2.395 1.148c-2.042-1.298-4.276-2.221-6.654-2.75l-.883-2.512h-7.417l-.884 2.513c-2.378.529-4.611 1.452-6.654 2.75l-2.395-1.148-5.245 5.244 1.148 2.396c-1.298 2.042-2.221 4.276-2.75 6.654l-2.511.883v5.53l-2-.923-14 6.461v10.322c0 9.087 5.331 17.418 13.581 21.226l.419.194.419-.193c4.492-2.073 8.24-5.583 10.638-9.908h11.585c1.722 5.337 6.696 9 12.357 9 6.751 0 12.313-5.065 12.938-11.774.042-.405.063-.813.063-1.227s-.021-.822-.061-1.218c-.351-3.768-2.256-7.016-5.053-9.142l1-1-1.148-2.395c1.298-2.042 2.221-4.276 2.75-6.654l2.512-.883v-7.416l-2.513-.884c-.529-2.378-1.452-4.612-2.75-6.654zm-42.737 48.139c-7.306-3.567-12-11.056-12-19.21v-9.043l12-5.538 12 5.538v9.043c0 1.112-.111 2.221-.283 3.317h-7.717v-1.262c1.864-1.302 3-3.45 3-5.738 0-3.859-3.14-7-7-7s-7 3.141-7 7c0 2.288 1.136 4.437 3 5.738v13.262h8v-4h4.756c-2.116 3.381-5.167 6.14-8.756 7.893zm10-36.893c0-8.271 6.729-15 15-15s15 6.729 15 15c0 4.745-2.275 9.222-6.083 12.046-2.635.219-5.073 1.238-7.052 2.832-.616.077-1.24.122-1.865.122-4.182 0-8.164-1.761-11-4.824v-2.816l-2.682-1.238c-.865-1.929-1.318-3.984-1.318-6.122zm3.991 17.874c1.979 1.221 4.129 2.104 6.417 2.614l.18.512h-6.852c.149-1.036.246-2.079.255-3.126zm8.685 3.034-.759-2.157-.562-.109c-2.516-.489-4.859-1.458-6.966-2.879l-.389-.263v-2.567c3 2.55 6.804 4.004 10.783 4.055-.906 1.157-1.628 2.474-2.107 3.92zm-24.676 8.092h4v2h-4zm-.499-10.675c-1.543-.893-2.501-2.551-2.501-4.325 0-2.757 2.243-5 5-5s5 2.243 5 5c0 1.774-.958 3.432-2.501 4.325l-.499.289v2.386h-4v-2.386zm48.447 5.651c.035.336.052.678.052 1.024s-.017.688-.052 1.032c-.53 5.683-5.236 9.968-10.948 9.968-5.011 0-9.386-3.393-10.638-8.25l-.194-.75h-26.168v-4h26.168l.193-.75c1.253-4.857 5.628-8.25 10.639-8.25 5.712 0 10.418 4.285 10.948 9.976zm.052-21.684-2.249.791-.109.562c-.489 2.516-1.458 4.858-2.879 6.965l-.32.476 1.027 2.143-.314.314c-1.308-.699-2.749-1.176-4.276-1.395 3.239-3.175 5.12-7.552 5.12-12.148 0-9.374-7.626-17-17-17s-17 7.626-17 17c0 1.698.267 3.346.751 4.938l-4.751-2.193v-5.037l2.249-.791.109-.562c.489-2.516 1.458-4.858 2.879-6.965l.32-.476-1.027-2.144 3.241-3.24 2.144 1.027.475-.32c2.107-1.421 4.45-2.39 6.966-2.879l.562-.109.79-2.249h4.583l.791 2.249.562.109c2.516.489 4.859 1.458 6.966 2.879l.475.32 2.144-1.027 3.241 3.24-1.027 2.144.32.476c1.421 2.106 2.39 4.449 2.879 6.965l.109.562 2.249.791zm-24-3.292h-2v-8h2zm8 10h-2v-8h2zm2-8h2v8h-2zm-14 8h-2v-8h2zm0-10h-2v-8h2zm8 0h-2v-8h2zm4 0h2c1.103 0 2-.897 2-2v-4c0-1.103-.897-2-2-2h-2c-1.103 0-2 .897-2 2v4c0 1.103.897 2 2 2zm0-6h2l.001 4h-2.001zm-8 16h2c1.103 0 2-.897 2-2v-4c0-1.103-.897-2-2-2h-2c-1.103 0-2 .897-2 2v4c0 1.103.897 2 2 2zm0-6h2l.001 4h-2.001zm-19 11c0-1.654-1.346-3-3-3s-3 1.346-3 3 1.346 3 3 3 3-1.346 3-3zm-4 0c0-.552.449-1 1-1s1 .448 1 1-.449 1-1 1-1-.448-1-1z" fill="url(#SVGID_1_)"/></svg>