<?xml version="1.0" encoding="utf-8"?>
<!-- Generator: Adobe Illustrator 17.0.0, SVG Export Plug-In . SVG Version: 6.00 Build 0)  -->
<!DOCTYPE svg PUBLIC "-//W3C//DTD SVG 1.1//EN" "http://www.w3.org/Graphics/SVG/1.1/DTD/svg11.dtd">
<svg version="1.1" id="Layer_2" xmlns="http://www.w3.org/2000/svg" xmlns:xlink="http://www.w3.org/1999/xlink" x="0px" y="0px"
	 width="60px" height="64.972px" viewBox="0 0 60 64.972" enable-background="new 0 0 60 64.972" xml:space="preserve">
<polygon display="none" opacity="0.6" fill="#1E1E1E" enable-background="new    " points="4,10 12.812,10 8.312,15 "/>
<polygon display="none" opacity="0.6" fill="#1E1E1E" enable-background="new    " points="30.625,14 21.812,14 26.312,9 "/>
<g id="Page-1" opacity="0.6">
	<g id="icon-111-search">
		<path id="search" fill="#8E98A7" d="M51.95,38.542c-0.81,0.577-1.801,0.917-2.872,0.917c-2.736,0-4.954-2.218-4.954-4.954
			s2.218-4.954,4.954-4.954s4.954,2.218,4.954,4.954c0,1.07-0.339,2.062-0.917,2.872l3.255,3.255c0.321,0.321,0.318,0.834,0,1.152
			l-0.014,0.014c-0.317,0.317-0.834,0.318-1.152,0L51.95,38.542L51.95,38.542z M49.079,38.293c2.092,0,3.788-1.696,3.788-3.788
			s-1.696-3.788-3.788-3.788s-3.788,1.696-3.788,3.788S46.987,38.293,49.079,38.293L49.079,38.293z"/>
	</g>
</g>
<g id="Page-1_1_" opacity="0.6">
	<g id="icon-111-search_1_">
		<path id="search_1_" fill="#333333" d="M51.95,61.478c-0.81,0.577-1.801,0.917-2.872,0.917c-2.736,0-4.954-2.218-4.954-4.954
			s2.218-4.954,4.954-4.954s4.954,2.218,4.954,4.954c0,1.07-0.339,2.062-0.917,2.872l3.255,3.255c0.321,0.321,0.318,0.834,0,1.152
			l-0.014,0.014c-0.317,0.317-0.834,0.318-1.152,0L51.95,61.478L51.95,61.478z M49.079,61.229c2.092,0,3.788-1.696,3.788-3.788
			s-1.696-3.788-3.788-3.788s-3.788,1.696-3.788,3.788S46.987,61.229,49.079,61.229L49.079,61.229z"/>
	</g>
</g>
<polygon opacity="0.6" fill="#8E98A7" enable-background="new    " points="57.123,1.002 54.031,4.095 50.939,1.002 49.941,2 
	53.034,5.092 49.941,8.184 50.939,9.182 54.031,6.09 57.123,9.182 58.121,8.184 55.029,5.092 58.121,2 "/>
<polygon opacity="0.8" fill="#333333" enable-background="new    " points="57.123,12.065 54.031,15.157 50.939,12.065 
	49.941,13.063 53.034,16.155 49.941,19.247 50.939,20.244 54.031,17.152 57.123,20.244 58.121,19.247 55.029,16.155 58.121,13.063 
	"/>
<g display="none">
	<path display="inline" fill="#5E5E5E" d="M8.358,15.573l-4.699-5.146c-0.175-0.191-0.264-0.356-0.264-0.493
		c0-0.139,0.046-0.253,0.138-0.345s0.206-0.138,0.344-0.138c0.13,0,0.291,0.084,0.482,0.252l4,3.588l4.011-3.588
		c0.191-0.168,0.352-0.252,0.481-0.252c0.138,0,0.252,0.046,0.344,0.138s0.138,0.206,0.138,0.345c0,0.138-0.092,0.302-0.275,0.493
		L8.358,15.573z"/>
</g>
<g display="none">
	<path display="inline" fill="#5E5E5E" d="M26.369,9.307l4.699,5.146c0.175,0.191,0.264,0.356,0.264,0.493
		c0,0.139-0.046,0.253-0.138,0.345c-0.092,0.092-0.206,0.138-0.344,0.138c-0.13,0-0.291-0.084-0.482-0.252l-4-3.588l-4.011,3.588
		c-0.191,0.168-0.352,0.252-0.481,0.252c-0.138,0-0.252-0.046-0.344-0.138s-0.138-0.206-0.138-0.345
		c0-0.138,0.092-0.301,0.275-0.493L26.369,9.307z"/>
</g>
<g>
	<path fill="#8E98A7" d="M12.172,3.976L8.395,7.753C8.346,7.802,8.273,7.835,8.208,7.835S8.07,7.803,8.021,7.753L4.246,3.976
		C4.197,3.927,4.164,3.854,4.164,3.789c0-0.065,0.032-0.138,0.082-0.187L4.65,3.197C4.7,3.148,4.765,3.116,4.837,3.116
		c0.065,0,0.138,0.032,0.187,0.082l3.185,3.185l3.185-3.185c0.049-0.049,0.122-0.082,0.187-0.082c0.065,0,0.138,0.032,0.187,0.082
		l0.405,0.405c0.049,0.049,0.082,0.122,0.082,0.187C12.254,3.854,12.221,3.927,12.172,3.976z"/>
</g>
<g>
	<path fill="#333333" d="M22.389,6.221l3.777-3.777c0.049-0.049,0.122-0.082,0.187-0.082s0.138,0.032,0.187,0.082l3.777,3.777
		c0.049,0.049,0.082,0.122,0.082,0.187s-0.032,0.138-0.082,0.187L29.912,7c-0.049,0.049-0.114,0.082-0.187,0.082
		c-0.065,0-0.138-0.032-0.187-0.082l-3.185-3.185L23.168,7c-0.049,0.049-0.122,0.082-0.187,0.082S22.843,7.05,22.794,7l-0.405-0.405
		c-0.049-0.049-0.082-0.122-0.082-0.187S22.34,6.27,22.389,6.221z"/>
</g>
</svg>
