<svg version="1" id="Layer_1" xmlns="http://www.w3.org/2000/svg" viewBox="0 0 600 600"><style>.st1{fill:#7d9a3d}.st2{fill:#d52a28}</style><switch><g><path d="M400 600H200C90 600 0 510 0 400V200C0 90 90 0 200 0h200c110 0 200 90 200 200v200c0 110-90 200-200 200z" fill="#fff"/><path class="st1" d="M425.6 478.5c-3.3 2.3-6.6 4.6-10.1 6.7l-3.6-5.7c4.6-.6 9.1-.9 13.7-1zm26-21.8c-4.2 4.1-8.5 8-12.8 11.7-11.1-.9-22.2-.5-33.3 1.4-2.8-4-5.8-7.9-8.9-11.8 17.9-3.8 36.6-4.3 55-1.3zm18.8-20.3c-3.1 3.8-6.4 7.6-9.7 11.3-24-5.1-48.8-4.5-72.1 1.3-3.4-3.7-6.9-7.3-10.5-10.8 16-4.9 32.6-7.3 49.5-7.3 14.4.1 28.8 1.9 42.8 5.5zm14.1-20.7c-2.4 4-5 7.8-7.6 11.5-16-4.5-32.6-6.8-49.3-6.8-19.8 0-39.4 3.2-58 9.5-3.8-3.3-7.8-6.6-11.9-9.7 22.3-8.6 45.8-12.9 70-12.9 19.2 0 38.4 2.8 56.8 8.4zm-175 103.2c-3.6.2-7.1.2-10.7.3H296l-5.2-.1c-20.1-17.7-45.9-27.4-72.8-27.4-7.4 0-14.7.7-22 2.2-5.5-2.9-10.9-6.1-16.1-9.4 12.3-4 25-6 38.2-6 35.3 0 68 14.6 91.4 40.4z"/><path class="st1" d="M337.4 515.6c-5 .9-9.9 1.6-15 2.2-25.6-31.7-63.4-49.9-104.4-49.9-17.2 0-33.9 3.2-49.7 9.6-4.1-3-8.1-6-12-9.2 19.4-8.9 40.1-13.5 61.7-13.5 47.7-.1 91.7 22.6 119.4 60.8z"/><path class="st1" d="M362.2 509.7c-4.5 1.3-8.9 2.5-13.5 3.6-29.5-43.3-78-69.1-130.6-69.1-24.3 0-47.7 5.4-69.4 16-3.3-3.1-6.5-6.4-9.8-9.8 24.4-12.7 51.6-19.4 79.2-19.4 58.2 0 112.8 30 144.1 78.7z"/><path class="st1" d="M406.4 490.7c-10.8 6.1-22.1 11.3-33.9 15.6-33-53-91.8-85.8-154.5-85.8-30.6 0-60.8 7.8-87.6 22.5-21.8-25.2-38.1-55.2-46.8-88.4 22.5 19.2 67.4 28.9 134.4 28.9 76.2 0 149.6 41.9 188.4 107.2zm-188.3 11.6c19 0 37.4 5.4 53.2 15.3-20.4-2.4-40.1-7.6-58.4-15.2 1.7-.1 3.5-.1 5.2-.1z"/><path class="st2" d="M168.1 227.6L122 128.8c-.1-.2-.3-.3-.5-.3h-3.1c-.2 0-.4.1-.5.3l-46.1 98.8c-.1.1 0 .3 0 .5.1.1.2.2.4.2h23.1c.2 0 .4-.1.5-.3l7.2-17.5h33.1l7.2 17.5c.1.2.3.3.5.3h23.6c.2 0 .3-.1.4-.2.3-.2.3-.4.3-.5zm-39.5-35.5h-17.9l9-21.7 8.9 21.7z"/><path class="st2" d="M228.7 164.9h-17c-1.1 0-2 .9-2 2v3c-4.5-3.9-9.8-5.9-15.9-5.9-7.7 0-14.7 3.1-20.7 9.2s-9 14-9 23.6 3 17.2 8.8 23c5.8 5.7 13.1 8.7 21.5 8.7 6.7 0 12.5-2 17.5-5.9-.6 3.5-2.1 6.3-4.3 8.2-3.2 2.7-7.7 4.2-13.4 4.2s-11.3-2-16.5-5.9c-.5-.4-1.1-.5-1.7-.4-.6.1-1.1.5-1.3 1l-6.5 12.7c-.5.9-.2 1.9.6 2.5 3.7 2.8 8.1 5.1 13 6.6s9.7 2.3 14.4 2.3c8.9 0 16.8-2.6 23.4-7.9 3.4-2.6 6.2-6.2 8.2-10.7 2-4.5 3-9.6 3-15.3V167c-.1-1.2-1-2.1-2.1-2.1zm-31 45.3c-3.5 0-6.4-1.3-8.9-3.8-2.5-2.6-3.7-6-3.7-10.3 0-4.3 1.2-7.6 3.8-10 2.5-2.5 5.5-3.6 8.9-3.6s6.3 1.2 8.6 3.6c2.4 2.4 3.5 5.7 3.5 10.1 0 4.4-1.2 7.7-3.5 10.3-2.3 2.4-5.2 3.7-8.7 3.7zm101.9-38.4h-33.2v-20.7h38.8c.3 0 .5-.2.5-.5v-20.9c0-.3-.2-.5-.5-.5h-62c-.3 0-.5.2-.5.5v98c0 .3.2.5.5.5h22.7c.3 0 .5-.2.5-.5v-35h33.2c.3 0 .5-.2.5-.5v-19.9c0-.3-.2-.5-.5-.5zm34.7-3.6c-18.7 0-31.8 12.6-31.8 30.6s13.1 30.6 31.8 30.6c18.6 0 31.7-12.6 31.7-30.6s-13.1-30.6-31.7-30.6zm0 45.4c-7.1 0-11.1-5.4-11.1-14.9s4.1-14.9 11.1-14.9 11 5.4 11 14.9c-.1 9.5-4 14.9-11 14.9zm57.9-84.3h-19.8c-.3 0-.5.2-.5.5v98c0 .3.2.5.5.5h19.8c.3 0 .5-.2.5-.5v-98.1c-.1-.2-.3-.4-.5-.4zm48.8 68.1l23.1-27.4c.1-.1.1-.4.1-.5-.1-.2-.3-.3-.5-.3h-23.3c-.1 0-.3.1-.4.2l-17.4 23.1v-62.8c0-.3-.2-.5-.5-.5h-19.8c-.3 0-.5.2-.5.5v98c0 .3.2.5.5.5h19.8c.3 0 .5-.2.5-.5V203l18.4 25.1c.1.1.2.2.4.2h23.3c.2 0 .4-.1.5-.3.1-.2 0-.4 0-.5L441 197.4z"/><path class="st2" d="M493.8 191.4c-4.9-1.3-8.8-2.4-8.8-4.7 0-1.9 2.2-3.1 5.5-3.1 4.7 0 11.1 1.9 17 5.1.1.1.3.1.4 0 .1 0 .2-.2.3-.3l4.8-14.2c.1-.2 0-.5-.2-.6-6.6-3.5-14.6-5.5-21.4-5.5-14.8 0-25.1 8.3-25.1 20 0 12.4 11.3 15.4 19.5 17.5 4.7 1.3 8.7 2.3 8.7 4.6 0 2.2-2.2 3.4-6.2 3.4-5.2 0-12.5-2.7-18.5-7-.1-.1-.3-.1-.4-.1-.1 0-.3.1-.3.3l-6.3 14.2c-.1.2 0 .5.2.6 7.8 5 16.4 7.6 25.4 7.6 15.3 0 25.9-7.8 25.9-19.1 0-13.2-11.9-16.4-20.5-18.7z"/><g><path d="M343.5 283.5c.7 0 1.3.1 1.8.1 3.1 0 5.8-.4 8.2-1.1s4.4-1.7 6.2-2.9c1.7-1.2 3.2-2.6 4.4-4.3 1.2-1.6 2.1-3.3 2.7-5.1.7-1.8 1.2-3.7 1.5-5.6.3-1.9.4-3.7.4-5.4 0-1.8-.3-3.4-.8-5-.6-1.5-1.4-2.9-2.6-4-1.2-1.1-2.8-2-4.7-2.7-1.9-.6-4.3-1-7-1-.5 0-1.2 0-1.9.1-.8 0-1.6.1-2.4.1-.8 0-1.6.1-2.4.1h-7.4l-.5 2 .3.1c.6.2 1.2.5 1.8.7.6.2 1.2.4 1.8.5l-6.2 29.4c-1.5.2-3 .6-4.3 1.2l-.2.1-.4 2.1h5.2c.6 0 1.3 0 2.1.1l2.3.1c.6.3 1.4.4 2.1.4zm-1.8-3.3l6.2-30c.5 0 1.1-.1 1.8-.1h2.7c2 0 3.8.2 5.1.7 1.3.5 2.3 1.1 3.1 1.9.7.8 1.3 1.7 1.5 2.8s.5 2.3.5 3.6c0 2.5-.3 5.1-.8 7.7-.5 2.5-1.4 4.8-2.7 6.9-1.3 2-3 3.7-5 4.9-2.1 1.3-4.7 1.8-7.8 1.8h-3.6c-.5-.2-.8-.2-1-.2zm32 3.2c.9 0 1.9-.2 2.9-.5 1-.4 1.9-.8 2.6-1.4l.1-.1v-1.9h-3.7l4.7-22.1v-.2l-1.2-.8h-.1c-.5 0-1.1 0-1.7.2-.6.1-1.3.3-1.9.4-.7.2-1.3.4-2 .6l-1.8.6-.2.1v1.8l3.2.5-3.5 16c-.2.8-.3 1.5-.4 2.1-.1.6-.1 1.3-.1 2 0 .6.2 1.3.7 1.8.5.7 1.2.9 2.4.9zm5.1-31.6c1 0 1.9-.3 2.5-.8.6-.6.9-1.3.9-2.2 0-1-.3-1.8-.9-2.3-.6-.6-1.4-.8-2.5-.8-1 0-1.8.3-2.4.8-.6.6-.9 1.3-.9 2.3 0 .9.3 1.7.9 2.2.6.5 1.4.8 2.4.8zm21.3 11.3l.2-.2c.3-.3.5-.6.7-1.1l.6-1.5c.2-.5.3-1 .5-1.5.1-.5.1-.9.1-1.3v-.2l-.2-.1c-.4-.2-.9-.4-1.4-.5-2.2-.4-4.3.2-6.2 1.9-1 1-2 2.2-2.8 3.7l1.1-5-1.3-.8h-.1c-1 .1-2.2.3-3.4.6-1.3.3-2.5.7-3.7 1.3l-.2.1v1.8l3 .5-4.7 22.3h5.1l3.1-14.4c.8-2.3 1.8-4.1 2.9-5.4 1-1.3 1.9-2 2.7-2.4l4 2.2zm.1 11.3c0 2.9.8 5.2 2.4 6.9 1.6 1.7 3.8 2.5 6.7 2.5 1.2 0 2.2-.1 3.2-.5 1-.3 1.9-.7 2.7-1.2.8-.5 1.5-1.1 2.1-1.7.6-.6 1.1-1.3 1.4-1.9l.1-.2-1.2-1.4-.3.2c-.3.3-.7.6-1.2.9-.4.3-.9.6-1.5.9-.6.3-1.1.6-1.7.7-.6.2-1.2.3-1.8.3-1.9 0-3.3-.6-4.3-1.8-1-1.2-1.5-2.8-1.5-4.7 0-.5 0-1 .1-1.5 0-.5.1-.9.2-1.4 5.2-.4 9-1.3 11.4-2.7 2.5-1.4 3.8-3.5 3.8-6 0-1.7-.6-3.1-1.9-3.9-1.2-.9-2.7-1.3-4.4-1.3-2.2 0-4.2.5-6 1.4-1.8.9-3.3 2.2-4.5 3.8-1.3 1.6-2.2 3.5-2.9 5.7-.6 2.1-.9 4.4-.9 6.9zm13.1-8.5c-1.7.9-4 1.5-7 1.6.8-2.9 1.9-5 3-6.2 1.2-1.3 2.5-1.9 3.8-1.9 1.1 0 1.9.3 2.2.8.4.6.6 1.1.6 1.8-.1 1.7-.9 3-2.6 3.9zm16.8 17.9c1.2 0 2.3-.1 3.2-.5 1-.3 1.9-.7 2.7-1.2.8-.5 1.5-1.1 2.1-1.7.6-.6 1.1-1.3 1.5-1.9l.1-.2-1.1-1.4-.3.2c-.3.3-.7.6-1.2.9-.4.3-.9.6-1.4.9-.5.3-1.1.6-1.7.7-.6.2-1.2.3-1.9.3-1.6 0-2.8-.5-3.7-1.5-.9-1-1.3-2.6-1.3-4.9 0-2.2.2-4.2.8-5.9s1.3-3.2 2.1-4.4c.9-1.2 1.9-2.1 2.9-2.8 1-.6 2-.9 3.1-1l3.5 3.6.2-.1c.4-.1.7-.5 1-.9.3-.4.6-.8.7-1.3.2-.5.3-.9.4-1.4.1-.5.1-.9.1-1.3v-.1l-.1-.1c-.5-.4-1.1-.7-2-1-.8-.2-1.9-.3-3.2-.3-2.1 0-4.1.5-6 1.4-1.9.9-3.5 2.3-4.8 3.9-1.3 1.6-2.5 3.6-3.2 5.7-.8 2.2-1.2 4.5-1.2 7 0 2.8.7 5.1 2.3 6.7 1.7 1.7 3.8 2.6 6.4 2.6zm24.4-2.6c.6-.5 1.1-.9 1.4-1.4l.1-.2-.8-1.4-.3.1c-.8.4-1.7.7-2.6 1.1-.9.3-1.8.5-2.6.5-.5 0-1-.2-1.4-.5s-.6-.9-.6-1.6c0-.4 0-.8.1-1.3 0-.5.2-1 .3-1.7l3.1-14.3h6.2l.1-.2c.3-.5.5-.9.6-1.4.1-.5.1-1 0-1.4v-.3H452l1.2-5.4-1.4-.8h-.1c-.7.3-1.3.6-1.9.8-.6.3-1.2.6-1.7 1l-.1.1-.8 3.8c-.7.2-1.4.4-2.1.7-.8.3-1.5.7-2.2 1.1l-.2.1-.1 1.9h3.8l-3.2 15.4-.3 1.8c-.1.6-.1 1.1-.1 1.6 0 1.5.5 2.6 1.4 3.4.9.7 2.1 1.1 3.7 1.1.8 0 1.6-.1 2.5-.4.8-.2 1.7-.6 2.5-.9.3-.4 1-.8 1.6-1.3zM306 326.4c-.8.4-1.7.7-2.6 1.1-.9.3-1.8.5-2.6.5-.5 0-1-.2-1.4-.5-.4-.3-.6-.9-.6-1.6 0-.4 0-.8.1-1.3 0-.5.2-1 .3-1.7l3.1-14.3h6.2l.1-.2c.3-.5.5-.9.6-1.4.1-.5.1-1 0-1.4v-.3h-6.1l1.2-5.4-1.4-.8h-.1c-.7.3-1.3.6-1.9.8-.6.3-1.2.6-1.7 1l-.1.1-.8 3.8c-.7.2-1.4.4-2.1.7-.8.3-1.5.7-2.2 1.1l-.2.1-.1 1.9h3.8l-3.2 15.4-.3 1.8c-.1.6-.1 1.1-.1 1.6 0 1.5.5 2.6 1.4 3.4.9.7 2.1 1.1 3.7 1.1.8 0 1.6-.1 2.5-.4.8-.2 1.7-.6 2.5-.9s1.5-.8 2.1-1.3c.6-.5 1.1-.9 1.4-1.4l.1-.2-.8-1.4-.8.1zm16.3-21.9c-2.3 0-4.4.6-6.2 1.6-1.8 1.1-3.2 2.5-4.4 4.1-1.2 1.7-2 3.5-2.6 5.5-.6 1.9-.8 3.9-.8 5.7 0 3.4.8 6 2.4 7.7 1.6 1.8 3.8 2.6 6.4 2.6 2 0 3.8-.5 5.5-1.4 1.7-.9 3.1-2.2 4.2-3.8 1.2-1.6 2.1-3.4 2.7-5.5s1-4.3 1-6.5c0-3.2-.7-5.7-2.1-7.4-1.3-1.7-3.4-2.6-6.1-2.6zm-4.3 24.3c-1.4 0-2.5-.6-3.2-1.7-.8-1.2-1.3-2.7-1.3-4.6 0-1.4.1-3.1.4-4.8.2-1.8.6-3.4 1.3-4.9.6-1.5 1.4-2.7 2.4-3.8 1-1 2.3-1.5 3.8-1.5 1.3 0 2.3.6 3 1.7.6 1.2 1 2.7 1 4.6 0 1.9-.2 3.7-.5 5.5-.4 1.8-.8 3.5-1.5 4.9-.6 1.4-1.4 2.5-2.3 3.4-1 .8-2 1.2-3.1 1.2zm51.7-25.1c.5-1.4 1-2.8 1.3-4.2.4-1.4.7-2.7 1-4.1l.1-.4h-24.5l-.5 2 .2.1c.5.2 1 .5 1.6.7.5.2 1 .3 1.6.5l-6.2 29.5c-.6.1-1.2.3-1.8.5-.7.2-1.3.5-1.9.7l-.2.1-.4 2.1h13.6l.4-2-.2-.1c-1.2-.6-2.5-1-3.8-1.2l2.6-12.5h8.3l1.1 3.9h1.8l.1-.2c.5-1.5.9-3.3 1.3-5.2.4-1.9.7-3.6.8-5.1v-.4h-1.9l-2.8 3.8h-8.2l2.9-13.7h10.7l.9 5.6h1.9l.2-.4zm22.5.8c-1.5 0-2.9.3-4.3 1-.6-.3-1.2-.5-1.7-.6-.6-.1-1.3-.2-2.1-.2-2.4 0-4.5.6-6.4 1.6-1.9 1.1-3.5 2.5-4.8 4.3-1.3 1.8-2.3 3.8-3 6.1-.7 2.3-1 4.6-1 7 0 5.3 1.9 8 5.6 8 1.3 0 2.4-.3 3.5-1 1.1-.6 2.1-1.5 3-2.5s1.7-2.2 2.3-3.5l.6-1.2c-.2 1-.4 1.8-.5 2.5-.2 1.4-.4 2.4-.4 3.1 0 .6.2 1.1.7 1.6.5.5 1.3.7 2.4.7.9 0 1.9-.2 2.9-.6 1-.4 1.9-.8 2.5-1.4l.1-.1v-1.8H388l4.5-23.1-.3.1zM380 309c1.2-.9 2.5-1.3 4-1.3.7 0 1.3 0 1.7.2.3.1.7.3 1.1.5l-1.6 8.3c-.4.9-.9 1.9-1.5 3.2-.6 1.3-1.3 2.5-2.1 3.8-.8 1.2-1.6 2.2-2.5 3.1-.8.8-1.7 1.2-2.5 1.2-.9 0-1.5-.4-1.9-1.2-.4-.9-.6-2.2-.6-3.8 0-1.8.2-3.6.7-5.4.5-1.8 1.2-3.5 2-5 .9-1.5 2-2.7 3.2-3.6zm63.8-4.5c-1.2 0-2.3.3-3.3.9-1.1.6-2 1.3-3 2.3-.9.9-1.8 1.9-2.5 3.1-.3.4-.5.8-.7 1.2.1-.8.2-1.7.2-2.4 0-1-.1-1.8-.3-2.5-.2-.6-.5-1.2-.8-1.6-.3-.4-.7-.7-1.2-.8-.4-.1-.9-.2-1.3-.2-1.2 0-2.3.3-3.4 1-1.1.6-2.1 1.5-3.1 2.5s-1.8 2-2.5 3.2c-.2.4-.5.8-.7 1.2l1.7-7-1.4-.8h-.1c-1 0-2.1.2-3.4.5-1.3.3-2.5.8-3.7 1.3 0-.3.1-.6.1-.9v-.2l-.2-.1c-.4-.2-.9-.4-1.4-.5-2.2-.4-4.3.2-6.2 1.9-1 1-2 2.2-2.8 3.7l1.1-5-1.3-.8h-.1c-1 .1-2.2.3-3.4.6-1.3.3-2.5.7-3.7 1.3l-.2.1v1.8l3 .5-4.7 22.4h5.1l3.1-14.4c.8-2.3 1.8-4.1 2.9-5.4 1-1.3 1.9-2 2.7-2.4l4.1 2.1.2-.2c.3-.3.5-.6.7-1.1l.6-1.5c.1-.3.2-.7.3-1v1l3 .5-4.7 22.4h5.1l2.7-13.1c.4-1 .9-2.1 1.6-3.2.6-1.1 1.3-2.2 2.1-3.2.7-1 1.5-1.8 2.3-2.4 1.4-1.1 2.7-1.1 3.1-.4.2.4.4 1 .4 1.7 0 1-.1 2-.2 3-.2 1-.4 1.9-.6 3l-3.3 14.6h4.8l3.2-13.2c.4-1 .9-2.1 1.5-3.2s1.3-2.2 2-3.2c.7-.9 1.5-1.8 2.3-2.4.8-.6 1.5-.9 2.3-.9.6 0 1 .2 1.2.6.2.5.4 1.2.4 1.9 0 .6-.1 1.3-.3 2.1-.2.9-.4 1.7-.6 2.5l-2.4 9.2c-.5 1.8-.7 3.2-.7 4.1 0 .7.2 1.3.6 1.8.4.5 1.2.8 2.3.8.9 0 1.9-.2 2.9-.5 1-.4 1.9-.8 2.6-1.4l.1-.1v-1.9H444l3.2-11.9.6-3.1c.2-1 .3-2 .3-3.2 0-1.5-.4-2.7-1.1-3.6-.7-.6-1.8-1.1-3.2-1.1zm26 1.3c-1.2-.9-2.7-1.3-4.4-1.3-2.2 0-4.2.5-6 1.4-1.8.9-3.3 2.2-4.5 3.8-1.3 1.6-2.2 3.5-2.9 5.7-.7 2.1-1 4.5-1 6.9 0 2.9.8 5.2 2.4 6.9 1.6 1.7 3.8 2.5 6.7 2.5 1.2 0 2.2-.1 3.2-.5 1-.3 1.9-.7 2.7-1.2.8-.5 1.5-1.1 2.1-1.7.6-.6 1.1-1.3 1.4-1.9l.1-.2-1.2-1.4-.3.2c-.3.3-.7.6-1.2.9-.4.3-.9.6-1.5.9-.6.3-1.1.6-1.7.7-.6.2-1.2.3-1.8.3-1.9 0-3.3-.6-4.3-1.8-1-1.2-1.5-2.8-1.5-4.7 0-.5 0-1 .1-1.5 0-.5.1-.9.2-1.4 5.2-.4 9-1.3 11.4-2.7 2.5-1.4 3.8-3.5 3.8-6 .1-1.6-.5-3-1.8-3.9zm-5.7 8.1c-1.7.9-4 1.5-7 1.6.8-2.9 1.9-5 3-6.2 1.2-1.3 2.5-1.9 3.8-1.9 1.1 0 1.9.3 2.2.8.4.6.6 1.1.6 1.8 0 1.7-.9 3-2.6 3.9zm26.3-3c.3-.3.5-.6.7-1.1l.6-1.5c.2-.5.3-1 .5-1.5.1-.5.1-.9.1-1.3v-.2l-.2-.1c-.4-.2-.9-.4-1.4-.5-2.2-.4-4.3.2-6.2 1.9-1 1-2 2.2-2.8 3.7l1.1-5-1.3-.8h-.1c-1 .1-2.2.3-3.4.6-1.3.3-2.5.7-3.7 1.3l-.2.1v1.8l3 .5-4.7 22.4h5.1l3.1-14.4c.8-2.3 1.8-4.1 2.9-5.4 1-1.3 1.9-2 2.7-2.4l4.1 2.1.1-.2zm18.1-5c-1-.6-2.1-1-3.2-1.1-1.1-.1-2.1-.2-3-.2a16 16 0 0 0-3.9.5c-1.2.3-2.2.8-3.1 1.4-.9.6-1.6 1.4-2 2.4-.5 1-.7 2.1-.7 3.3 0 1.3.2 2.4.6 3.3.4.9 1 1.7 1.7 2.4.6.6 1.4 1.3 2.1 1.9.7.6 1.4 1.1 2.1 1.6.6.5 1.2 1.1 1.6 1.6.4.5.6 1.2.6 1.9s-.2 1.3-.5 1.8-.7.9-1.3 1.3c-.5.3-1.1.6-1.8.7-.6.1-1.3.2-1.9.2l-4.7-4.3-.2.2c-.8.7-1.3 1.6-1.6 2.5-.2.8-.5 1.7-.6 2.6v.2l.2.1c.7.5 1.7.8 2.9 1.2 1.2.3 2.5.5 3.9.5s2.8-.2 4.1-.5c1.3-.3 2.5-.9 3.4-1.5 1-.7 1.8-1.5 2.4-2.5.6-1 .9-2.1.9-3.4 0-1.3-.2-2.3-.7-3.2-.5-.9-1-1.7-1.7-2.4-.6-.6-1.4-1.3-2.1-1.8-.7-.5-1.4-1.1-2.1-1.6-.6-.5-1.2-1.1-1.6-1.7-.4-.6-.6-1.3-.6-2s.1-1.3.3-1.7c.2-.4.5-.8.9-1.1.4-.3.9-.5 1.4-.6.5-.1 1.1-.2 1.7-.2l3.8 3.9.2-.1c.4-.2.7-.5 1-.9.3-.4.6-.8.7-1.3l.6-1.5c.1-.5.2-1 .2-1.4v-.5z" fill="#635b5b"/></g><g><path d="M298 77.3c59 0 114.4 22.9 156 64.6 5.7 5.7 11.1 11.8 16.2 18.1 3.3-1.8 7-3.2 11-4-6-7.7-12.4-15-19.3-21.9-43.8-43.8-102-67.9-163.9-67.9-60.3 0-117.1 22.9-160.5 64.6l5 10.7c41.6-41.4 96.8-64.2 155.5-64.2zm221.8 153c-2.6 2.8-5.8 5.3-9.5 7.2 5.5 19.4 8.3 39.7 8.3 60.5 0 38.7-9.9 75.8-28.4 108.5-20.3-6.5-41.4-9.8-62.7-9.8-28 0-55 5.6-80.5 16.4-19.4-13.2-40.8-23.4-63.3-30.3v-63.2l-41-29.9h-55l-1.7-1.3-42.7 31.1v47.6c-2.7-.5-5.4-1-8-1.6h.1v-82.4c0-11.2-9.2-20.4-20.4-20.4s-20.4 9.1-20.4 20.4v66.2c-6.8-4.9-11.9-10.6-14.7-17.5-1.7-11.1-2.6-22.4-2.6-33.9 0-19.3 2.5-38.3 7.3-56.5H73.1c-4.5 18.3-6.9 37.2-6.9 56.5 0 61.9 24.1 120.1 67.9 163.9 43.8 43.8 102 67.9 163.9 67.9s120.1-24.1 163.9-67.9c43.8-43.8 67.9-102 67.9-163.9 0-23.2-3.4-45.9-10-67.6zM412 479.5c4.4-.6 8.7-.9 13.1-1-3.2 2.2-6.4 4.4-9.6 6.4-1.3-1.7-2.4-3.5-3.5-5.4zm26.3-11.1c-11-.9-21.9-.4-32.8 1.4-2.8-4-5.8-7.9-8.9-11.8 17.8-3.8 36.5-4.3 54.8-1.3-4.3 4.1-8.6 8-13.1 11.7zm21.9-20.7c-23.9-5-48.4-4.5-71.6 1.4-3.4-3.7-6.9-7.3-10.5-10.8 16-4.9 32.6-7.3 49.5-7.3 14.3 0 28.6 1.8 42.4 5.3-3.2 3.9-6.4 7.6-9.8 11.4zm-32.6-40.4c19.3 0 38.4 2.8 56.9 8.4-2.4 4-5 7.8-7.6 11.5-16-4.5-32.6-6.8-49.3-6.8-19.8 0-39.4 3.2-58 9.5-3.8-3.3-7.8-6.6-11.9-9.7 22.3-8.6 45.7-12.9 69.9-12.9zm-188.3-107l33.8 24.7v54.9c-14.5-3.7-29.4-5.9-44.5-6.7v-53.6l-26.5-19.3h37.2zM153.9 325l32.1-23.4 32.1 23.4v48c-5.1 0-10.2-.1-15.4-.2v-14.2L186 346.4l-16.7 12.2v12.2c-5.2-.5-10.4-1.1-15.4-1.9V325zm38.2 38.9v8.5c-4.1-.2-8.2-.4-12.2-.7v-7.8l6.1-4.5 6.1 4.5zm-87-80.7c0-5.4 4.4-9.8 9.9-9.8 5.4 0 9.8 4.4 9.8 9.8v2.8h-19.7v-2.8zm0 13.4h19.7v27.3h-19.7v-27.3zm0 37.8h19.7V363c-7.1-2-13.8-4.5-19.7-7.3v-21.3zm113 49.1c76.1 0 149.3 41.8 188.2 106.9-10.8 6.1-22.2 11.3-33.9 15.5-33.1-52.8-91.7-85.4-154.2-85.4-30.4 0-60.3 7.6-86.9 22.1-22.1-25.4-37.8-55.1-46.4-87 22.8 18.5 67.3 27.9 133.2 27.9zm130.4 129.4c-29.5-43.1-77.9-68.7-130.4-68.7-24.3 0-47.7 5.4-69.4 16-3.3-3.1-6.5-6.4-9.8-9.8 24.4-12.7 51.6-19.4 79.2-19.4 58 0 112.6 29.9 143.9 78.3-4.5 1.4-9 2.6-13.5 3.6zm-26.4 4.5c-25.6-31.4-63.3-49.5-104-49.5-16.9 0-33.3 3.2-49 9.3-4.1-2.9-8.1-6-12-9.3 19.2-8.7 39.6-13.2 60.9-13.2 47.4 0 91.3 22.5 119.1 60.5-4.9.9-10 1.6-15 2.2zm-107.8-15c1.3 0 2.5-.1 3.8-.1 18.6 0 36.6 5.1 52.2 14.7-19.4-2.5-38.2-7.4-56-14.6zm83.7 16.3c-2.6 0-5.2 0-7.7-.1-20-17.3-45.5-26.8-72.2-26.8-7.3 0-14.6.7-21.9 2.2-2.1-1.1-4.2-2.2-6.2-3.3-.5-.3-.9-.5-1.4-.8-.4-.2-.8-.5-1.3-.7-2.5-1.4-4.9-3-7.4-4.5 12.3-4 25-6 38.2-6 35 0 67.6 14.4 91 39.9-3.7 0-7.4.1-11.1.1z" fill="#0a5b2f"/></g></g></switch></svg>